SplineFontDB: 3.0
FontName: CharterishSmallCaps
FullName: Charterish Small Caps Regular
FamilyName: Charterish Small Caps
Weight: Book
Copyright: Copyright (c) 1997-2013, SIL International (http://scripts.sil.org/)
Version: 4.114
ItalicAngle: 0
UnderlinePosition: -230
UnderlineWidth: 120
Ascent: 1638
Descent: 410
sfntRevision: 0x00041c28
LayerCount: 2
Layer: 0 1 "Arri+AOgA-re"  1
Layer: 1 1 "Avant"  0
XUID: [1021 607 50037791 1274298]
FSType: 4
OS2Version: 3
OS2_WeightWidthSlopeOnly: 0
OS2_UseTypoMetrics: 1
CreationTime: 1237439180
ModificationTime: 1390651649
PfmFamily: 17
TTFWeight: 400
TTFWidth: 5
LineGap: 0
VLineGap: 0
Panose: 2 0 5 0 6 0 0 2 0 4
OS2TypoAscent: 1561
OS2TypoAOffset: 0
OS2TypoDescent: -487
OS2TypoDOffset: 0
OS2TypoLinegap: 446
OS2WinAscent: 1972
OS2WinAOffset: 0
OS2WinDescent: 483
OS2WinDOffset: 0
HheadAscent: 2007
HheadAOffset: 0
HheadDescent: -487
HheadDOffset: 0
OS2SubXSize: 1331
OS2SubYSize: 1229
OS2SubXOff: 5
OS2SubYOff: 460
OS2SupXSize: 1331
OS2SupYSize: 1229
OS2SupXOff: 5
OS2SupYOff: 785
OS2StrikeYSize: 100
OS2StrikeYPos: 500
OS2Vendor: 'SIL '
OS2CodePages: 20000197.00000000
OS2UnicodeRanges: a00002ff.5200a1ff.02000009.00000000
Lookup: 5 0 0 "'ccmp' Composizione/Decomposizione del glifo lookups0"  {"sous-table 'ccmp' Composizione/Decomposizione del glifo lookups0"  } ['ccmp' ('cyrl' <'dflt' > 'latn' <'IPPH' 'ROM ' 'VIT ' 'dflt' > ) ]
Lookup: 5 0 0 "'ccmp' Composizione/Decomposizione del glifo lookups1"  {"sous-table 'ccmp' Composizione/Decomposizione del glifo lookups1"  } ['ccmp' ('cyrl' <'dflt' > 'latn' <'IPPH' 'ROM ' 'VIT ' 'dflt' > ) ]

StartChar: .notdef
Encoding: 65536 -1 0
Width: 748
Flags: W
LayerCount: 2
Fore
SplineSet
68 0 m 1,0,-1
 68 1365 l 1,1,-1
 612 1365 l 1,2,-1
 612 0 l 1,3,-1
 68 0 l 1,0,-1
136 68 m 1,4,-1
 544 68 l 1,5,-1
 544 1297 l 1,6,-1
 136 1297 l 1,7,-1
 136 68 l 1,4,-1
EndSplineSet
EndChar

StartChar: exclam
Encoding: 33 33 4
Width: 692
GlyphClass: 2
Flags: W
LayerCount: 2
Fore
SplineSet
221 102 m 0,0,1
 221 128 221 128 230.5 151 c 128,-1,2
 240 174 240 174 257 191 c 128,-1,3
 274 208 274 208 297 217.5 c 128,-1,4
 320 227 320 227 346 227 c 256,5,6
 372 227 372 227 395 217.5 c 128,-1,7
 418 208 418 208 435.5 191 c 128,-1,8
 453 174 453 174 463 151 c 128,-1,9
 473 128 473 128 473 102 c 0,10,11
 473 77 473 77 463 54 c 128,-1,12
 453 31 453 31 435.5 13.5 c 128,-1,13
 418 -4 418 -4 395 -14.5 c 128,-1,14
 372 -25 372 -25 346 -25 c 256,15,16
 320 -25 320 -25 297 -14.5 c 128,-1,17
 274 -4 274 -4 257 13.5 c 128,-1,18
 240 31 240 31 230.5 54 c 128,-1,19
 221 77 221 77 221 102 c 0,0,1
221 1274 m 0,20,21
 221 1336 221 1336 251 1371.5 c 128,-1,22
 281 1407 281 1407 346 1407 c 256,23,24
 411 1407 411 1407 441 1371.5 c 128,-1,25
 471 1336 471 1336 471 1274 c 0,26,27
 471 1268 471 1268 467.5 1225.5 c 128,-1,28
 464 1183 464 1183 459 1118.5 c 128,-1,29
 454 1054 454 1054 447.5 973.5 c 128,-1,30
 441 893 441 893 434 810 c 0,31,32
 417 615 417 615 397 371 c 1,33,-1
 297 371 l 1,34,35
 276 615 276 615 259 810 c 0,36,37
 252 893 252 893 245 973.5 c 128,-1,38
 238 1054 238 1054 233 1118.5 c 128,-1,39
 228 1183 228 1183 224.5 1225.5 c 128,-1,40
 221 1268 221 1268 221 1274 c 0,20,21
EndSplineSet
EndChar

StartChar: quotedbl
Encoding: 34 34 5
Width: 682
GlyphClass: 2
Flags: W
LayerCount: 2
Fore
SplineSet
88 1362 m 1,0,1
 88 1410 88 1410 111 1436 c 128,-1,2
 134 1462 134 1462 176 1462 c 0,3,4
 219 1462 219 1462 240.5 1436 c 128,-1,5
 262 1410 262 1410 262 1362 c 1,6,-1
 193 862 l 1,7,-1
 160 862 l 1,8,-1
 88 1362 l 1,0,1
420 1362 m 1,9,10
 420 1410 420 1410 442 1436 c 128,-1,11
 464 1462 464 1462 506 1462 c 0,12,13
 549 1462 549 1462 571.5 1436 c 128,-1,14
 594 1410 594 1410 594 1362 c 1,15,-1
 522 862 l 1,16,-1
 489 862 l 1,17,-1
 420 1362 l 1,9,10
EndSplineSet
EndChar

StartChar: numbersign
Encoding: 35 35 6
Width: 1522
GlyphClass: 2
Flags: W
LayerCount: 2
Fore
SplineSet
127 467 m 1,0,-1
 127 569 l 1,1,-1
 451 569 l 1,2,-1
 551 862 l 1,3,-1
 219 862 l 1,4,-1
 219 967 l 1,5,-1
 586 967 l 1,6,-1
 750 1450 l 1,7,-1
 854 1417 l 1,8,-1
 696 967 l 1,9,-1
 995 967 l 1,10,-1
 1157 1450 l 1,11,-1
 1266 1417 l 1,12,-1
 1110 967 l 1,13,-1
 1397 967 l 1,14,-1
 1397 862 l 1,15,-1
 1073 862 l 1,16,-1
 977 569 l 1,17,-1
 1307 569 l 1,18,-1
 1307 467 l 1,19,-1
 940 467 l 1,20,-1
 768 -47 l 1,21,-1
 666 -14 l 1,22,-1
 825 467 l 1,23,-1
 528 467 l 1,24,-1
 354 -47 l 1,25,-1
 254 -12 l 1,26,-1
 418 467 l 1,27,-1
 127 467 l 1,0,-1
563 569 m 1,28,-1
 860 569 l 1,29,-1
 961 862 l 1,30,-1
 664 862 l 1,31,-1
 563 569 l 1,28,-1
EndSplineSet
EndChar

StartChar: dollar
Encoding: 36 36 7
Width: 1153
GlyphClass: 2
Flags: W
LayerCount: 2
Fore
SplineSet
119 53 m 1,0,-1
 119 401 l 1,1,-1
 221 401 l 1,2,-1
 258 172 l 1,3,4
 272 155 272 155 300.5 141.5 c 128,-1,5
 329 128 329 128 366.5 119 c 128,-1,6
 404 110 404 110 447 105 c 128,-1,7
 490 100 490 100 532 100 c 1,8,-1
 532 618 l 1,9,10
 465 633 465 633 397.5 660.5 c 128,-1,11
 330 688 330 688 275.5 732 c 128,-1,12
 221 776 221 776 186.5 839.5 c 128,-1,13
 152 903 152 903 152 991 c 0,14,15
 152 1053 152 1053 169 1103.5 c 128,-1,16
 186 1154 186 1154 215 1193.5 c 128,-1,17
 244 1233 244 1233 282.5 1263 c 128,-1,18
 321 1293 321 1293 363.5 1314 c 128,-1,19
 406 1335 406 1335 450.5 1348.5 c 128,-1,20
 495 1362 495 1362 535 1368 c 1,21,-1
 535 1522 l 1,22,-1
 629 1522 l 1,23,-1
 629 1374 l 1,24,25
 695 1374 695 1374 757.5 1366.5 c 128,-1,26
 820 1359 820 1359 869 1350 c 0,27,28
 926 1339 926 1339 977 1327 c 1,29,-1
 977 1004 l 1,30,-1
 870 1004 l 1,31,-1
 840 1221 l 1,32,33
 792 1274 792 1274 629 1274 c 1,34,-1
 629 786 l 1,35,36
 673 773 673 773 720.5 758 c 128,-1,37
 768 743 768 743 813 722 c 128,-1,38
 858 701 858 701 898 673 c 128,-1,39
 938 645 938 645 968.5 605 c 128,-1,40
 999 565 999 565 1016.5 512 c 128,-1,41
 1034 459 1034 459 1034 389 c 0,42,43
 1034 326 1034 326 1013 273 c 128,-1,44
 992 220 992 220 958.5 177.5 c 128,-1,45
 925 135 925 135 881.5 103 c 128,-1,46
 838 71 838 71 792.5 48.5 c 128,-1,47
 747 26 747 26 704 14 c 128,-1,48
 661 2 661 2 627 0 c 1,49,-1
 627 -211 l 1,50,-1
 532 -211 l 1,51,-1
 532 0 l 1,52,53
 494 2 494 2 444 5 c 128,-1,54
 394 8 394 8 339.5 13.5 c 128,-1,55
 285 19 285 19 228 28.5 c 128,-1,56
 171 38 171 38 119 53 c 1,0,-1
342 1032 m 0,57,58
 342 982 342 982 360.5 946 c 128,-1,59
 379 910 379 910 407 884.5 c 128,-1,60
 435 859 435 859 469 842 c 128,-1,61
 503 825 503 825 535 813 c 1,62,-1
 535 1266 l 1,63,64
 494 1257 494 1257 459 1238.5 c 128,-1,65
 424 1220 424 1220 398 1191 c 128,-1,66
 372 1162 372 1162 357 1122.5 c 128,-1,67
 342 1083 342 1083 342 1032 c 0,57,58
627 109 m 1,68,69
 670 116 670 116 710 134 c 128,-1,70
 750 152 750 152 781 181.5 c 128,-1,71
 812 211 812 211 830 253 c 128,-1,72
 848 295 848 295 848 350 c 0,73,74
 848 406 848 406 830 446 c 128,-1,75
 812 486 812 486 781 514.5 c 128,-1,76
 750 543 750 543 710 561.5 c 128,-1,77
 670 580 670 580 627 594 c 1,78,-1
 627 109 l 1,68,69
EndSplineSet
EndChar

StartChar: percent
Encoding: 37 37 8
Width: 1761
GlyphClass: 2
Flags: W
LayerCount: 2
Fore
SplineSet
66 977 m 0,0,1
 66 1068 66 1068 85.5 1147 c 128,-1,2
 105 1226 105 1226 144.5 1283.5 c 128,-1,3
 184 1341 184 1341 243 1374 c 128,-1,4
 302 1407 302 1407 381 1407 c 256,5,6
 460 1407 460 1407 519 1374 c 128,-1,7
 578 1341 578 1341 617 1283.5 c 128,-1,8
 656 1226 656 1226 675 1147 c 128,-1,9
 694 1068 694 1068 694 977 c 0,10,11
 694 885 694 885 675 806.5 c 128,-1,12
 656 728 656 728 617 670.5 c 128,-1,13
 578 613 578 613 519 580 c 128,-1,14
 460 547 460 547 381 547 c 256,15,16
 302 547 302 547 243 580 c 128,-1,17
 184 613 184 613 144.5 670.5 c 128,-1,18
 105 728 105 728 85.5 806.5 c 128,-1,19
 66 885 66 885 66 977 c 0,0,1
219 977 m 256,20,21
 219 896 219 896 228.5 831 c 128,-1,22
 238 766 238 766 258 720.5 c 128,-1,23
 278 675 278 675 308.5 650 c 128,-1,24
 339 625 339 625 381 625 c 256,25,26
 423 625 423 625 452.5 650 c 128,-1,27
 482 675 482 675 500.5 720.5 c 128,-1,28
 519 766 519 766 528 831 c 128,-1,29
 537 896 537 896 537 977 c 256,30,31
 537 1058 537 1058 528 1123 c 128,-1,32
 519 1188 519 1188 500.5 1233.5 c 128,-1,33
 482 1279 482 1279 452.5 1304 c 128,-1,34
 423 1329 423 1329 381 1329 c 256,35,36
 339 1329 339 1329 308.5 1304 c 128,-1,37
 278 1279 278 1279 258 1233.5 c 128,-1,38
 238 1188 238 1188 228.5 1123 c 128,-1,39
 219 1058 219 1058 219 977 c 256,20,21
383 0 m 1,40,-1
 1253 1374 l 1,41,-1
 1380 1374 l 1,42,-1
 512 0 l 1,43,-1
 383 0 l 1,40,-1
1067 397 m 256,44,45
 1067 488 1067 488 1086.5 567 c 128,-1,46
 1106 646 1106 646 1145.5 703.5 c 128,-1,47
 1185 761 1185 761 1244 794 c 128,-1,48
 1303 827 1303 827 1382 827 c 256,49,50
 1461 827 1461 827 1520 794 c 128,-1,51
 1579 761 1579 761 1618 703.5 c 128,-1,52
 1657 646 1657 646 1676.5 567 c 128,-1,53
 1696 488 1696 488 1696 397 c 256,54,55
 1696 306 1696 306 1676.5 227.5 c 128,-1,56
 1657 149 1657 149 1618 91 c 128,-1,57
 1579 33 1579 33 1520 0 c 128,-1,58
 1461 -33 1461 -33 1382 -33 c 256,59,60
 1303 -33 1303 -33 1244 0 c 128,-1,61
 1185 33 1185 33 1145.5 91 c 128,-1,62
 1106 149 1106 149 1086.5 227.5 c 128,-1,63
 1067 306 1067 306 1067 397 c 256,44,45
1221 397 m 256,64,65
 1221 316 1221 316 1230.5 251 c 128,-1,66
 1240 186 1240 186 1260 139.5 c 128,-1,67
 1280 93 1280 93 1310.5 68 c 128,-1,68
 1341 43 1341 43 1382 43 c 0,69,70
 1424 43 1424 43 1453.5 68 c 128,-1,71
 1483 93 1483 93 1501.5 139.5 c 128,-1,72
 1520 186 1520 186 1529 251 c 128,-1,73
 1538 316 1538 316 1538 397 c 256,74,75
 1538 478 1538 478 1529 543 c 128,-1,76
 1520 608 1520 608 1501.5 654 c 128,-1,77
 1483 700 1483 700 1453.5 725 c 128,-1,78
 1424 750 1424 750 1382 750 c 0,79,80
 1341 750 1341 750 1310.5 725 c 128,-1,81
 1280 700 1280 700 1260 654 c 128,-1,82
 1240 608 1240 608 1230.5 543 c 128,-1,83
 1221 478 1221 478 1221 397 c 256,64,65
EndSplineSet
EndChar

StartChar: ampersand
Encoding: 38 38 9
Width: 1432
GlyphClass: 2
Flags: W
LayerCount: 2
Fore
SplineSet
80 381 m 0,0,1
 80 448 80 448 100 503.5 c 128,-1,2
 120 559 120 559 156.5 603.5 c 128,-1,3
 193 648 193 648 243.5 682 c 128,-1,4
 294 716 294 716 354 741 c 1,5,6
 337 758 337 758 308 787.5 c 128,-1,7
 279 817 279 817 251 857 c 128,-1,8
 223 897 223 897 202.5 947 c 128,-1,9
 182 997 182 997 182 1055 c 0,10,11
 182 1132 182 1132 211.5 1195.5 c 128,-1,12
 241 1259 241 1259 293.5 1305 c 128,-1,13
 346 1351 346 1351 417 1376 c 128,-1,14
 488 1401 488 1401 571 1401 c 0,15,16
 649 1401 649 1401 715 1377.5 c 128,-1,17
 781 1354 781 1354 829 1313 c 128,-1,18
 877 1272 877 1272 904.5 1215.5 c 128,-1,19
 932 1159 932 1159 932 1092 c 0,20,21
 932 1017 932 1017 906 961 c 128,-1,22
 880 905 880 905 837.5 863 c 128,-1,23
 795 821 795 821 741 789.5 c 128,-1,24
 687 758 687 758 631 733 c 1,25,-1
 975 362 l 1,26,27
 991 383 991 383 1009.5 412 c 128,-1,28
 1028 441 1028 441 1044.5 473 c 128,-1,29
 1061 505 1061 505 1073.5 538.5 c 128,-1,30
 1086 572 1086 572 1090 602 c 0,31,32
 1091 611 1091 611 1079.5 625 c 128,-1,33
 1068 639 1068 639 1055 641 c 2,34,-1
 944 657 l 1,35,-1
 944 743 l 1,36,-1
 1364 743 l 1,37,-1
 1364 657 l 1,38,-1
 1217 635 l 1,39,40
 1202 583 1202 583 1181.5 534 c 128,-1,41
 1161 485 1161 485 1137.5 440.5 c 128,-1,42
 1114 396 1114 396 1089 358 c 128,-1,43
 1064 320 1064 320 1042 289 c 1,44,-1
 1208 98 l 1,45,-1
 1391 88 l 1,46,-1
 1391 0 l 1,47,-1
 1014 0 l 1,48,-1
 1014 49 l 1,49,-1
 922 152 l 1,50,51
 882 120 882 120 839 88.5 c 128,-1,52
 796 57 796 57 746 32 c 128,-1,53
 696 7 696 7 637 -9 c 128,-1,54
 578 -25 578 -25 506 -25 c 0,55,56
 418 -25 418 -25 340.5 5.5 c 128,-1,57
 263 36 263 36 205 90 c 128,-1,58
 147 144 147 144 113.5 218.5 c 128,-1,59
 80 293 80 293 80 381 c 0,0,1
287 428 m 0,60,61
 287 359 287 359 310 300.5 c 128,-1,62
 333 242 333 242 373 199.5 c 128,-1,63
 413 157 413 157 467.5 133 c 128,-1,64
 522 109 522 109 584 109 c 0,65,66
 631 109 631 109 669.5 118.5 c 128,-1,67
 708 128 708 128 740.5 144 c 128,-1,68
 773 160 773 160 801.5 180.5 c 128,-1,69
 830 201 830 201 856 223 c 1,70,-1
 434 682 l 1,71,72
 403 661 403 661 376.5 635.5 c 128,-1,73
 350 610 350 610 330 579.5 c 128,-1,74
 310 549 310 549 298.5 511.5 c 128,-1,75
 287 474 287 474 287 428 c 0,60,61
367 1108 m 0,76,77
 367 1057 367 1057 386.5 1012.5 c 128,-1,78
 406 968 406 968 434.5 930.5 c 128,-1,79
 463 893 463 893 496 861.5 c 128,-1,80
 529 830 529 830 557 803 c 1,81,82
 602 825 602 825 636.5 851.5 c 128,-1,83
 671 878 671 878 694.5 911.5 c 128,-1,84
 718 945 718 945 730.5 986.5 c 128,-1,85
 743 1028 743 1028 743 1079 c 0,86,87
 743 1123 743 1123 731.5 1163 c 128,-1,88
 720 1203 720 1203 696 1233.5 c 128,-1,89
 672 1264 672 1264 636 1282 c 128,-1,90
 600 1300 600 1300 551 1300 c 0,91,92
 509 1300 509 1300 475 1285 c 128,-1,93
 441 1270 441 1270 417 1244 c 128,-1,94
 393 1218 393 1218 380 1183 c 128,-1,95
 367 1148 367 1148 367 1108 c 0,76,77
EndSplineSet
EndChar

StartChar: quotesingle
Encoding: 39 39 10
Width: 350
GlyphClass: 2
Flags: W
LayerCount: 2
Fore
SplineSet
88 1362 m 1,0,1
 88 1410 88 1410 110 1436 c 128,-1,2
 132 1462 132 1462 174 1462 c 0,3,4
 217 1462 217 1462 239.5 1436 c 128,-1,5
 262 1410 262 1410 262 1362 c 1,6,-1
 193 862 l 1,7,-1
 160 862 l 1,8,-1
 88 1362 l 1,0,1
EndSplineSet
EndChar

StartChar: parenleft
Encoding: 40 40 11
Width: 770
GlyphClass: 2
Flags: W
LayerCount: 2
Fore
SplineSet
121 590 m 0,0,1
 121 757 121 757 151.5 908.5 c 128,-1,2
 182 1060 182 1060 251 1178.5 c 128,-1,3
 320 1297 320 1297 430.5 1373.5 c 128,-1,4
 541 1450 541 1450 702 1468 c 1,5,-1
 702 1378 l 1,6,7
 594 1360 594 1360 519.5 1298.5 c 128,-1,8
 445 1237 445 1237 398.5 1136.5 c 128,-1,9
 352 1036 352 1036 331.5 898 c 128,-1,10
 311 760 311 760 311 590 c 0,11,12
 311 419 311 419 331.5 281 c 128,-1,13
 352 143 352 143 398.5 41.5 c 128,-1,14
 445 -60 445 -60 519.5 -121.5 c 128,-1,15
 594 -183 594 -183 702 -201 c 1,16,-1
 702 -291 l 1,17,18
 595 -279 595 -279 510.5 -240.5 c 128,-1,19
 426 -202 426 -202 361.5 -141 c 128,-1,20
 297 -80 297 -80 251 -0.5 c 128,-1,21
 205 79 205 79 176.5 173 c 128,-1,22
 148 267 148 267 134.5 372.5 c 128,-1,23
 121 478 121 478 121 590 c 0,0,1
EndSplineSet
EndChar

StartChar: parenright
Encoding: 41 41 12
Width: 770
GlyphClass: 2
Flags: W
LayerCount: 2
Fore
SplineSet
70 -201 m 1,0,1
 178 -183 178 -183 252.5 -121.5 c 128,-1,2
 327 -60 327 -60 372.5 41.5 c 128,-1,3
 418 143 418 143 438.5 281 c 128,-1,4
 459 419 459 419 459 590 c 0,5,6
 459 760 459 760 438.5 898 c 128,-1,7
 418 1036 418 1036 372.5 1136.5 c 128,-1,8
 327 1237 327 1237 252.5 1298.5 c 128,-1,9
 178 1360 178 1360 70 1378 c 1,10,-1
 70 1468 l 1,11,12
 230 1450 230 1450 341 1373.5 c 128,-1,13
 452 1297 452 1297 521 1178.5 c 128,-1,14
 590 1060 590 1060 620.5 908.5 c 128,-1,15
 651 757 651 757 651 590 c 0,16,17
 651 478 651 478 637.5 372.5 c 128,-1,18
 624 267 624 267 595.5 173 c 128,-1,19
 567 79 567 79 521 -0.5 c 128,-1,20
 475 -80 475 -80 410.5 -141 c 128,-1,21
 346 -202 346 -202 261.5 -240.5 c 128,-1,22
 177 -279 177 -279 70 -291 c 1,23,-1
 70 -201 l 1,0,1
EndSplineSet
EndChar

StartChar: asterisk
Encoding: 42 42 13
Width: 1024
GlyphClass: 2
Flags: W
LayerCount: 2
Fore
SplineSet
109 1167 m 1,0,-1
 254 1210 l 1,1,-1
 475 1065 l 1,2,-1
 467 1036 l 1,3,-1
 201 1051 l 1,4,-1
 109 1167 l 1,0,-1
264 690 m 1,5,-1
 268 842 l 1,6,-1
 475 1008 l 1,7,-1
 500 989 l 1,8,-1
 406 743 l 1,9,-1
 264 690 l 1,5,-1
428 1341 m 1,10,-1
 512 1466 l 1,11,-1
 598 1341 l 1,12,-1
 526 1085 l 1,13,-1
 498 1085 l 1,14,-1
 428 1341 l 1,10,-1
524 989 m 1,15,-1
 549 1008 l 1,16,-1
 756 842 l 1,17,-1
 760 690 l 1,18,-1
 618 743 l 1,19,-1
 524 989 l 1,15,-1
549 1065 m 1,20,-1
 770 1210 l 1,21,-1
 915 1167 l 1,22,-1
 823 1051 l 1,23,-1
 559 1036 l 1,24,-1
 549 1065 l 1,20,-1
EndSplineSet
EndChar

StartChar: plus
Encoding: 43 43 14
Width: 2048
GlyphClass: 2
Flags: W
LayerCount: 2
Fore
SplineSet
410 551 m 1,0,-1
 410 678 l 1,1,-1
 961 678 l 1,2,-1
 961 1229 l 1,3,-1
 1087 1229 l 1,4,-1
 1087 678 l 1,5,-1
 1638 678 l 1,6,-1
 1638 551 l 1,7,-1
 1087 551 l 1,8,-1
 1087 0 l 1,9,-1
 961 0 l 1,10,-1
 961 551 l 1,11,-1
 410 551 l 1,0,-1
EndSplineSet
EndChar

StartChar: comma
Encoding: 44 44 15
Width: 573
GlyphClass: 2
Flags: W
LayerCount: 2
Fore
SplineSet
66 -274 m 1,0,1
 120 -262 120 -262 162.5 -241.5 c 128,-1,2
 205 -221 205 -221 233.5 -187.5 c 128,-1,3
 262 -154 262 -154 277 -105 c 128,-1,4
 292 -56 292 -56 291 14 c 1,5,-1
 162 14 l 1,6,7
 160 16 160 16 154 23.5 c 128,-1,8
 148 31 148 31 141.5 43 c 128,-1,9
 135 55 135 55 130 71.5 c 128,-1,10
 125 88 125 88 125 109 c 0,11,12
 125 136 125 136 134.5 161 c 128,-1,13
 144 186 144 186 161 206 c 128,-1,14
 178 226 178 226 201 238 c 128,-1,15
 224 250 224 250 252 250 c 0,16,17
 296 250 296 250 328 232.5 c 128,-1,18
 360 215 360 215 381 184.5 c 128,-1,19
 402 154 402 154 412 111.5 c 128,-1,20
 422 69 422 69 422 20 c 0,21,22
 422 -57 422 -57 392.5 -121.5 c 128,-1,23
 363 -186 363 -186 313.5 -234.5 c 128,-1,24
 264 -283 264 -283 200 -312.5 c 128,-1,25
 136 -342 136 -342 66 -348 c 1,26,-1
 66 -274 l 1,0,1
EndSplineSet
EndChar

StartChar: hyphen
Encoding: 45 45 16
Width: 655
GlyphClass: 2
Flags: W
LayerCount: 2
Fore
SplineSet
90 416 m 1,0,-1
 90 569 l 1,1,-1
 565 569 l 1,2,-1
 565 416 l 1,3,-1
 90 416 l 1,0,-1
EndSplineSet
EndChar

StartChar: period
Encoding: 46 46 17
Width: 573
GlyphClass: 2
Flags: W
LayerCount: 2
Fore
SplineSet
125 113 m 0,0,1
 125 141 125 141 135.5 166 c 128,-1,2
 146 191 146 191 165 209.5 c 128,-1,3
 184 228 184 228 208.5 239 c 128,-1,4
 233 250 233 250 262 250 c 0,5,6
 290 250 290 250 315.5 239 c 128,-1,7
 341 228 341 228 360 209.5 c 128,-1,8
 379 191 379 191 390 166 c 128,-1,9
 401 141 401 141 401 113 c 0,10,11
 401 84 401 84 390 59 c 128,-1,12
 379 34 379 34 360 15.5 c 128,-1,13
 341 -3 341 -3 315.5 -14 c 128,-1,14
 290 -25 290 -25 262 -25 c 0,15,16
 233 -25 233 -25 208.5 -14 c 128,-1,17
 184 -3 184 -3 165 15.5 c 128,-1,18
 146 34 146 34 135.5 59 c 128,-1,19
 125 84 125 84 125 113 c 0,0,1
EndSplineSet
EndChar

StartChar: slash
Encoding: 47 47 18
Width: 1004
GlyphClass: 2
Flags: W
LayerCount: 2
Fore
SplineSet
0 -190 m 1,0,-1
 872 1374 l 1,1,-1
 1004 1374 l 1,2,-1
 131 -190 l 1,3,-1
 0 -190 l 1,0,-1
EndSplineSet
EndChar

StartChar: zero
Encoding: 48 48 19
Width: 1153
GlyphClass: 2
Flags: W
LayerCount: 2
Fore
SplineSet
82 562.52 m 0,0,1
 82 642.88 82 642.88 95.5 717.91 c 128,-1,2
 109 792.94 109 792.94 136 858.54 c 128,-1,3
 163 924.14 163 924.14 203.5 978.26 c 128,-1,4
 244 1032.38 244 1032.38 299 1071.33 c 128,-1,5
 354 1110.28 354 1110.28 423 1132.01 c 128,-1,6
 492 1153.74 492 1153.74 575 1153.74 c 256,7,8
 658 1153.74 658 1153.74 727.5 1132.01 c 128,-1,9
 797 1110.28 797 1110.28 852 1071.33 c 128,-1,10
 907 1032.38 907 1032.38 948 978.26 c 128,-1,11
 989 924.14 989 924.14 1016.5 858.54 c 128,-1,12
 1044 792.94 1044 792.94 1057.5 717.91 c 128,-1,13
 1071 642.88 1071 642.88 1071 562.52 c 0,14,15
 1071 441.98 1071 441.98 1040.5 334.97 c 128,-1,16
 1010 227.96 1010 227.96 948.5 147.6 c 128,-1,17
 887 67.2402 887 67.2402 793.5 20.0898 c 128,-1,18
 700 -27.0596 700 -27.0596 575 -27.0596 c 256,19,20
 450 -27.0596 450 -27.0596 357.5 20.0898 c 128,-1,21
 265 67.2402 265 67.2402 203.5 147.6 c 128,-1,22
 142 227.96 142 227.96 112 334.97 c 128,-1,23
 82 441.98 82 441.98 82 562.52 c 0,0,1
297 565.918 m 260,24,25
 297 504.51 297 504.51 302.5 444.299 c 132,-1,26
 308 384.088 308 384.088 321 329.459 c 132,-1,27
 334 274.83 334 274.83 355 228.176 c 132,-1,28
 376 181.522 376 181.522 406.5 147.629 c 132,-1,29
 437 113.735 437 113.735 479 94.1963 c 132,-1,30
 521 74.6572 521 74.6572 575 74.6572 c 260,31,32
 629 74.6572 629 74.6572 671 94.1963 c 132,-1,33
 713 113.735 713 113.735 744 147.629 c 132,-1,34
 775 181.522 775 181.522 796 228.176 c 132,-1,35
 817 274.83 817 274.83 830 329.459 c 132,-1,36
 843 384.088 843 384.088 848.5 444.299 c 132,-1,37
 854 504.51 854 504.51 854 565.918 c 260,38,39
 854 627.325 854 627.325 848.5 687.536 c 132,-1,40
 843 747.748 843 747.748 830 802.775 c 132,-1,41
 817 857.803 817 857.803 796 904.855 c 132,-1,42
 775 951.907 775 951.907 744 986.2 c 132,-1,43
 713 1020.49 713 1020.49 671 1040.03 c 132,-1,44
 629 1059.57 629 1059.57 575 1059.57 c 260,45,46
 521 1059.57 521 1059.57 479 1040.03 c 132,-1,47
 437 1020.49 437 1020.49 406.5 986.2 c 132,-1,48
 376 951.907 376 951.907 355 904.855 c 132,-1,49
 334 857.803 334 857.803 321 802.775 c 132,-1,50
 308 747.748 308 747.748 302.5 687.536 c 132,-1,51
 297 627.325 297 627.325 297 565.918 c 260,24,25
EndSplineSet
EndChar

StartChar: one
Encoding: 49 49 20
Width: 1153
GlyphClass: 2
Flags: W
LayerCount: 2
Fore
SplineSet
156 891 m 1,0,-1
 156 983 l 1,1,-1
 598 1120 l 1,2,-1
 676 1120 l 1,3,-1
 676 145 l 2,4,5
 676 127.006 676 127.006 689 113.5 c 0,6,7
 701.206 100.825 701.206 100.825 721 100 c 2,8,-1
 913 92 l 1,9,-1
 913 0 l 1,10,-1
 221 0 l 1,11,-1
 221 92 l 1,12,-1
 428 100 l 2,13,14
 447.734 100.763 447.734 100.763 460 113.5 c 0,15,16
 473 126.799 473 126.799 473 145 c 2,17,-1
 473 946 l 1,18,-1
 156 891 l 1,0,-1
EndSplineSet
EndChar

StartChar: two
Encoding: 50 50 21
Width: 1153
GlyphClass: 2
Flags: W
LayerCount: 2
Fore
SplineSet
96 0 m 1,0,-1
 96 137 l 1,1,2
 234.422 238.057 234.422 238.057 383 322.352 c 0,3,4
 514 396.674 514 396.674 609.5 474.652 c 128,-1,5
 705 552.63 705 552.63 758 641.918 c 128,-1,6
 811 731.205 811 731.205 811 786.915 c 0,7,8
 811 852.973 811 852.973 788.5 905.715 c 0,9,10
 765 960.809 765 960.809 725 990.8 c 128,-1,11
 685 1020.79 685 1020.79 631.5 1032.55 c 128,-1,12
 578 1044.3 578 1044.3 518 1044.3 c 0,13,14
 482 1044.3 482 1044.3 452.5 1036.3 c 128,-1,15
 423 1028.3 423 1028.3 401 1018.3 c 128,-1,16
 379 1008.3 379 1008.3 365.5 1000.3 c 128,-1,17
 352 992.3 352 992.3 348 991.3 c 1,18,-1
 348 764.3 l 1,19,20
 337 754.3 337 754.3 322 746.3 c 0,21,22
 309 739.3 309 739.3 290 734.3 c 128,-1,23
 271 729.3 271 729.3 248 729.3 c 0,24,25
 224 729.3 224 729.3 202 736.8 c 128,-1,26
 180 744.3 180 744.3 162.5 759.3 c 128,-1,27
 145 774.3 145 774.3 135 796.8 c 128,-1,28
 125 819.3 125 819.3 125 850.3 c 0,29,30
 125 914.3 125 914.3 161.5 970.3 c 128,-1,31
 198 1026.3 198 1026.3 260 1067.3 c 128,-1,32
 322 1108.3 322 1108.3 403.5 1131.8 c 128,-1,33
 485 1155.3 485 1155.3 575 1155.3 c 0,34,35
 675 1155.3 675 1155.3 759 1135.05 c 0,36,37
 842.736 1114.85 842.736 1114.85 905 1068.3 c 0,38,39
 967.869 1022.33 967.869 1022.33 999 952.045 c 0,40,41
 1032 875.282 1032 875.282 1032 801.3 c 0,42,43
 1032 725.252 1032 725.252 1004.5 677.3 c 0,44,45
 986.381 645.705 986.381 645.705 927.5 582.428 c 0,46,47
 879 528.654 879 528.654 810.5 475.654 c 0,48,49
 711.373 403.492 711.373 403.492 663.5 376.809 c 0,50,51
 496.801 283.894 496.801 283.894 494.5 281.594 c 0,52,53
 494.5 281.594 494.5 281.594 313 172 c 1,54,-1
 920 172 l 1,55,-1
 956 348 l 1,56,-1
 1057 348 l 1,57,-1
 1057 0 l 1,58,-1
 96 0 l 1,0,-1
EndSplineSet
EndChar

StartChar: three
Encoding: 51 51 22
Width: 1153
GlyphClass: 2
Flags: W
LayerCount: 2
Fore
SplineSet
96 -49 m 4,0,1
 96 -28 96 -28 103.5 -8.5 c 132,-1,2
 111 11 111 11 126 26.5 c 132,-1,3
 141 42 141 42 163.5 51.5 c 132,-1,4
 186 61 186 61 217 61 c 4,5,6
 229 61 229 61 251.5 58.5 c 132,-1,7
 274 56 274 56 287 47 c 5,8,-1
 348 -135 l 5,9,10
 388 -158 388 -158 432.5 -173 c 132,-1,11
 477 -188 477 -188 526 -188 c 4,12,13
 598 -188 598 -188 657 -161 c 132,-1,14
 716 -134 716 -134 758 -89 c 132,-1,15
 800 -44 800 -44 823 13.5 c 132,-1,16
 846 71 846 71 846 133 c 4,17,18
 846 208 846 208 817 257.5 c 132,-1,19
 788 307 788 307 743 336.5 c 132,-1,20
 698 366 698 366 644 378.5 c 132,-1,21
 590 391 590 391 539 391 c 4,22,23
 512 391 512 391 489 390 c 132,-1,24
 466 389 466 389 449 387 c 4,25,26
 430 385 430 385 414 383 c 5,27,-1
 414 510 l 5,28,29
 417 510 417 510 434 509 c 132,-1,30
 451 508 451 508 467 508 c 4,31,32
 531 508 531 508 590.5 523.5 c 132,-1,33
 650 539 650 539 695.5 570.5 c 132,-1,34
 741 602 741 602 768 651 c 132,-1,35
 795 700 795 700 795 768 c 4,36,37
 795 832 795 832 772.5 882 c 132,-1,38
 750 932 750 932 713 966.5 c 132,-1,39
 676 1001 676 1001 627 1018.5 c 132,-1,40
 578 1036 578 1036 526 1036 c 4,41,42
 485 1036 485 1036 451 1027 c 132,-1,43
 417 1018 417 1018 393 1007 c 4,44,45
 364 995 364 995 342 979 c 5,46,-1
 342 774 l 5,47,48
 336 771 336 771 312 759.5 c 132,-1,49
 288 748 288 748 250 748 c 4,50,51
 232 748 232 748 211 753.5 c 132,-1,52
 190 759 190 759 172 772 c 132,-1,53
 154 785 154 785 142.5 807 c 132,-1,54
 131 829 131 829 131 862 c 4,55,56
 131 920 131 920 167 972.5 c 132,-1,57
 203 1025 203 1025 265 1064 c 132,-1,58
 327 1103 327 1103 409.5 1126 c 132,-1,59
 492 1149 492 1149 584 1149 c 4,60,61
 673 1149 673 1149 749.5 1124 c 132,-1,62
 826 1099 826 1099 882.5 1053 c 132,-1,63
 939 1007 939 1007 971.5 941.5 c 132,-1,64
 1004 876 1004 876 1004 795 c 4,65,66
 1004 679 1004 679 922.5 593.5 c 132,-1,67
 841 508 841 508 688 465 c 5,68,69
 752 462 752 462 818 441.5 c 132,-1,70
 884 421 884 421 937 380.5 c 132,-1,71
 990 340 990 340 1023.5 278.5 c 132,-1,72
 1057 217 1057 217 1057 133 c 4,73,74
 1057 40 1057 40 1014.5 -38 c 132,-1,75
 972 -116 972 -116 899 -172 c 132,-1,76
 826 -228 826 -228 728.5 -259.5 c 132,-1,77
 631 -291 631 -291 520 -291 c 4,78,79
 416 -291 416 -291 337 -267.5 c 132,-1,80
 258 -244 258 -244 204.5 -208 c 132,-1,81
 151 -172 151 -172 123.5 -129.5 c 132,-1,82
 96 -87 96 -87 96 -49 c 4,0,1
EndSplineSet
EndChar

StartChar: four
Encoding: 52 52 23
Width: 1153
GlyphClass: 2
Flags: WO
LayerCount: 2
Fore
SplineSet
82 121 m 1,0,-1
 82 262 l 1,1,-1
 754 1120 l 1,2,-1
 897 1120 l 1,3,-1
 897 260 l 1,4,-1
 1071 260 l 1,5,-1
 1071 121 l 1,6,-1
 897 121 l 1,7,-1
 897 -320 l 1,8,-1
 705 -320 l 1,9,-1
 705 121 l 1,10,-1
 82 121 l 1,0,-1
244 260 m 1,11,-1
 705 260 l 1,12,-1
 705 858 l 1,13,-1
 244 260 l 1,11,-1
EndSplineSet
EndChar

StartChar: five
Encoding: 53 53 24
Width: 1153
GlyphClass: 2
Flags: W
LayerCount: 2
Fore
SplineSet
92 -45 m 4,0,1
 92 11 92 11 128.5 40.5 c 132,-1,2
 165 70 165 70 221 70 c 4,3,4
 238 70 238 70 254 66.5 c 132,-1,5
 270 63 270 63 276 61 c 5,6,-1
 354 -127 l 5,7,8
 366 -139 366 -139 386 -149.5 c 132,-1,9
 406 -160 406 -160 428 -168 c 132,-1,10
 450 -176 450 -176 472 -181 c 132,-1,11
 494 -186 494 -186 512 -186 c 4,12,13
 593 -186 593 -186 656 -155.5 c 132,-1,14
 719 -125 719 -125 762 -77 c 132,-1,15
 805 -29 805 -29 827.5 29 c 132,-1,16
 850 87 850 87 850 141 c 4,17,18
 850 227 850 227 823 290.5 c 132,-1,19
 796 354 796 354 749 396 c 132,-1,20
 702 438 702 438 638 458.5 c 132,-1,21
 574 479 574 479 500 479 c 4,22,23
 449 479 449 479 392.5 468 c 132,-1,24
 336 457 336 457 287 444 c 4,25,26
 230 429 230 429 174 410 c 5,27,-1
 174 1120 l 5,28,-1
 965 1120 l 5,29,-1
 965 946 l 5,30,-1
 319 946 l 5,31,-1
 319 557 l 5,32,33
 321 557 321 557 345 565.5 c 132,-1,34
 369 574 369 574 408 583.5 c 132,-1,35
 447 593 447 593 496 601.5 c 132,-1,36
 545 610 545 610 596 610 c 4,37,38
 703 610 703 610 788.5 581.5 c 132,-1,39
 874 553 874 553 934 499 c 132,-1,40
 994 445 994 445 1026.5 367 c 132,-1,41
 1059 289 1059 289 1059 190 c 4,42,43
 1059 86 1059 86 1021.5 -1.5 c 132,-1,44
 984 -89 984 -89 911 -152.5 c 132,-1,45
 838 -216 838 -216 730 -251.5 c 132,-1,46
 622 -287 622 -287 481 -287 c 4,47,48
 401 -287 401 -287 330.5 -264 c 132,-1,49
 260 -241 260 -241 207 -206 c 132,-1,50
 154 -171 154 -171 123 -128 c 132,-1,51
 92 -85 92 -85 92 -45 c 4,0,1
EndSplineSet
EndChar

StartChar: six
Encoding: 54 54 25
Width: 1153
GlyphClass: 2
Flags: W
LayerCount: 2
Fore
SplineSet
82 588 m 0,0,1
 82 771 82 771 137 922 c 128,-1,2
 192 1073 192 1073 296.5 1181 c 128,-1,3
 401 1289 401 1289 553.5 1348 c 128,-1,4
 706 1407 706 1407 901 1407 c 1,5,-1
 901 1280 l 1,6,-1
 831 1282 l 2,7,8
 733 1285 733 1285 644.5 1250.5 c 128,-1,9
 556 1216 556 1216 485.5 1149 c 128,-1,10
 415 1082 415 1082 367 985 c 128,-1,11
 319 888 319 888 303 766 c 1,12,13
 388 839 388 839 473.5 867 c 128,-1,14
 559 895 559 895 645 895 c 0,15,16
 742 895 742 895 820.5 862.5 c 128,-1,17
 899 830 899 830 954.5 773 c 128,-1,18
 1010 716 1010 716 1040.5 638 c 128,-1,19
 1071 560 1071 560 1071 469 c 0,20,21
 1071 357 1071 357 1032 264.5 c 128,-1,22
 993 172 993 172 925.5 106 c 128,-1,23
 858 40 858 40 767.5 3.5 c 128,-1,24
 677 -33 677 -33 573 -33 c 256,25,26
 469 -33 469 -33 379.5 1 c 128,-1,27
 290 35 290 35 224 109 c 128,-1,28
 158 183 158 183 120 301.5 c 128,-1,29
 82 420 82 420 82 588 c 0,0,1
293 547 m 0,30,31
 293 442 293 442 309 355 c 128,-1,32
 325 268 325 268 359.5 205.5 c 128,-1,33
 394 143 394 143 446.5 108.5 c 128,-1,34
 499 74 499 74 573 74 c 256,35,36
 647 74 647 74 701.5 103 c 128,-1,37
 756 132 756 132 791.5 181.5 c 128,-1,38
 827 231 827 231 844.5 298 c 128,-1,39
 862 365 862 365 862 442 c 0,40,41
 862 517 862 517 842.5 576.5 c 128,-1,42
 823 636 823 636 785.5 677.5 c 128,-1,43
 748 719 748 719 694.5 740.5 c 128,-1,44
 641 762 641 762 573 762 c 0,45,46
 540 762 540 762 504 754.5 c 128,-1,47
 468 747 468 747 432 733.5 c 128,-1,48
 396 720 396 720 361.5 701 c 128,-1,49
 327 682 327 682 297 659 c 1,50,51
 294 627 294 627 293.5 598.5 c 128,-1,52
 293 570 293 570 293 547 c 0,30,31
EndSplineSet
EndChar

StartChar: seven
Encoding: 55 55 26
Width: 1153
GlyphClass: 2
Flags: W
LayerCount: 2
Fore
SplineSet
86 760 m 5,0,-1
 86 1120 l 5,1,-1
 1067 1120 l 5,2,-1
 1067 1006 l 5,3,-1
 395 -219 l 5,4,-1
 395 -287 l 5,5,-1
 178 -287 l 5,6,-1
 854 946 l 5,7,-1
 223 946 l 5,8,-1
 190 760 l 5,9,-1
 86 760 l 5,0,-1
EndSplineSet
EndChar

StartChar: eight
Encoding: 56 56 27
Width: 1153
GlyphClass: 2
Flags: W
LayerCount: 2
Fore
SplineSet
82 369 m 0,0,1
 82 439 82 439 106.5 493 c 128,-1,2
 131 547 131 547 171.5 588 c 128,-1,3
 212 629 212 629 265 659 c 128,-1,4
 318 689 318 689 375 711 c 1,5,6
 333 728 333 728 290.5 756 c 128,-1,7
 248 784 248 784 214 823 c 128,-1,8
 180 862 180 862 158.5 911.5 c 128,-1,9
 137 961 137 961 137 1022 c 0,10,11
 137 1110 137 1110 168.5 1181 c 128,-1,12
 200 1252 200 1252 257.5 1302.5 c 128,-1,13
 315 1353 315 1353 396 1380 c 128,-1,14
 477 1407 477 1407 575 1407 c 0,15,16
 669 1407 669 1407 749 1380 c 128,-1,17
 829 1353 829 1353 888 1305.5 c 128,-1,18
 947 1258 947 1258 980.5 1193.5 c 128,-1,19
 1014 1129 1014 1129 1014 1055 c 0,20,21
 1014 990 1014 990 989.5 937 c 128,-1,22
 965 884 965 884 928 843 c 128,-1,23
 891 802 891 802 847 772 c 128,-1,24
 803 742 803 742 764 723 c 1,25,26
 813 705 813 705 867 677.5 c 128,-1,27
 921 650 921 650 966 608 c 128,-1,28
 1011 566 1011 566 1040 508.5 c 128,-1,29
 1069 451 1069 451 1069 373 c 0,30,31
 1069 285 1069 285 1031.5 210.5 c 128,-1,32
 994 136 994 136 928 82 c 128,-1,33
 862 28 862 28 771.5 -2.5 c 128,-1,34
 681 -33 681 -33 575 -33 c 0,35,36
 462 -33 462 -33 371 -3 c 128,-1,37
 280 27 280 27 215.5 81 c 128,-1,38
 151 135 151 135 116.5 208.5 c 128,-1,39
 82 282 82 282 82 369 c 0,0,1
272 385 m 0,40,41
 272 319 272 319 291.5 263 c 128,-1,42
 311 207 311 207 349 165.5 c 128,-1,43
 387 124 387 124 444 101 c 128,-1,44
 501 78 501 78 575 78 c 0,45,46
 641 78 641 78 694.5 99.5 c 128,-1,47
 748 121 748 121 785 157.5 c 128,-1,48
 822 194 822 194 842 241.5 c 128,-1,49
 862 289 862 289 862 340 c 0,50,51
 862 404 862 404 835 448.5 c 128,-1,52
 808 493 808 493 756 528.5 c 128,-1,53
 704 564 704 564 629 595.5 c 128,-1,54
 554 627 554 627 457 666 c 1,55,56
 418 645 418 645 384.5 619 c 128,-1,57
 351 593 351 593 326 559.5 c 128,-1,58
 301 526 301 526 286.5 483 c 128,-1,59
 272 440 272 440 272 385 c 0,40,41
340 1069 m 0,60,61
 340 1015 340 1015 363 971.5 c 128,-1,62
 386 928 386 928 429 891 c 128,-1,63
 472 854 472 854 534.5 822.5 c 128,-1,64
 597 791 597 791 676 762 c 1,65,66
 707 785 707 785 734.5 813 c 128,-1,67
 762 841 762 841 782 875 c 128,-1,68
 802 909 802 909 813.5 949 c 128,-1,69
 825 989 825 989 825 1036 c 0,70,71
 825 1099 825 1099 805 1148.5 c 128,-1,72
 785 1198 785 1198 751 1232.5 c 128,-1,73
 717 1267 717 1267 671.5 1285 c 128,-1,74
 626 1303 626 1303 575 1303 c 0,75,76
 523 1303 523 1303 479.5 1283.5 c 128,-1,77
 436 1264 436 1264 405 1232 c 128,-1,78
 374 1200 374 1200 357 1157.5 c 128,-1,79
 340 1115 340 1115 340 1069 c 0,60,61
EndSplineSet
EndChar

StartChar: nine
Encoding: 57 57 28
Width: 1153
GlyphClass: 2
Flags: W
LayerCount: 2
Fore
SplineSet
82 657 m 0,0,1
 82 769 82 769 120.5 862 c 128,-1,2
 159 955 159 955 226 1021.5 c 128,-1,3
 293 1088 293 1088 383.5 1124.5 c 128,-1,4
 474 1161 474 1161 578 1161 c 0,5,6
 681 1161 681 1161 771 1127 c 128,-1,7
 861 1093 861 1093 928 1019 c 128,-1,8
 995 945 995 945 1033 826.5 c 128,-1,9
 1071 708 1071 708 1071 540 c 0,10,11
 1071 357 1071 357 1016 206 c 128,-1,12
 961 55 961 55 855.5 -53 c 128,-1,13
 750 -161 750 -161 597.5 -220 c 128,-1,14
 445 -279 445 -279 250 -279 c 1,15,-1
 250 -152 l 1,16,-1
 319 -154 l 2,17,18
 417 -157 417 -157 506 -122.5 c 128,-1,19
 595 -88 595 -88 666 -21 c 128,-1,20
 737 46 737 46 785.5 143 c 128,-1,21
 834 240 834 240 850 362 c 1,22,23
 808 325 808 325 765 300.5 c 128,-1,24
 722 276 722 276 679.5 261 c 128,-1,25
 637 246 637 246 594 239.5 c 128,-1,26
 551 233 551 233 508 233 c 0,27,28
 411 233 411 233 332.5 265 c 128,-1,29
 254 297 254 297 198.5 353.5 c 128,-1,30
 143 410 143 410 112.5 487.5 c 128,-1,31
 82 565 82 565 82 657 c 0,0,1
289 686 m 0,32,33
 289 611 289 611 308.5 551.5 c 128,-1,34
 328 492 328 492 365.5 450.5 c 128,-1,35
 403 409 403 409 456.5 387.5 c 128,-1,36
 510 366 510 366 578 366 c 0,37,38
 611 366 611 366 647 373.5 c 128,-1,39
 683 381 683 381 719 394.5 c 128,-1,40
 755 408 755 408 789.5 427 c 128,-1,41
 824 446 824 446 854 469 c 1,42,43
 857 501 857 501 857.5 529.5 c 128,-1,44
 858 558 858 558 858 581 c 0,45,46
 858 686 858 686 842 773 c 128,-1,47
 826 860 826 860 791.5 922.5 c 128,-1,48
 757 985 757 985 704 1019.5 c 128,-1,49
 651 1054 651 1054 578 1054 c 0,50,51
 504 1054 504 1054 449.5 1025.5 c 128,-1,52
 395 997 395 997 359.5 947 c 128,-1,53
 324 897 324 897 306.5 830 c 128,-1,54
 289 763 289 763 289 686 c 0,32,33
EndSplineSet
EndChar

StartChar: colon
Encoding: 58 58 29
Width: 573
GlyphClass: 2
Flags: W
LayerCount: 2
Fore
SplineSet
125 113 m 0,0,1
 125 141 125 141 135.5 166 c 128,-1,2
 146 191 146 191 165 209.5 c 128,-1,3
 184 228 184 228 208.5 239 c 128,-1,4
 233 250 233 250 262 250 c 0,5,6
 290 250 290 250 315.5 239 c 128,-1,7
 341 228 341 228 360 209.5 c 128,-1,8
 379 191 379 191 390 166 c 128,-1,9
 401 141 401 141 401 113 c 0,10,11
 401 84 401 84 390 59 c 128,-1,12
 379 34 379 34 360 15.5 c 128,-1,13
 341 -3 341 -3 315.5 -14 c 128,-1,14
 290 -25 290 -25 262 -25 c 0,15,16
 233 -25 233 -25 208.5 -14 c 128,-1,17
 184 -3 184 -3 165 15.5 c 128,-1,18
 146 34 146 34 135.5 59 c 128,-1,19
 125 84 125 84 125 113 c 0,0,1
125 874 m 256,20,21
 125 902 125 902 135.5 927.5 c 128,-1,22
 146 953 146 953 165 971.5 c 128,-1,23
 184 990 184 990 208.5 1001 c 128,-1,24
 233 1012 233 1012 262 1012 c 0,25,26
 290 1012 290 1012 315.5 1001 c 128,-1,27
 341 990 341 990 360 971.5 c 128,-1,28
 379 953 379 953 390 927.5 c 128,-1,29
 401 902 401 902 401 874 c 256,30,31
 401 846 401 846 390 821 c 128,-1,32
 379 796 379 796 360 777.5 c 128,-1,33
 341 759 341 759 315.5 748 c 128,-1,34
 290 737 290 737 262 737 c 0,35,36
 233 737 233 737 208.5 748 c 128,-1,37
 184 759 184 759 165 777.5 c 128,-1,38
 146 796 146 796 135.5 821 c 128,-1,39
 125 846 125 846 125 874 c 256,20,21
EndSplineSet
EndChar

StartChar: semicolon
Encoding: 59 59 30
Width: 573
GlyphClass: 2
Flags: W
LayerCount: 2
Fore
SplineSet
66 -274 m 1,0,1
 120 -262 120 -262 162.5 -241.5 c 128,-1,2
 205 -221 205 -221 233.5 -187.5 c 128,-1,3
 262 -154 262 -154 277 -105 c 128,-1,4
 292 -56 292 -56 291 14 c 1,5,-1
 162 14 l 1,6,7
 160 16 160 16 154 23.5 c 128,-1,8
 148 31 148 31 141.5 43 c 128,-1,9
 135 55 135 55 130 71.5 c 128,-1,10
 125 88 125 88 125 109 c 0,11,12
 125 136 125 136 134.5 161 c 128,-1,13
 144 186 144 186 161 206 c 128,-1,14
 178 226 178 226 201 238 c 128,-1,15
 224 250 224 250 252 250 c 0,16,17
 296 250 296 250 328 232.5 c 128,-1,18
 360 215 360 215 381 184.5 c 128,-1,19
 402 154 402 154 412 111.5 c 128,-1,20
 422 69 422 69 422 20 c 0,21,22
 422 -57 422 -57 392.5 -121.5 c 128,-1,23
 363 -186 363 -186 313.5 -234.5 c 128,-1,24
 264 -283 264 -283 200 -312.5 c 128,-1,25
 136 -342 136 -342 66 -348 c 1,26,-1
 66 -274 l 1,0,1
125 874 m 256,27,28
 125 902 125 902 136 927.5 c 128,-1,29
 147 953 147 953 166 971.5 c 128,-1,30
 185 990 185 990 210 1001 c 128,-1,31
 235 1012 235 1012 264 1012 c 0,32,33
 292 1012 292 1012 317 1001 c 128,-1,34
 342 990 342 990 360 971.5 c 128,-1,35
 378 953 378 953 388.5 927.5 c 128,-1,36
 399 902 399 902 399 874 c 256,37,38
 399 846 399 846 388.5 821 c 128,-1,39
 378 796 378 796 359 777.5 c 128,-1,40
 340 759 340 759 315 748 c 128,-1,41
 290 737 290 737 262 737 c 0,42,43
 233 737 233 737 208.5 748 c 128,-1,44
 184 759 184 759 165 777.5 c 128,-1,45
 146 796 146 796 135.5 821 c 128,-1,46
 125 846 125 846 125 874 c 256,27,28
EndSplineSet
EndChar

StartChar: less
Encoding: 60 60 31
Width: 2048
GlyphClass: 2
Flags: W
LayerCount: 2
Fore
SplineSet
410 551 m 1,0,-1
 410 678 l 1,1,-1
 1638 1149 l 1,2,-1
 1638 1022 l 1,3,-1
 541 614 l 1,4,-1
 1638 207 l 1,5,-1
 1638 80 l 1,6,-1
 410 551 l 1,0,-1
EndSplineSet
EndChar

StartChar: equal
Encoding: 61 61 32
Width: 2048
GlyphClass: 2
Flags: W
LayerCount: 2
Fore
SplineSet
410 365 m 1,0,-1
 410 492 l 1,1,-1
 1638 492 l 1,2,-1
 1638 365 l 1,3,-1
 410 365 l 1,0,-1
410 737 m 1,4,-1
 410 864 l 1,5,-1
 1638 864 l 1,6,-1
 1638 737 l 1,7,-1
 410 737 l 1,4,-1
EndSplineSet
EndChar

StartChar: greater
Encoding: 62 62 33
Width: 2048
GlyphClass: 2
Flags: W
LayerCount: 2
Fore
SplineSet
410 80 m 1,0,-1
 410 207 l 1,1,-1
 1507 614 l 1,2,-1
 410 1022 l 1,3,-1
 410 1149 l 1,4,-1
 1638 678 l 1,5,-1
 1638 551 l 1,6,-1
 410 80 l 1,0,-1
EndSplineSet
EndChar

StartChar: question
Encoding: 63 63 34
Width: 995
GlyphClass: 2
Flags: W
LayerCount: 2
Fore
SplineSet
102 1206 m 0,0,1
 102 1242 102 1242 121.5 1278 c 128,-1,2
 141 1314 141 1314 181.5 1342.5 c 128,-1,3
 222 1371 222 1371 283 1389 c 128,-1,4
 344 1407 344 1407 428 1407 c 0,5,6
 519 1407 519 1407 597 1381 c 128,-1,7
 675 1355 675 1355 732 1307.5 c 128,-1,8
 789 1260 789 1260 821.5 1192 c 128,-1,9
 854 1124 854 1124 854 1040 c 0,10,11
 854 975 854 975 836 921.5 c 128,-1,12
 818 868 818 868 788 824.5 c 128,-1,13
 758 781 758 781 718.5 746.5 c 128,-1,14
 679 712 679 712 636 684.5 c 128,-1,15
 593 657 593 657 548.5 635 c 128,-1,16
 504 613 504 613 465 596 c 1,17,-1
 465 369 l 1,18,-1
 350 369 l 1,19,-1
 350 666 l 1,20,21
 398 682 398 682 450.5 711.5 c 128,-1,22
 503 741 503 741 546.5 785 c 128,-1,23
 590 829 590 829 618.5 888.5 c 128,-1,24
 647 948 647 948 647 1024 c 0,25,26
 647 1167 647 1167 571 1237 c 128,-1,27
 495 1307 495 1307 354 1307 c 1,28,-1
 270 1098 l 1,29,30
 261 1097 261 1097 254 1097 c 1,31,32
 248 1096 248 1096 243 1096 c 2,33,-1
 236 1096 l 2,34,35
 208 1096 208 1096 183.5 1102 c 128,-1,36
 159 1108 159 1108 141 1121.5 c 128,-1,37
 123 1135 123 1135 112.5 1156 c 128,-1,38
 102 1177 102 1177 102 1206 c 0,0,1
285 102 m 256,39,40
 285 128 285 128 294.5 151 c 128,-1,41
 304 174 304 174 321 191 c 128,-1,42
 338 208 338 208 361 217.5 c 128,-1,43
 384 227 384 227 410 227 c 0,44,45
 437 227 437 227 460 217 c 128,-1,46
 483 207 483 207 500 189.5 c 128,-1,47
 517 172 517 172 527 149 c 128,-1,48
 537 126 537 126 537 100 c 256,49,50
 537 74 537 74 527 51.5 c 128,-1,51
 517 29 517 29 499.5 12 c 128,-1,52
 482 -5 482 -5 459 -15 c 128,-1,53
 436 -25 436 -25 410 -25 c 256,54,55
 384 -25 384 -25 361 -15 c 128,-1,56
 338 -5 338 -5 321 12.5 c 128,-1,57
 304 30 304 30 294.5 53 c 128,-1,58
 285 76 285 76 285 102 c 256,39,40
EndSplineSet
EndChar

StartChar: at
Encoding: 64 64 35
Width: 1917
GlyphClass: 2
Flags: W
LayerCount: 2
Fore
SplineSet
150 489 m 0,0,1
 150 641 150 641 186.5 768.5 c 128,-1,2
 223 896 223 896 287 999 c 128,-1,3
 351 1102 351 1102 438.5 1180 c 128,-1,4
 526 1258 526 1258 628 1310 c 128,-1,5
 730 1362 730 1362 842.5 1388.5 c 128,-1,6
 955 1415 955 1415 1069 1415 c 0,7,8
 1221 1415 1221 1415 1349.5 1372.5 c 128,-1,9
 1478 1330 1478 1330 1571 1247.5 c 128,-1,10
 1664 1165 1664 1165 1716.5 1043.5 c 128,-1,11
 1769 922 1769 922 1769 764 c 0,12,13
 1769 660 1769 660 1746.5 571.5 c 128,-1,14
 1724 483 1724 483 1685.5 411 c 128,-1,15
 1647 339 1647 339 1596.5 283.5 c 128,-1,16
 1546 228 1546 228 1490.5 190.5 c 128,-1,17
 1435 153 1435 153 1378 134 c 128,-1,18
 1321 115 1321 115 1270 115 c 0,19,20
 1185 115 1185 115 1147.5 157.5 c 128,-1,21
 1110 200 1110 200 1110 285 c 1,22,23
 1030 204 1030 204 957.5 160.5 c 128,-1,24
 885 117 885 117 813 117 c 0,25,26
 757 117 757 117 710 140.5 c 128,-1,27
 663 164 663 164 629 207.5 c 128,-1,28
 595 251 595 251 576 312.5 c 128,-1,29
 557 374 557 374 557 451 c 0,30,31
 557 568 557 568 600.5 670 c 128,-1,32
 644 772 644 772 715.5 847 c 128,-1,33
 787 922 787 922 878.5 965 c 128,-1,34
 970 1008 970 1008 1067 1008 c 0,35,36
 1089 1008 1089 1008 1115 1004 c 128,-1,37
 1141 1000 1141 1000 1167.5 992.5 c 128,-1,38
 1194 985 1194 985 1219.5 974.5 c 128,-1,39
 1245 964 1245 964 1268 952 c 1,40,-1
 1305 999 l 1,41,-1
 1419 999 l 1,42,43
 1417 993 1417 993 1410 963.5 c 128,-1,44
 1403 934 1403 934 1393 890.5 c 128,-1,45
 1383 847 1383 847 1370.5 792.5 c 128,-1,46
 1358 738 1358 738 1346 683 c 0,47,48
 1316 553 1316 553 1280 391 c 1,49,50
 1271 356 1271 356 1271 326.5 c 128,-1,51
 1271 297 1271 297 1280 276 c 128,-1,52
 1289 255 1289 255 1308 243 c 128,-1,53
 1327 231 1327 231 1356 231 c 0,54,55
 1401 231 1401 231 1456 268 c 128,-1,56
 1511 305 1511 305 1558 374 c 128,-1,57
 1605 443 1605 443 1637 541.5 c 128,-1,58
 1669 640 1669 640 1669 762 c 0,59,60
 1669 906 1669 906 1620 1012 c 128,-1,61
 1571 1118 1571 1118 1490.5 1187.5 c 128,-1,62
 1410 1257 1410 1257 1307 1291 c 128,-1,63
 1204 1325 1204 1325 1096 1325 c 0,64,65
 979 1325 979 1325 874.5 1297.5 c 128,-1,66
 770 1270 770 1270 681.5 1219.5 c 128,-1,67
 593 1169 593 1169 521.5 1097 c 128,-1,68
 450 1025 450 1025 400.5 936 c 128,-1,69
 351 847 351 847 324 743.5 c 128,-1,70
 297 640 297 640 297 526 c 0,71,72
 297 370 297 370 345.5 235 c 128,-1,73
 394 100 394 100 486 1 c 128,-1,74
 578 -98 578 -98 711 -154.5 c 128,-1,75
 844 -211 844 -211 1014 -211 c 0,76,77
 1104 -211 1104 -211 1182 -197 c 128,-1,78
 1260 -183 1260 -183 1327 -161 c 128,-1,79
 1394 -139 1394 -139 1450.5 -112 c 128,-1,80
 1507 -85 1507 -85 1554 -59 c 1,81,-1
 1583 -133 l 1,82,83
 1514 -170 1514 -170 1442 -202.5 c 128,-1,84
 1370 -235 1370 -235 1293.5 -259.5 c 128,-1,85
 1217 -284 1217 -284 1135.5 -298.5 c 128,-1,86
 1054 -313 1054 -313 965 -313 c 0,87,88
 855 -313 855 -313 752 -288 c 128,-1,89
 649 -263 649 -263 558.5 -215.5 c 128,-1,90
 468 -168 468 -168 393 -98.5 c 128,-1,91
 318 -29 318 -29 264 60 c 128,-1,92
 210 149 210 149 180 257 c 128,-1,93
 150 365 150 365 150 489 c 0,0,1
745 469 m 0,94,95
 745 358 745 358 786.5 303 c 128,-1,96
 828 248 828 248 905 248 c 0,97,98
 939 248 939 248 970 261.5 c 128,-1,99
 1001 275 1001 275 1027.5 295 c 128,-1,100
 1054 315 1054 315 1076 338 c 128,-1,101
 1098 361 1098 361 1114 381 c 1,102,-1
 1196 805 l 2,103,104
 1199 818 1199 818 1191 838 c 128,-1,105
 1183 858 1183 858 1166.5 876.5 c 128,-1,106
 1150 895 1150 895 1126.5 908.5 c 128,-1,107
 1103 922 1103 922 1075 922 c 0,108,109
 999 922 999 922 938 886.5 c 128,-1,110
 877 851 877 851 834 789.5 c 128,-1,111
 791 728 791 728 768 645.5 c 128,-1,112
 745 563 745 563 745 469 c 0,94,95
EndSplineSet
EndChar

StartChar: A
Encoding: 65 65 36
Width: 1380
GlyphClass: 2
Flags: W
LayerCount: 2
Fore
SplineSet
10 0 m 1,0,-1
 10 88 l 1,1,-1
 129 113 l 1,2,-1
 606 1407 l 1,3,-1
 760 1407 l 1,4,-1
 1235 143 l 2,5,6
 1242 122 1242 122 1248.5 115 c 128,-1,7
 1255 108 1255 108 1278 104 c 2,8,-1
 1370 88 l 1,9,-1
 1370 0 l 1,10,-1
 883 0 l 1,11,-1
 883 88 l 1,12,-1
 1001 98 l 2,13,14
 1011 98 1011 98 1018 111.5 c 128,-1,15
 1025 125 1025 125 1022 133 c 2,16,-1
 881 508 l 1,17,-1
 408 508 l 1,18,-1
 272 139 l 2,19,20
 270 133 270 133 272 126 c 128,-1,21
 274 119 274 119 279 112.5 c 128,-1,22
 284 106 284 106 290 102 c 128,-1,23
 296 98 296 98 301 98 c 2,24,-1
 422 88 l 1,25,-1
 422 0 l 1,26,-1
 10 0 l 1,0,-1
444 606 m 1,27,-1
 844 606 l 1,28,-1
 643 1143 l 1,29,-1
 444 606 l 1,27,-1
EndSplineSet
EndChar

StartChar: B
Encoding: 66 66 37
Width: 1239
GlyphClass: 2
Flags: W
LayerCount: 2
Fore
SplineSet
66 0 m 1,0,-1
 66 88 l 1,1,-1
 174 96 l 2,2,3
 196 98 196 98 206.5 112 c 128,-1,4
 217 126 217 126 217 141 c 2,5,-1
 217 1233 l 2,6,7
 217 1248 217 1248 206.5 1262 c 128,-1,8
 196 1276 196 1276 174 1278 c 2,9,-1
 66 1286 l 1,10,-1
 66 1374 l 1,11,-1
 614 1374 l 2,12,13
 736 1374 736 1374 823.5 1351.5 c 128,-1,14
 911 1329 911 1329 967 1286 c 128,-1,15
 1023 1243 1023 1243 1049 1182 c 128,-1,16
 1075 1121 1075 1121 1075 1044 c 256,17,18
 1075 967 1075 967 1046 913 c 128,-1,19
 1017 859 1017 859 973 822 c 128,-1,20
 929 785 929 785 877 763 c 128,-1,21
 825 741 825 741 780 729 c 1,22,23
 849 729 849 729 916.5 712.5 c 128,-1,24
 984 696 984 696 1038 658 c 128,-1,25
 1092 620 1092 620 1125.5 558 c 128,-1,26
 1159 496 1159 496 1159 406 c 0,27,28
 1159 323 1159 323 1135.5 260.5 c 128,-1,29
 1112 198 1112 198 1072 153 c 128,-1,30
 1032 108 1032 108 979.5 78.5 c 128,-1,31
 927 49 927 49 869.5 31.5 c 128,-1,32
 812 14 812 14 752.5 7 c 128,-1,33
 693 0 693 0 639 0 c 2,34,-1
 66 0 l 1,0,-1
422 106 m 1,35,36
 447 104 447 104 471 103 c 1,37,38
 491 101 491 101 512.5 100.5 c 128,-1,39
 534 100 534 100 549 100 c 0,40,41
 657 100 657 100 730.5 118 c 128,-1,42
 804 136 804 136 850 172 c 128,-1,43
 896 208 896 208 916 262 c 128,-1,44
 936 316 936 316 936 389 c 0,45,46
 936 529 936 529 853 594 c 128,-1,47
 770 659 770 659 606 659 c 0,48,49
 581 659 581 659 550.5 657 c 128,-1,50
 520 655 520 655 493 653 c 128,-1,51
 466 651 466 651 446 649 c 128,-1,52
 426 647 426 647 422 647 c 1,53,-1
 422 106 l 1,35,36
422 756 m 1,54,55
 436 755 436 755 450 755 c 1,56,57
 462 754 462 754 474 754 c 2,58,-1
 496 754 l 2,59,60
 596 754 596 754 664.5 772.5 c 128,-1,61
 733 791 733 791 775 826 c 128,-1,62
 817 861 817 861 835.5 912.5 c 128,-1,63
 854 964 854 964 854 1030 c 0,64,65
 854 1151 854 1151 776 1215.5 c 128,-1,66
 698 1280 698 1280 539 1280 c 0,67,68
 523 1280 523 1280 504.5 1279 c 128,-1,69
 486 1278 486 1278 469.5 1277 c 128,-1,70
 453 1276 453 1276 440 1275 c 128,-1,71
 427 1274 427 1274 422 1274 c 1,72,-1
 422 756 l 1,54,55
EndSplineSet
EndChar

StartChar: C
Encoding: 67 67 38
Width: 1284
GlyphClass: 2
Flags: W
LayerCount: 2
Fore
SplineSet
80 690 m 0,0,1
 80 849 80 849 132 981 c 128,-1,2
 184 1113 184 1113 278 1207.5 c 128,-1,3
 372 1302 372 1302 504 1354.5 c 128,-1,4
 636 1407 636 1407 797 1407 c 0,5,6
 847 1407 847 1407 893.5 1401.5 c 128,-1,7
 940 1396 940 1396 988 1386 c 128,-1,8
 1036 1376 1036 1376 1089 1361 c 128,-1,9
 1142 1346 1142 1346 1204 1327 c 1,10,-1
 1204 1006 l 1,11,-1
 1081 1006 l 1,12,-1
 1051 1192 l 2,13,14
 1049 1206 1049 1206 1037 1220 c 128,-1,15
 1025 1234 1025 1234 1016 1239 c 1,16,17
 1004 1244 1004 1244 984.5 1253 c 128,-1,18
 965 1262 965 1262 938 1270.5 c 128,-1,19
 911 1279 911 1279 878 1285.5 c 128,-1,20
 845 1292 845 1292 807 1292 c 0,21,22
 702 1292 702 1292 612 1253 c 128,-1,23
 522 1214 522 1214 456 1138 c 128,-1,24
 390 1062 390 1062 352.5 949.5 c 128,-1,25
 315 837 315 837 315 690 c 0,26,27
 315 547 315 547 350.5 434 c 128,-1,28
 386 321 386 321 453 242 c 128,-1,29
 520 163 520 163 616 121.5 c 128,-1,30
 712 80 712 80 834 80 c 0,31,32
 870 80 870 80 899.5 85 c 128,-1,33
 929 90 929 90 951 96.5 c 128,-1,34
 973 103 973 103 985 108.5 c 128,-1,35
 997 114 997 114 999 115 c 0,36,37
 1015 121 1015 121 1025 132 c 128,-1,38
 1035 143 1035 143 1038 156 c 2,39,-1
 1085 379 l 1,40,-1
 1204 379 l 1,41,-1
 1204 47 l 1,42,43
 1200 45 1200 45 1165 32.5 c 128,-1,44
 1130 20 1130 20 1074 5.5 c 128,-1,45
 1018 -9 1018 -9 945.5 -21 c 128,-1,46
 873 -33 873 -33 795 -33 c 0,47,48
 680 -33 680 -33 582.5 -5.5 c 128,-1,49
 485 22 485 22 405.5 71 c 128,-1,50
 326 120 326 120 265.5 188 c 128,-1,51
 205 256 205 256 163.5 336 c 128,-1,52
 122 416 122 416 101 506 c 128,-1,53
 80 596 80 596 80 690 c 0,0,1
EndSplineSet
EndChar

StartChar: D
Encoding: 68 68 39
Width: 1425
GlyphClass: 2
Flags: W
LayerCount: 2
Fore
SplineSet
66 0 m 1,0,-1
 66 88 l 1,1,-1
 174 96 l 2,2,3
 196 98 196 98 207.5 112 c 128,-1,4
 219 126 219 126 219 141 c 2,5,-1
 219 1233 l 2,6,7
 219 1248 219 1248 207.5 1262 c 128,-1,8
 196 1276 196 1276 174 1278 c 2,9,-1
 66 1286 l 1,10,-1
 66 1374 l 1,11,-1
 594 1374 l 2,12,13
 755 1374 755 1374 893 1333.5 c 128,-1,14
 1031 1293 1031 1293 1131.5 1209 c 128,-1,15
 1232 1125 1232 1125 1289 996 c 128,-1,16
 1346 867 1346 867 1346 690 c 0,17,18
 1346 600 1346 600 1329 514.5 c 128,-1,19
 1312 429 1312 429 1276 352 c 128,-1,20
 1240 275 1240 275 1183.5 210.5 c 128,-1,21
 1127 146 1127 146 1048 99 c 128,-1,22
 969 52 969 52 866.5 26 c 128,-1,23
 764 0 764 0 635 0 c 2,24,-1
 66 0 l 1,0,-1
426 98 m 1,25,-1
 592 100 l 2,26,27
 710 101 710 101 806.5 133.5 c 128,-1,28
 903 166 903 166 971 236 c 128,-1,29
 1039 306 1039 306 1076.5 417 c 128,-1,30
 1114 528 1114 528 1114 686 c 0,31,32
 1114 847 1114 847 1076.5 959.5 c 128,-1,33
 1039 1072 1039 1072 969.5 1142.5 c 128,-1,34
 900 1213 900 1213 801.5 1244.5 c 128,-1,35
 703 1276 703 1276 582 1276 c 2,36,-1
 426 1276 l 1,37,-1
 426 98 l 1,25,-1
EndSplineSet
EndChar

StartChar: E
Encoding: 69 69 40
Width: 1194
GlyphClass: 2
Flags: W
LayerCount: 2
Fore
SplineSet
66 0 m 1,0,-1
 66 88 l 1,1,-1
 172 96 l 2,2,3
 194 98 194 98 205.5 112 c 128,-1,4
 217 126 217 126 217 141 c 2,5,-1
 217 1233 l 2,6,7
 217 1248 217 1248 205.5 1262 c 128,-1,8
 194 1276 194 1276 172 1278 c 2,9,-1
 66 1286 l 1,10,-1
 66 1374 l 1,11,-1
 1061 1374 l 1,12,-1
 1061 1069 l 1,13,-1
 938 1069 l 1,14,-1
 907 1237 l 2,15,16
 905 1252 905 1252 894.5 1264 c 128,-1,17
 884 1276 884 1276 870 1276 c 2,18,-1
 426 1276 l 1,19,-1
 426 766 l 1,20,-1
 733 766 l 2,21,22
 747 766 747 766 758.5 778 c 128,-1,23
 770 790 770 790 770 801 c 1,24,-1
 791 942 l 1,25,-1
 895 942 l 1,26,-1
 895 485 l 1,27,-1
 791 485 l 1,28,-1
 770 627 l 1,29,30
 770 638 770 638 758 651 c 128,-1,31
 746 664 746 664 733 664 c 2,32,-1
 426 664 l 1,33,-1
 426 100 l 1,34,-1
 944 100 l 2,35,36
 957 100 957 100 968 114 c 128,-1,37
 979 128 979 128 981 139 c 2,38,-1
 1018 342 l 1,39,-1
 1128 342 l 1,40,-1
 1128 0 l 1,41,-1
 66 0 l 1,0,-1
EndSplineSet
EndChar

StartChar: F
Encoding: 70 70 41
Width: 1108
GlyphClass: 2
Flags: W
LayerCount: 2
Fore
SplineSet
51 1286 m 1,0,-1
 51 1374 l 1,1,-1
 1047 1374 l 1,2,-1
 1047 1049 l 1,3,-1
 926 1049 l 1,4,-1
 897 1237 l 2,5,6
 894 1252 894 1252 885 1263 c 128,-1,7
 876 1274 876 1274 862 1274 c 2,8,-1
 426 1274 l 1,9,-1
 426 741 l 1,10,-1
 739 741 l 2,11,12
 753 741 753 741 763.5 754 c 128,-1,13
 774 767 774 767 776 778 c 2,14,-1
 795 922 l 1,15,-1
 897 922 l 1,16,-1
 897 461 l 1,17,-1
 795 461 l 1,18,-1
 776 604 l 2,19,20
 774 615 774 615 763 628 c 128,-1,21
 752 641 752 641 739 641 c 2,22,-1
 426 641 l 1,23,-1
 426 141 l 2,24,25
 426 126 426 126 436.5 112 c 128,-1,26
 447 98 447 98 469 96 c 2,27,-1
 606 88 l 1,28,-1
 606 0 l 1,29,-1
 68 0 l 1,30,-1
 68 88 l 1,31,-1
 176 96 l 2,32,33
 198 98 198 98 208.5 112 c 128,-1,34
 219 126 219 126 219 141 c 2,35,-1
 219 1233 l 2,36,37
 219 1248 219 1248 208.5 1262 c 128,-1,38
 198 1276 198 1276 176 1278 c 2,39,-1
 51 1286 l 1,0,-1
EndSplineSet
EndChar

StartChar: G
Encoding: 71 71 42
Width: 1423
GlyphClass: 2
Flags: W
LayerCount: 2
Fore
SplineSet
80 690 m 0,0,1
 80 851 80 851 131 983.5 c 128,-1,2
 182 1116 182 1116 278 1210 c 128,-1,3
 374 1304 374 1304 511.5 1355.5 c 128,-1,4
 649 1407 649 1407 821 1407 c 0,5,6
 879 1407 879 1407 931.5 1400.5 c 128,-1,7
 984 1394 984 1394 1033 1384 c 128,-1,8
 1082 1374 1082 1374 1129 1361.5 c 128,-1,9
 1176 1349 1176 1349 1223 1337 c 1,10,-1
 1223 1006 l 1,11,-1
 1100 1006 l 1,12,-1
 1067 1190 l 2,13,14
 1064 1208 1064 1208 1052 1220.5 c 128,-1,15
 1040 1233 1040 1233 1026 1239 c 0,16,17
 1011 1245 1011 1245 989.5 1254 c 128,-1,18
 968 1263 968 1263 941 1271.5 c 128,-1,19
 914 1280 914 1280 881.5 1286 c 128,-1,20
 849 1292 849 1292 813 1292 c 0,21,22
 702 1292 702 1292 610 1253 c 128,-1,23
 518 1214 518 1214 452 1139 c 128,-1,24
 386 1064 386 1064 349.5 953.5 c 128,-1,25
 313 843 313 843 313 700 c 0,26,27
 313 553 313 553 350 438 c 128,-1,28
 387 323 387 323 455.5 244 c 128,-1,29
 524 165 524 165 621 123.5 c 128,-1,30
 718 82 718 82 838 82 c 0,31,32
 872 82 872 82 903 87 c 128,-1,33
 934 92 934 92 958 97.5 c 128,-1,34
 982 103 982 103 998 108 c 128,-1,35
 1014 113 1014 113 1018 113 c 1,36,-1
 1018 522 l 2,37,38
 1018 538 1018 538 1007.5 550.5 c 128,-1,39
 997 563 997 563 975 565 c 2,40,-1
 838 575 l 1,41,-1
 838 664 l 1,42,-1
 1372 664 l 1,43,-1
 1372 575 l 1,44,-1
 1268 565 l 2,45,46
 1246 563 1246 563 1235.5 550.5 c 128,-1,47
 1225 538 1225 538 1225 522 c 2,48,-1
 1225 49 l 1,49,50
 1163 26 1163 26 1093 8 c 0,51,52
 1033 -8 1033 -8 955.5 -20.5 c 128,-1,53
 878 -33 878 -33 795 -33 c 0,54,55
 681 -33 681 -33 583.5 -6 c 128,-1,56
 486 21 486 21 406.5 70 c 128,-1,57
 327 119 327 119 266 186.5 c 128,-1,58
 205 254 205 254 163.5 334 c 128,-1,59
 122 414 122 414 101 504.5 c 128,-1,60
 80 595 80 595 80 690 c 0,0,1
EndSplineSet
EndChar

StartChar: H
Encoding: 72 72 43
Width: 1522
GlyphClass: 2
Flags: W
LayerCount: 2
Fore
SplineSet
66 0 m 1,0,-1
 66 88 l 1,1,-1
 172 96 l 2,2,3
 194 98 194 98 205.5 112 c 128,-1,4
 217 126 217 126 217 141 c 2,5,-1
 217 1233 l 2,6,7
 217 1248 217 1248 205.5 1261 c 128,-1,8
 194 1274 194 1274 172 1276 c 2,9,-1
 66 1284 l 1,10,-1
 66 1374 l 1,11,-1
 584 1374 l 1,12,-1
 584 1284 l 1,13,-1
 467 1276 l 2,14,15
 445 1274 445 1274 434.5 1261 c 128,-1,16
 424 1248 424 1248 424 1233 c 2,17,-1
 424 772 l 1,18,-1
 1098 772 l 1,19,-1
 1098 1233 l 2,20,21
 1098 1248 1098 1248 1087 1261 c 128,-1,22
 1076 1274 1076 1274 1055 1276 c 2,23,-1
 938 1284 l 1,24,-1
 938 1374 l 1,25,-1
 1456 1374 l 1,26,-1
 1456 1284 l 1,27,-1
 1350 1276 l 2,28,29
 1328 1274 1328 1274 1316.5 1261 c 128,-1,30
 1305 1248 1305 1248 1305 1233 c 2,31,-1
 1305 141 l 2,32,33
 1305 126 1305 126 1316.5 112 c 128,-1,34
 1328 98 1328 98 1350 96 c 2,35,-1
 1456 88 l 1,36,-1
 1456 0 l 1,37,-1
 938 0 l 1,38,-1
 938 88 l 1,39,-1
 1055 96 l 2,40,41
 1076 98 1076 98 1087 112 c 128,-1,42
 1098 126 1098 126 1098 141 c 2,43,-1
 1098 670 l 1,44,-1
 424 670 l 1,45,-1
 424 141 l 2,46,47
 424 126 424 126 434.5 112 c 128,-1,48
 445 98 445 98 467 96 c 2,49,-1
 584 88 l 1,50,-1
 584 0 l 1,51,-1
 66 0 l 1,0,-1
EndSplineSet
EndChar

StartChar: I
Encoding: 73 73 44
Width: 676
GlyphClass: 2
Flags: W
LayerCount: 2
Fore
SplineSet
68 0 m 1,0,-1
 68 88 l 1,1,-1
 190 96 l 2,2,3
 212 98 212 98 222.5 112 c 128,-1,4
 233 126 233 126 233 141 c 2,5,-1
 233 1233 l 2,6,7
 233 1248 233 1248 222.5 1261 c 128,-1,8
 212 1274 212 1274 190 1276 c 2,9,-1
 68 1284 l 1,10,-1
 68 1374 l 1,11,-1
 608 1374 l 1,12,-1
 608 1284 l 1,13,-1
 483 1276 l 2,14,15
 462 1274 462 1274 451 1261 c 128,-1,16
 440 1248 440 1248 440 1233 c 2,17,-1
 440 141 l 2,18,19
 440 126 440 126 451 112 c 128,-1,20
 462 98 462 98 483 96 c 2,21,-1
 608 88 l 1,22,-1
 608 0 l 1,23,-1
 68 0 l 1,0,-1
EndSplineSet
EndChar

StartChar: J
Encoding: 74 74 45
Width: 993
GlyphClass: 2
Flags: W
LayerCount: 2
Fore
SplineSet
51 25 m 1,0,-1
 51 375 l 1,1,-1
 174 375 l 1,2,-1
 219 125 l 2,3,4
 222 110 222 110 231.5 99.5 c 128,-1,5
 241 89 241 89 254 83 c 128,-1,6
 267 77 267 77 282.5 74.5 c 128,-1,7
 298 72 298 72 313 72 c 0,8,9
 383 72 383 72 432 99 c 128,-1,10
 481 126 481 126 512 180 c 128,-1,11
 543 234 543 234 557 315 c 128,-1,12
 571 396 571 396 571 504 c 2,13,-1
 571 1233 l 2,14,15
 571 1248 571 1248 560.5 1262 c 128,-1,16
 550 1276 550 1276 528 1278 c 2,17,-1
 399 1286 l 1,18,-1
 399 1374 l 1,19,-1
 940 1374 l 1,20,-1
 940 1286 l 1,21,-1
 821 1278 l 2,22,23
 800 1276 800 1276 789 1262 c 128,-1,24
 778 1248 778 1248 778 1233 c 2,25,-1
 778 518 l 2,26,27
 778 390 778 390 754 288 c 128,-1,28
 730 186 730 186 677 115 c 128,-1,29
 624 44 624 44 538 5.5 c 128,-1,30
 452 -33 452 -33 328 -33 c 0,31,32
 278 -33 278 -33 230 -24.5 c 128,-1,33
 182 -16 182 -16 144 -5.5 c 128,-1,34
 106 5 106 5 80.5 14 c 128,-1,35
 55 23 55 23 51 25 c 1,0,-1
EndSplineSet
EndChar

StartChar: K
Encoding: 75 75 46
Width: 1307
GlyphClass: 2
Flags: W
LayerCount: 2
Fore
SplineSet
66 0 m 1,0,-1
 66 88 l 1,1,-1
 174 96 l 2,2,3
 196 98 196 98 206.5 112 c 128,-1,4
 217 126 217 126 217 141 c 2,5,-1
 217 1233 l 2,6,7
 217 1248 217 1248 206.5 1262 c 128,-1,8
 196 1276 196 1276 174 1278 c 2,9,-1
 66 1286 l 1,10,-1
 66 1374 l 1,11,-1
 586 1374 l 1,12,-1
 586 1286 l 1,13,-1
 469 1278 l 2,14,15
 447 1276 447 1276 435.5 1262 c 128,-1,16
 424 1248 424 1248 424 1233 c 2,17,-1
 424 696 l 1,18,-1
 498 696 l 1,19,-1
 944 1241 l 2,20,21
 951 1250 951 1250 944.5 1262 c 128,-1,22
 938 1274 938 1274 928 1276 c 1,23,-1
 823 1286 l 1,24,-1
 823 1374 l 1,25,-1
 1257 1374 l 1,26,-1
 1257 1286 l 1,27,28
 1221 1283 1221 1283 1192 1279 c 0,29,30
 1167 1276 1167 1276 1145 1273.5 c 128,-1,31
 1123 1271 1123 1271 1118 1270 c 1,32,-1
 700 770 l 1,33,-1
 1159 98 l 1,34,-1
 1307 88 l 1,35,-1
 1307 0 l 1,36,-1
 948 0 l 1,37,-1
 948 63 l 1,38,-1
 567 610 l 1,39,-1
 424 610 l 1,40,-1
 424 141 l 2,41,42
 424 126 424 126 435.5 112 c 128,-1,43
 447 98 447 98 469 96 c 2,44,-1
 586 88 l 1,45,-1
 586 0 l 1,46,-1
 66 0 l 1,0,-1
EndSplineSet
EndChar

StartChar: L
Encoding: 76 76 47
Width: 1087
GlyphClass: 2
Flags: W
LayerCount: 2
Fore
SplineSet
55 0 m 1,0,-1
 55 88 l 1,1,-1
 174 96 l 2,2,3
 196 98 196 98 206.5 112 c 128,-1,4
 217 126 217 126 217 141 c 2,5,-1
 217 1233 l 2,6,7
 217 1248 217 1248 206.5 1262 c 128,-1,8
 196 1276 196 1276 174 1278 c 2,9,-1
 55 1286 l 1,10,-1
 55 1374 l 1,11,-1
 578 1374 l 1,12,-1
 578 1286 l 1,13,-1
 469 1278 l 2,14,15
 447 1276 447 1276 435.5 1262 c 128,-1,16
 424 1248 424 1248 424 1233 c 2,17,-1
 424 100 l 1,18,-1
 854 100 l 2,19,20
 868 100 868 100 882.5 110.5 c 128,-1,21
 897 121 897 121 899 135 c 2,22,-1
 932 381 l 1,23,-1
 1051 381 l 1,24,-1
 1051 0 l 1,25,-1
 55 0 l 1,0,-1
EndSplineSet
EndChar

StartChar: M
Encoding: 77 77 48
Width: 1794
GlyphClass: 2
Flags: W
LayerCount: 2
Fore
SplineSet
59 0 m 1,0,-1
 59 88 l 1,1,-1
 176 96 l 2,2,3
 198 98 198 98 208.5 112 c 128,-1,4
 219 126 219 126 219 141 c 2,5,-1
 219 1233 l 2,6,7
 219 1248 219 1248 208.5 1262 c 128,-1,8
 198 1276 198 1276 176 1278 c 2,9,-1
 59 1286 l 1,10,-1
 59 1374 l 1,11,-1
 518 1374 l 1,12,-1
 518 1319 l 1,13,-1
 889 313 l 1,14,-1
 1260 1313 l 1,15,-1
 1260 1374 l 1,16,-1
 1731 1374 l 1,17,-1
 1731 1286 l 1,18,-1
 1620 1278 l 2,19,20
 1598 1276 1598 1276 1586.5 1262 c 128,-1,21
 1575 1248 1575 1248 1575 1233 c 2,22,-1
 1575 141 l 2,23,24
 1575 126 1575 126 1586.5 112 c 128,-1,25
 1598 98 1598 98 1620 96 c 2,26,-1
 1731 88 l 1,27,-1
 1731 0 l 1,28,-1
 1214 0 l 1,29,-1
 1214 88 l 1,30,-1
 1323 96 l 2,31,32
 1345 98 1345 98 1356.5 112 c 128,-1,33
 1368 126 1368 126 1368 141 c 2,34,-1
 1368 1270 l 1,35,-1
 897 0 l 1,36,-1
 795 0 l 1,37,-1
 340 1251 l 1,38,-1
 340 141 l 2,39,40
 340 126 340 126 351.5 112 c 128,-1,41
 363 98 363 98 385 96 c 2,42,-1
 502 88 l 1,43,-1
 502 0 l 1,44,-1
 59 0 l 1,0,-1
EndSplineSet
EndChar

StartChar: N
Encoding: 78 78 49
Width: 1477
GlyphClass: 2
Flags: W
LayerCount: 2
Fore
SplineSet
51 1286 m 1,0,-1
 51 1374 l 1,1,-1
 457 1374 l 1,2,-1
 457 1323 l 1,3,-1
 1139 293 l 1,4,-1
 1139 1233 l 2,5,6
 1139 1248 1139 1248 1128 1262 c 128,-1,7
 1117 1276 1117 1276 1096 1278 c 2,8,-1
 979 1286 l 1,9,-1
 979 1374 l 1,10,-1
 1417 1374 l 1,11,-1
 1417 1286 l 1,12,-1
 1303 1278 l 2,13,14
 1281 1276 1281 1276 1270.5 1262 c 128,-1,15
 1260 1248 1260 1248 1260 1233 c 2,16,-1
 1260 0 l 1,17,-1
 1100 0 l 1,18,-1
 338 1147 l 1,19,-1
 338 141 l 2,20,21
 338 126 338 126 348.5 112 c 128,-1,22
 359 98 359 98 381 96 c 2,23,-1
 498 88 l 1,24,-1
 498 0 l 1,25,-1
 55 0 l 1,26,-1
 55 88 l 1,27,-1
 172 96 l 2,28,29
 194 98 194 98 205.5 112 c 128,-1,30
 217 126 217 126 217 141 c 2,31,-1
 217 1233 l 2,32,33
 217 1248 217 1248 205.5 1262 c 128,-1,34
 194 1276 194 1276 172 1278 c 2,35,-1
 51 1286 l 1,0,-1
EndSplineSet
EndChar

StartChar: O
Encoding: 79 79 50
Width: 1497
GlyphClass: 2
Flags: W
LayerCount: 2
Fore
SplineSet
80 688 m 0,0,1
 80 838 80 838 127 969 c 128,-1,2
 174 1100 174 1100 261 1197.5 c 128,-1,3
 348 1295 348 1295 471.5 1351 c 128,-1,4
 595 1407 595 1407 748 1407 c 0,5,6
 900 1407 900 1407 1023.5 1350 c 128,-1,7
 1147 1293 1147 1293 1234.5 1195 c 128,-1,8
 1322 1097 1322 1097 1369.5 966 c 128,-1,9
 1417 835 1417 835 1417 686 c 256,10,11
 1417 537 1417 537 1369 406 c 128,-1,12
 1321 275 1321 275 1233.5 177.5 c 128,-1,13
 1146 80 1146 80 1023 23.5 c 128,-1,14
 900 -33 900 -33 750 -33 c 0,15,16
 599 -33 599 -33 475.5 21.5 c 128,-1,17
 352 76 352 76 264 173 c 128,-1,18
 176 270 176 270 128 401.5 c 128,-1,19
 80 533 80 533 80 688 c 0,0,1
315 688 m 0,20,21
 315 565 315 565 341.5 454.5 c 128,-1,22
 368 344 368 344 421.5 261 c 128,-1,23
 475 178 475 178 555.5 129 c 128,-1,24
 636 80 636 80 745 80 c 0,25,26
 856 80 856 80 937.5 129 c 128,-1,27
 1019 178 1019 178 1073 260.5 c 128,-1,28
 1127 343 1127 343 1153.5 452.5 c 128,-1,29
 1180 562 1180 562 1180 684 c 0,30,31
 1180 809 1180 809 1153 919.5 c 128,-1,32
 1126 1030 1126 1030 1072 1112.5 c 128,-1,33
 1018 1195 1018 1195 937.5 1242.5 c 128,-1,34
 857 1290 857 1290 750 1290 c 0,35,36
 639 1290 639 1290 557 1242 c 128,-1,37
 475 1194 475 1194 421 1111.5 c 128,-1,38
 367 1029 367 1029 341 919.5 c 128,-1,39
 315 810 315 810 315 688 c 0,20,21
EndSplineSet
EndChar

StartChar: P
Encoding: 80 80 51
Width: 1186
GlyphClass: 2
Flags: W
LayerCount: 2
Fore
SplineSet
51 1286 m 1,0,-1
 51 1374 l 1,1,-1
 541 1374 l 2,2,3
 686 1374 686 1374 792.5 1352 c 128,-1,4
 899 1330 899 1330 968.5 1281 c 128,-1,5
 1038 1232 1038 1232 1072 1153.5 c 128,-1,6
 1106 1075 1106 1075 1106 961 c 0,7,8
 1106 848 1106 848 1064 763.5 c 128,-1,9
 1022 679 1022 679 950 624 c 0,10,11
 878 568 878 568 780 540 c 0,12,13
 686 513 686 513 579 514 c 0,14,15
 575 514 575 514 571 514 c 0,16,17
 551 514 551 514 527.5 515 c 128,-1,18
 504 516 504 516 482.5 517.5 c 128,-1,19
 461 519 461 519 445.5 520 c 128,-1,20
 430 521 430 521 426 522 c 1,21,-1
 426 141 l 2,22,23
 426 126 426 126 436.5 112 c 128,-1,24
 447 98 447 98 469 96 c 2,25,-1
 604 88 l 1,26,-1
 604 0 l 1,27,-1
 66 0 l 1,28,-1
 66 88 l 1,29,-1
 174 96 l 2,30,31
 196 98 196 98 207.5 112 c 128,-1,32
 219 126 219 126 219 141 c 2,33,-1
 219 1233 l 2,34,35
 219 1248 219 1248 207.5 1262 c 128,-1,36
 196 1276 196 1276 174 1278 c 2,37,-1
 51 1286 l 1,0,-1
426 627 m 1,38,39
 428 627 428 627 441 625.5 c 128,-1,40
 454 624 454 624 471 621.5 c 128,-1,41
 488 619 488 619 507 617.5 c 128,-1,42
 526 616 526 616 541 616 c 0,43,44
 545 616 545 616 549 616 c 0,45,46
 625 616 625 616 687 635 c 0,47,48
 752 655 752 655 797.5 697 c 128,-1,49
 843 739 843 739 868 804 c 128,-1,50
 893 869 893 869 893 958 c 0,51,52
 893 1033 893 1033 873 1091.5 c 128,-1,53
 853 1150 853 1150 809.5 1190.5 c 128,-1,54
 766 1231 766 1231 697 1252.5 c 128,-1,55
 628 1274 628 1274 530 1274 c 0,56,57
 516 1274 516 1274 498 1273.5 c 128,-1,58
 480 1273 480 1273 464 1273 c 0,59,60
 446 1272 446 1272 426 1272 c 1,61,-1
 426 627 l 1,38,39
EndSplineSet
EndChar

StartChar: Q
Encoding: 81 81 52
Width: 1513
GlyphClass: 2
Flags: W
LayerCount: 2
Fore
SplineSet
80 686 m 0,0,1
 80 786 80 786 101.5 878.5 c 128,-1,2
 123 971 123 971 163.5 1051 c 128,-1,3
 204 1131 204 1131 263 1196.5 c 128,-1,4
 322 1262 322 1262 397 1309 c 128,-1,5
 472 1356 472 1356 562 1381.5 c 128,-1,6
 652 1407 652 1407 754 1407 c 0,7,8
 910 1407 910 1407 1035.5 1351 c 128,-1,9
 1161 1295 1161 1295 1249.5 1198 c 128,-1,10
 1338 1101 1338 1101 1386 969 c 128,-1,11
 1434 837 1434 837 1434 686 c 0,12,13
 1434 548 1434 548 1395.5 428 c 128,-1,14
 1357 308 1357 308 1284 215 c 128,-1,15
 1211 122 1211 122 1106 60.5 c 128,-1,16
 1001 -1 1001 -1 868 -23 c 1,17,18
 870 -138 870 -138 939.5 -204 c 128,-1,19
 1009 -270 1009 -270 1151 -270 c 0,20,21
 1188 -270 1188 -270 1221 -267 c 128,-1,22
 1254 -264 1254 -264 1280 -260.5 c 128,-1,23
 1306 -257 1306 -257 1323.5 -253.5 c 128,-1,24
 1341 -250 1341 -250 1348 -248 c 1,25,-1
 1348 -336 l 1,26,27
 1337 -338 1337 -338 1308.5 -344 c 128,-1,28
 1280 -350 1280 -350 1239 -356 c 128,-1,29
 1198 -362 1198 -362 1148 -366.5 c 128,-1,30
 1098 -371 1098 -371 1044 -371 c 0,31,32
 936 -371 936 -371 861 -347 c 128,-1,33
 786 -323 786 -323 738.5 -278 c 128,-1,34
 691 -233 691 -233 670 -169.5 c 128,-1,35
 649 -106 649 -106 649 -27 c 1,36,37
 526 -9 526 -9 422 48 c 128,-1,38
 318 105 318 105 242 196.5 c 128,-1,39
 166 288 166 288 123 412 c 128,-1,40
 80 536 80 536 80 686 c 0,0,1
319 690 m 0,41,42
 319 570 319 570 346 459.5 c 128,-1,43
 373 349 373 349 427.5 264.5 c 128,-1,44
 482 180 482 180 564 130 c 128,-1,45
 646 80 646 80 756 80 c 0,46,47
 867 80 867 80 949 129.5 c 128,-1,48
 1031 179 1031 179 1085 262.5 c 128,-1,49
 1139 346 1139 346 1165.5 456 c 128,-1,50
 1192 566 1192 566 1192 686 c 0,51,52
 1192 807 1192 807 1166 916.5 c 128,-1,53
 1140 1026 1140 1026 1086.5 1109.5 c 128,-1,54
 1033 1193 1033 1193 951 1242.5 c 128,-1,55
 869 1292 869 1292 756 1292 c 0,56,57
 644 1292 644 1292 561.5 1244 c 128,-1,58
 479 1196 479 1196 425 1113.5 c 128,-1,59
 371 1031 371 1031 345 921.5 c 128,-1,60
 319 812 319 812 319 690 c 0,41,42
EndSplineSet
EndChar

StartChar: R
Encoding: 82 82 53
Width: 1329
GlyphClass: 2
Flags: W
LayerCount: 2
Fore
SplineSet
66 0 m 1,0,-1
 66 88 l 1,1,-1
 172 96 l 2,2,3
 194 98 194 98 205.5 112 c 128,-1,4
 217 126 217 126 217 141 c 2,5,-1
 217 1233 l 2,6,7
 217 1248 217 1248 205.5 1262 c 128,-1,8
 194 1276 194 1276 172 1278 c 2,9,-1
 66 1286 l 1,10,-1
 66 1374 l 1,11,-1
 600 1374 l 2,12,13
 717 1374 717 1374 810 1355 c 128,-1,14
 903 1336 903 1336 968 1293 c 128,-1,15
 1033 1250 1033 1250 1067.5 1180.5 c 128,-1,16
 1102 1111 1102 1111 1102 1010 c 0,17,18
 1102 929 1102 929 1074 871 c 128,-1,19
 1046 813 1046 813 999.5 773 c 128,-1,20
 953 733 953 733 892 708 c 128,-1,21
 831 683 831 683 766 668 c 1,22,23
 849 648 849 648 899 612.5 c 128,-1,24
 949 577 949 577 978 532 c 128,-1,25
 1007 487 1007 487 1021 436.5 c 128,-1,26
 1035 386 1035 386 1046 336.5 c 128,-1,27
 1057 287 1057 287 1071 242 c 128,-1,28
 1085 197 1085 197 1114.5 162 c 128,-1,29
 1144 127 1144 127 1194.5 106.5 c 128,-1,30
 1245 86 1245 86 1329 86 c 1,31,-1
 1329 -6 l 1,32,33
 1322 -7 1322 -7 1309 -11 c 128,-1,34
 1296 -15 1296 -15 1278 -20 c 128,-1,35
 1260 -25 1260 -25 1238.5 -29 c 128,-1,36
 1217 -33 1217 -33 1194 -33 c 0,37,38
 1102 -33 1102 -33 1045 -5.5 c 128,-1,39
 988 22 988 22 952.5 67.5 c 128,-1,40
 917 113 917 113 897 171 c 128,-1,41
 877 229 877 229 860 289.5 c 128,-1,42
 843 350 843 350 822.5 408 c 128,-1,43
 802 466 802 466 765 511.5 c 128,-1,44
 728 557 728 557 669 584.5 c 128,-1,45
 610 612 610 612 516 612 c 0,46,47
 500 612 500 612 484 611.5 c 128,-1,48
 468 611 468 611 455.5 610 c 128,-1,49
 443 609 443 609 434 608.5 c 128,-1,50
 425 608 425 608 424 608 c 1,51,-1
 424 141 l 2,52,53
 424 126 424 126 434.5 112 c 128,-1,54
 445 98 445 98 467 96 c 2,55,-1
 575 88 l 1,56,-1
 575 0 l 1,57,-1
 66 0 l 1,0,-1
424 713 m 1,58,59
 426 713 426 713 438 712.5 c 128,-1,60
 450 712 450 712 465.5 712 c 128,-1,61
 481 712 481 712 497.5 711.5 c 128,-1,62
 514 711 514 711 526 711 c 0,63,64
 611 711 611 711 677 725.5 c 128,-1,65
 743 740 743 740 788 774 c 128,-1,66
 833 808 833 808 856 863.5 c 128,-1,67
 879 919 879 919 879 1001 c 0,68,69
 879 1067 879 1067 859 1117.5 c 128,-1,70
 839 1168 839 1168 795.5 1203 c 128,-1,71
 752 1238 752 1238 683.5 1256 c 128,-1,72
 615 1274 615 1274 518 1274 c 2,73,-1
 424 1274 l 1,74,-1
 424 713 l 1,58,59
EndSplineSet
EndChar

StartChar: S
Encoding: 83 83 54
Width: 1067
GlyphClass: 2
Flags: W
LayerCount: 2
Fore
SplineSet
80 43 m 1,0,-1
 80 406 l 1,1,-1
 209 406 l 1,2,-1
 236 174 l 2,3,4
 238 162 238 162 248.5 148 c 128,-1,5
 259 134 259 134 270 129 c 2,6,-1
 287 120 l 2,7,8
 302 113 302 113 328 104.5 c 128,-1,9
 354 96 354 96 391.5 89 c 128,-1,10
 429 82 429 82 477 82 c 0,11,12
 542 82 542 82 597.5 98.5 c 128,-1,13
 653 115 653 115 693 146 c 128,-1,14
 733 177 733 177 755.5 222 c 128,-1,15
 778 267 778 267 778 324 c 0,16,17
 778 386 778 386 742.5 432.5 c 128,-1,18
 707 479 707 479 653.5 515.5 c 128,-1,19
 600 552 600 552 537 581 c 128,-1,20
 474 610 474 610 418 637 c 0,21,22
 355 667 355 667 297.5 699 c 128,-1,23
 240 731 240 731 196.5 773 c 128,-1,24
 153 815 153 815 127.5 871.5 c 128,-1,25
 102 928 102 928 102 1006 c 0,26,27
 102 1097 102 1097 138 1171 c 128,-1,28
 174 1245 174 1245 237.5 1297.5 c 128,-1,29
 301 1350 301 1350 387.5 1378.5 c 128,-1,30
 474 1407 474 1407 575 1407 c 0,31,32
 633 1407 633 1407 684.5 1400 c 128,-1,33
 736 1393 736 1393 780.5 1382.5 c 128,-1,34
 825 1372 825 1372 863.5 1360 c 128,-1,35
 902 1348 902 1348 936 1337 c 1,36,-1
 936 1018 l 1,37,-1
 819 1018 l 1,38,-1
 788 1214 l 2,39,40
 786 1224 786 1224 776.5 1234 c 128,-1,41
 767 1244 767 1244 758 1249 c 0,42,43
 756 1250 756 1250 745 1258 c 128,-1,44
 734 1266 734 1266 712.5 1274 c 128,-1,45
 691 1282 691 1282 657.5 1289 c 128,-1,46
 624 1296 624 1296 578 1296 c 0,47,48
 516 1296 516 1296 467 1278 c 128,-1,49
 418 1260 418 1260 384 1227.5 c 128,-1,50
 350 1195 350 1195 331.5 1151 c 128,-1,51
 313 1107 313 1107 313 1055 c 0,52,53
 313 1008 313 1008 331.5 969.5 c 128,-1,54
 350 931 350 931 386.5 898.5 c 128,-1,55
 423 866 423 866 476 838 c 128,-1,56
 529 810 529 810 598 784 c 0,57,58
 691 749 691 749 763.5 711 c 128,-1,59
 836 673 836 673 885.5 626 c 128,-1,60
 935 579 935 579 961 520.5 c 128,-1,61
 987 462 987 462 987 385 c 0,62,63
 987 307 987 307 956.5 232 c 128,-1,64
 926 157 926 157 860 98 c 128,-1,65
 794 39 794 39 691 3 c 128,-1,66
 588 -33 588 -33 444 -33 c 0,67,68
 360 -33 360 -33 293.5 -21 c 128,-1,69
 227 -9 227 -9 179 5 c 0,70,71
 124 22 124 22 80 43 c 1,0,-1
EndSplineSet
EndChar

StartChar: T
Encoding: 84 84 55
Width: 1227
GlyphClass: 2
Flags: W
LayerCount: 2
Fore
SplineSet
33 1047 m 1,0,-1
 33 1374 l 1,1,-1
 1194 1374 l 1,2,-1
 1194 1047 l 1,3,-1
 1073 1047 l 1,4,-1
 1044 1239 l 2,5,6
 1041 1255 1041 1255 1032.5 1264.5 c 128,-1,7
 1024 1274 1024 1274 1010 1274 c 2,8,-1
 717 1274 l 1,9,-1
 717 141 l 2,10,11
 717 126 717 126 727.5 112 c 128,-1,12
 738 98 738 98 760 96 c 2,13,-1
 891 88 l 1,14,-1
 891 0 l 1,15,-1
 336 0 l 1,16,-1
 336 88 l 1,17,-1
 467 96 l 2,18,19
 489 98 489 98 499.5 112 c 128,-1,20
 510 126 510 126 510 141 c 2,21,-1
 510 1274 l 1,22,-1
 215 1274 l 2,23,24
 201 1274 201 1274 191.5 1264.5 c 128,-1,25
 182 1255 182 1255 180 1239 c 2,26,-1
 152 1047 l 1,27,-1
 33 1047 l 1,0,-1
EndSplineSet
EndChar

StartChar: U
Encoding: 85 85 56
Width: 1458
GlyphClass: 2
Flags: W
LayerCount: 2
Fore
SplineSet
63 1286 m 1,0,-1
 63 1374 l 1,1,-1
 584 1374 l 1,2,-1
 584 1286 l 1,3,-1
 467 1278 l 2,4,5
 445 1276 445 1276 434.5 1262 c 128,-1,6
 424 1248 424 1248 424 1233 c 2,7,-1
 424 508 l 2,8,9
 424 418 424 418 438 343.5 c 128,-1,10
 452 269 452 269 490 216 c 128,-1,11
 528 163 528 163 595.5 133.5 c 128,-1,12
 663 104 663 104 770 104 c 0,13,14
 876 104 876 104 944 135 c 128,-1,15
 1012 166 1012 166 1051 220.5 c 128,-1,16
 1090 275 1090 275 1105 349 c 128,-1,17
 1120 423 1120 423 1120 508 c 2,18,-1
 1120 1233 l 2,19,20
 1120 1248 1120 1248 1108.5 1262 c 128,-1,21
 1097 1276 1097 1276 1075 1278 c 2,22,-1
 958 1286 l 1,23,-1
 958 1374 l 1,24,-1
 1403 1374 l 1,25,-1
 1403 1286 l 1,26,-1
 1284 1278 l 2,27,28
 1262 1276 1262 1276 1251.5 1262 c 128,-1,29
 1241 1248 1241 1248 1241 1233 c 2,30,-1
 1241 455 l 2,31,32
 1241 329 1241 329 1207 237 c 128,-1,33
 1173 145 1173 145 1106.5 85 c 128,-1,34
 1040 25 1040 25 941.5 -4 c 128,-1,35
 843 -33 843 -33 715 -33 c 0,36,37
 461 -33 461 -33 338 90 c 128,-1,38
 215 213 215 213 215 455 c 2,39,-1
 215 1233 l 2,40,41
 215 1248 215 1248 204.5 1262 c 128,-1,42
 194 1276 194 1276 172 1278 c 2,43,-1
 63 1286 l 1,0,-1
EndSplineSet
EndChar

StartChar: V
Encoding: 86 86 57
Width: 1364
GlyphClass: 2
Flags: W
LayerCount: 2
Fore
SplineSet
20 1286 m 1,0,-1
 20 1374 l 1,1,-1
 510 1374 l 1,2,-1
 510 1286 l 1,3,-1
 389 1276 l 1,4,5
 378 1274 378 1274 373 1261 c 128,-1,6
 368 1248 368 1248 371 1239 c 2,7,-1
 731 227 l 1,8,-1
 1077 1235 l 2,9,10
 1081 1247 1081 1247 1071.5 1260.5 c 128,-1,11
 1062 1274 1062 1274 1049 1276 c 2,12,-1
 936 1286 l 1,13,-1
 936 1374 l 1,14,-1
 1343 1374 l 1,15,-1
 1343 1286 l 1,16,-1
 1225 1264 l 1,17,-1
 766 -33 l 1,18,-1
 610 -33 l 1,19,-1
 141 1266 l 1,20,-1
 20 1286 l 1,0,-1
EndSplineSet
EndChar

StartChar: W
Encoding: 87 87 58
Width: 1907
GlyphClass: 2
Flags: W
LayerCount: 2
Fore
SplineSet
20 1286 m 1,0,-1
 20 1374 l 1,1,-1
 489 1374 l 1,2,-1
 489 1286 l 1,3,-1
 367 1274 l 2,4,5
 353 1272 353 1272 348 1259.5 c 128,-1,6
 343 1247 343 1247 346 1233 c 2,7,-1
 590 309 l 1,8,-1
 911 1374 l 1,9,-1
 1069 1374 l 1,10,-1
 1399 276 l 1,11,-1
 1626 1233 l 2,12,13
 1629 1247 1629 1247 1621 1259.5 c 128,-1,14
 1613 1272 1613 1272 1597 1274 c 2,15,-1
 1468 1286 l 1,16,-1
 1468 1374 l 1,17,-1
 1886 1374 l 1,18,-1
 1886 1286 l 1,19,-1
 1761 1262 l 1,20,-1
 1448 -33 l 1,21,-1
 1298 -33 l 1,22,-1
 956 1102 l 1,23,-1
 621 -33 l 1,24,-1
 473 -33 l 1,25,-1
 139 1262 l 1,26,-1
 20 1286 l 1,0,-1
EndSplineSet
EndChar

StartChar: X
Encoding: 88 88 59
Width: 1298
GlyphClass: 2
Flags: W
LayerCount: 2
Fore
SplineSet
20 0 m 1,0,-1
 20 88 l 1,1,-1
 143 113 l 1,2,-1
 555 678 l 1,3,-1
 182 1262 l 1,4,-1
 47 1286 l 1,5,-1
 47 1374 l 1,6,-1
 561 1374 l 1,7,-1
 561 1286 l 1,8,-1
 457 1276 l 2,9,10
 432 1274 432 1274 428 1260.5 c 128,-1,11
 424 1247 424 1247 432 1235 c 2,12,-1
 682 850 l 1,13,-1
 958 1229 l 2,14,15
 969 1244 969 1244 960 1257 c 128,-1,16
 951 1270 951 1270 936 1272 c 2,17,-1
 831 1286 l 1,18,-1
 831 1374 l 1,19,-1
 1260 1374 l 1,20,-1
 1260 1286 l 1,21,-1
 1128 1266 l 1,22,-1
 748 743 l 1,23,-1
 1151 113 l 1,24,-1
 1278 88 l 1,25,-1
 1278 0 l 1,26,-1
 752 0 l 1,27,-1
 752 88 l 1,28,-1
 870 100 l 2,29,30
 886 102 886 102 895 115 c 128,-1,31
 904 128 904 128 895 143 c 2,32,-1
 623 571 l 1,33,-1
 307 137 l 2,34,35
 299 126 299 126 303 113 c 128,-1,36
 307 100 307 100 332 98 c 2,37,-1
 455 88 l 1,38,-1
 455 0 l 1,39,-1
 20 0 l 1,0,-1
EndSplineSet
EndChar

StartChar: Y
Encoding: 89 89 60
Width: 1282
GlyphClass: 2
Flags: W
LayerCount: 2
Fore
SplineSet
20 1286 m 1,0,-1
 20 1374 l 1,1,-1
 506 1374 l 1,2,-1
 506 1286 l 1,3,-1
 403 1276 l 2,4,5
 379 1273 379 1273 376 1260 c 128,-1,6
 373 1247 373 1247 379 1235 c 2,7,-1
 668 700 l 1,8,-1
 985 1229 l 2,9,10
 994 1244 994 1244 985 1257 c 128,-1,11
 976 1270 976 1270 961 1272 c 2,12,-1
 846 1286 l 1,13,-1
 846 1374 l 1,14,-1
 1262 1374 l 1,15,-1
 1262 1286 l 1,16,-1
 1151 1266 l 1,17,-1
 739 584 l 1,18,-1
 739 141 l 2,19,20
 739 126 739 126 750 112 c 128,-1,21
 761 98 761 98 782 96 c 2,22,-1
 913 88 l 1,23,-1
 913 0 l 1,24,-1
 360 0 l 1,25,-1
 360 88 l 1,26,-1
 487 96 l 2,27,28
 509 98 509 98 520.5 112 c 128,-1,29
 532 126 532 126 532 141 c 2,30,-1
 532 553 l 1,31,-1
 139 1262 l 1,32,-1
 20 1286 l 1,0,-1
EndSplineSet
EndChar

StartChar: Z
Encoding: 90 90 61
Width: 1178
GlyphClass: 2
Flags: W
LayerCount: 2
Fore
SplineSet
80 0 m 1,0,-1
 80 90 l 1,1,-1
 842 1272 l 1,2,-1
 309 1272 l 2,3,4
 295 1272 295 1272 286.5 1262 c 128,-1,5
 278 1252 278 1252 274 1237 c 1,6,-1
 244 1047 l 1,7,-1
 123 1047 l 1,8,-1
 123 1374 l 1,9,-1
 1087 1374 l 1,10,-1
 1087 1280 l 1,11,-1
 324 104 l 1,12,-1
 907 104 l 2,13,14
 921 104 921 104 930 115 c 128,-1,15
 939 126 939 126 942 141 c 2,16,-1
 977 379 l 1,17,-1
 1098 379 l 1,18,-1
 1098 0 l 1,19,-1
 80 0 l 1,0,-1
EndSplineSet
EndChar

StartChar: bracketleft
Encoding: 91 91 62
Width: 866
GlyphClass: 2
Flags: W
LayerCount: 2
Fore
SplineSet
279 -270 m 1,0,-1
 279 1450 l 1,1,-1
 776 1450 l 1,2,-1
 776 1358 l 1,3,-1
 457 1358 l 1,4,-1
 457 -176 l 1,5,-1
 776 -176 l 1,6,-1
 776 -270 l 1,7,-1
 279 -270 l 1,0,-1
EndSplineSet
EndChar

StartChar: backslash
Encoding: 92 92 63
Width: 1001
GlyphClass: 2
Flags: W
LayerCount: 2
Fore
SplineSet
0 1374 m 1,0,-1
 131 1374 l 1,1,-1
 1001 -190 l 1,2,-1
 870 -190 l 1,3,-1
 0 1374 l 1,0,-1
EndSplineSet
EndChar

StartChar: bracketright
Encoding: 93 93 64
Width: 866
GlyphClass: 2
Flags: W
LayerCount: 2
Fore
SplineSet
90 -176 m 1,0,-1
 412 -176 l 1,1,-1
 412 1358 l 1,2,-1
 90 1358 l 1,3,-1
 90 1450 l 1,4,-1
 590 1450 l 1,5,-1
 590 -270 l 1,6,-1
 90 -270 l 1,7,-1
 90 -176 l 1,0,-1
EndSplineSet
EndChar

StartChar: asciicircum
Encoding: 94 94 65
Width: 670
GlyphClass: 2
Flags: W
LayerCount: 2
Fore
SplineSet
0 1128 m 1,0,-1
 258 1475 l 1,1,-1
 412 1475 l 1,2,-1
 670 1128 l 1,3,-1
 547 1128 l 1,4,-1
 336 1331 l 1,5,-1
 123 1128 l 1,6,-1
 0 1128 l 1,0,-1
EndSplineSet
EndChar

StartChar: underscore
Encoding: 95 95 66
Width: 686
GlyphClass: 2
Flags: W
LayerCount: 2
Fore
SplineSet
0 -175 m 1,0,-1
 686 -175 l 1,1,-1
 686 -305 l 1,2,-1
 0 -305 l 1,3,-1
 0 -175 l 1,0,-1
EndSplineSet
EndChar

StartChar: grave
Encoding: 96 96 67
Width: 717
GlyphClass: 2
Flags: W
LayerCount: 2
Fore
SplineSet
0 1409 m 0,0,1
 0 1425 0 1425 5 1441.5 c 128,-1,2
 10 1458 10 1458 21 1471 c 128,-1,3
 32 1484 32 1484 50 1492.5 c 128,-1,4
 68 1501 68 1501 94 1501 c 0,5,6
 116 1501 116 1501 131 1497.5 c 128,-1,7
 146 1494 146 1494 158 1487 c 128,-1,8
 170 1480 170 1480 180 1469.5 c 128,-1,9
 190 1459 190 1459 201 1446 c 2,10,-1
 475 1128 l 1,11,-1
 358 1128 l 1,12,-1
 47 1327 l 2,13,14
 25 1341 25 1341 12.5 1361 c 128,-1,15
 0 1381 0 1381 0 1409 c 0,0,1
EndSplineSet
EndChar

StartChar: a
Encoding: 97 97 68
Width: 1270
GlyphClass: 2
Flags: W
LayerCount: 2
Fore
SplineSet
16 0 m 1,0,-1
 16 87 l 1,1,-1
 122 107 l 1,2,-1
 122 101 l 1,3,-1
 556 1147 l 1,4,-1
 690 1147 l 1,5,-1
 1120 125 l 2,6,7
 1122 118 1122 118 1124 114 c 128,-1,8
 1126 110 1126 110 1130 107 c 128,-1,9
 1134 104 1134 104 1140.5 102.5 c 128,-1,10
 1147 101 1147 101 1158 100 c 2,11,-1
 1242 87 l 1,12,-1
 1242 0 l 1,13,-1
 802 0 l 1,14,-1
 802 87 l 1,15,-1
 909 95 l 2,16,17
 917 95 917 95 923.5 101.5 c 128,-1,18
 930 108 930 108 928 112 c 2,19,-1
 800 413 l 1,20,-1
 800 408 l 1,21,-1
 374 408 l 1,22,-1
 374 414 l 1,23,-1
 251 116 l 2,24,25
 249 109 249 109 259.5 102 c 128,-1,26
 270 95 270 95 278 95 c 2,27,-1
 386 87 l 1,28,-1
 386 0 l 1,29,-1
 16 0 l 1,0,-1
411 503 m 1,30,-1
 763 503 l 1,31,-1
 586 923 l 1,32,-1
 586 924 l 1,33,-1
 411 503 l 1,30,-1
EndSplineSet
EndChar

StartChar: b
Encoding: 98 98 69
Width: 1140
GlyphClass: 2
Flags: W
LayerCount: 2
Fore
SplineSet
65 0 m 1,0,-1
 65 87 l 1,1,-1
 163 93 l 2,2,3
 183 95 183 95 192 103.5 c 128,-1,4
 201 112 201 112 201 121 c 2,5,-1
 201 999 l 2,6,7
 201 1008 201 1008 192 1017 c 128,-1,8
 183 1026 183 1026 163 1027 c 0,9,10
 138 1029 138 1029 114 1030.5 c 128,-1,11
 90 1032 90 1032 65 1033 c 1,12,-1
 65 1120 l 1,13,-1
 559 1120 l 2,14,15
 669 1120 669 1120 748 1101 c 128,-1,16
 827 1082 827 1082 877.5 1047 c 128,-1,17
 928 1012 928 1012 951.5 961.5 c 128,-1,18
 975 911 975 911 975 847 c 0,19,20
 975 791 975 791 955.5 750 c 128,-1,21
 936 709 936 709 905.5 679.5 c 128,-1,22
 875 650 875 650 836.5 630.5 c 128,-1,23
 798 611 798 611 760 599 c 1,24,25
 816 594 816 594 868.5 577.5 c 128,-1,26
 921 561 921 561 961.5 529.5 c 128,-1,27
 1002 498 1002 498 1026.5 450 c 128,-1,28
 1051 402 1051 402 1051 335 c 0,29,30
 1051 266 1051 266 1029.5 215 c 128,-1,31
 1008 164 1008 164 972.5 126.5 c 128,-1,32
 937 89 937 89 889.5 64.5 c 128,-1,33
 842 40 842 40 789.5 26 c 128,-1,34
 737 12 737 12 683.5 6 c 128,-1,35
 630 0 630 0 581 0 c 2,36,-1
 65 0 l 1,0,-1
386 101 m 1,37,38
 390 101 390 101 404 100.5 c 128,-1,39
 418 100 418 100 435 99 c 128,-1,40
 452 98 452 98 470 97.5 c 128,-1,41
 488 97 488 97 500 97 c 0,42,43
 597 97 597 97 663.5 111 c 128,-1,44
 730 125 730 125 771.5 153 c 128,-1,45
 813 181 813 181 831 223 c 128,-1,46
 849 265 849 265 849 321 c 0,47,48
 849 430 849 430 774.5 480 c 128,-1,49
 700 530 700 530 552 530 c 0,50,51
 536 530 536 530 517.5 529.5 c 128,-1,52
 499 529 499 529 480.5 527.5 c 128,-1,53
 462 526 462 526 445 524.5 c 128,-1,54
 428 523 428 523 415 522 c 0,55,56
 403 522 403 522 396 521 c 128,-1,57
 389 520 389 520 386 520 c 1,58,-1
 386 101 l 1,37,38
386 624 m 1,59,60
 390 624 390 624 398.5 623.5 c 128,-1,61
 407 623 407 623 417 623 c 128,-1,62
 427 623 427 623 437 622.5 c 128,-1,63
 447 622 447 622 453 622 c 0,64,65
 543 622 543 622 604.5 636 c 128,-1,66
 666 650 666 650 704.5 677.5 c 128,-1,67
 743 705 743 705 759.5 745 c 128,-1,68
 776 785 776 785 776 836 c 0,69,70
 776 929 776 929 705.5 979 c 128,-1,71
 635 1029 635 1029 491 1029 c 0,72,73
 473 1029 473 1029 451.5 1028 c 128,-1,74
 430 1027 430 1027 413 1026 c 0,75,76
 406 1025 406 1025 398 1024.5 c 128,-1,77
 390 1024 390 1024 386 1024 c 1,78,-1
 386 624 l 1,59,60
EndSplineSet
EndChar

StartChar: c
Encoding: 99 99 70
Width: 1181
GlyphClass: 2
Flags: W
LayerCount: 2
Fore
SplineSet
78 563 m 0,0,1
 78 693 78 693 125 800.5 c 128,-1,2
 172 908 172 908 257 985 c 128,-1,3
 342 1062 342 1062 461 1104.5 c 128,-1,4
 580 1147 580 1147 725 1147 c 0,5,6
 770 1147 770 1147 812 1142.5 c 128,-1,7
 854 1138 854 1138 897.5 1130 c 128,-1,8
 941 1122 941 1122 988 1109.5 c 128,-1,9
 1035 1097 1035 1097 1091 1082 c 1,10,-1
 1091 809 l 1,11,-1
 982 809 l 1,12,-1
 954 964 l 1,13,-1
 954 965 l 1,14,15
 952 973 952 973 941 982.5 c 128,-1,16
 930 992 930 992 922 996 c 0,17,18
 920 996 920 996 917.5 997.5 c 128,-1,19
 915 999 915 999 914 1000 c 0,20,21
 891 1010 891 1010 844 1024 c 128,-1,22
 797 1038 797 1038 733 1038 c 0,23,24
 639 1038 639 1038 558 1007 c 128,-1,25
 477 976 477 976 417.5 916 c 128,-1,26
 358 856 358 856 324 767.5 c 128,-1,27
 290 679 290 679 290 563 c 0,28,29
 290 450 290 450 322 360.5 c 128,-1,30
 354 271 354 271 414.5 208.5 c 128,-1,31
 475 146 475 146 561.5 113 c 128,-1,32
 648 80 648 80 758 80 c 0,33,34
 791 80 791 80 818 84 c 128,-1,35
 845 88 845 88 864 93 c 128,-1,36
 883 98 883 98 894 102.5 c 128,-1,37
 905 107 905 107 907 107 c 0,38,39
 937 120 937 120 942 135 c 1,40,-1
 986 321 l 1,41,-1
 1091 321 l 1,42,-1
 1091 39 l 1,43,44
 1088 37 1088 37 1056 27 c 128,-1,45
 1024 17 1024 17 973 5 c 128,-1,46
 922 -7 922 -7 857 -16.5 c 128,-1,47
 792 -26 792 -26 723 -26 c 0,48,49
 619 -26 619 -26 531 -3.5 c 128,-1,50
 443 19 443 19 371.5 59 c 128,-1,51
 300 99 300 99 245 154 c 128,-1,52
 190 209 190 209 153 274.5 c 128,-1,53
 116 340 116 340 97 413.5 c 128,-1,54
 78 487 78 487 78 563 c 0,0,1
EndSplineSet
EndChar

StartChar: d
Encoding: 100 100 71
Width: 1311
GlyphClass: 2
Flags: W
LayerCount: 2
Fore
SplineSet
66 0 m 1,0,-1
 66 87 l 1,1,-1
 164 93 l 2,2,3
 184 95 184 95 194 103.5 c 128,-1,4
 204 112 204 112 204 121 c 2,5,-1
 204 999 l 2,6,7
 204 1008 204 1008 194 1017 c 128,-1,8
 184 1026 184 1026 164 1027 c 0,9,10
 139 1029 139 1029 114.5 1030.5 c 128,-1,11
 90 1032 90 1032 66 1033 c 1,12,-1
 66 1120 l 1,13,-1
 542 1120 l 2,14,15
 687 1120 687 1120 811.5 1087 c 128,-1,16
 936 1054 936 1054 1026.5 986 c 128,-1,17
 1117 918 1117 918 1168.5 813 c 128,-1,18
 1220 708 1220 708 1220 563 c 0,19,20
 1220 453 1220 453 1185 351.5 c 128,-1,21
 1150 250 1150 250 1073 172 c 128,-1,22
 996 94 996 94 874.5 47 c 128,-1,23
 753 0 753 0 579 0 c 2,24,-1
 66 0 l 1,0,-1
391 95 m 1,25,26
 406 95 406 95 425.5 95.5 c 128,-1,27
 445 96 445 96 465.5 96 c 128,-1,28
 486 96 486 96 505.5 96.5 c 128,-1,29
 525 97 525 97 540 97 c 0,30,31
 642 100 642 100 728.5 127 c 128,-1,32
 815 154 815 154 877.5 209.5 c 128,-1,33
 940 265 940 265 975.5 351 c 128,-1,34
 1011 437 1011 437 1011 559 c 0,35,36
 1011 687 1011 687 977 776 c 128,-1,37
 943 865 943 865 880 920.5 c 128,-1,38
 817 976 817 976 728.5 1001 c 128,-1,39
 640 1026 640 1026 531 1026 c 2,40,-1
 391 1026 l 1,41,-1
 391 95 l 1,25,26
EndSplineSet
EndChar

StartChar: e
Encoding: 101 101 72
Width: 1098
GlyphClass: 2
Flags: W
LayerCount: 2
Fore
SplineSet
65 0 m 1,0,-1
 65 87 l 1,1,-1
 161 93 l 2,2,3
 181 95 181 95 191 103.5 c 128,-1,4
 201 112 201 112 201 121 c 2,5,-1
 201 999 l 2,6,7
 201 1008 201 1008 191 1017 c 128,-1,8
 181 1026 181 1026 161 1027 c 0,9,10
 137 1029 137 1029 113 1030.5 c 128,-1,11
 89 1032 89 1032 65 1033 c 1,12,-1
 65 1120 l 1,13,-1
 962 1120 l 1,14,-1
 962 859 l 1,15,-1
 852 859 l 1,16,-1
 823 1000 l 1,17,18
 822 1011 822 1011 813 1018.5 c 128,-1,19
 804 1026 804 1026 790 1026 c 2,20,-1
 389 1026 l 1,21,-1
 389 631 l 1,22,-1
 666 631 l 2,23,24
 680 631 680 631 690 638.5 c 128,-1,25
 700 646 700 646 700 653 c 1,26,-1
 719 773 l 1,27,-1
 812 773 l 1,28,-1
 812 389 l 1,29,-1
 719 389 l 1,30,-1
 700 511 l 1,31,32
 700 518 700 518 689 526 c 128,-1,33
 678 534 678 534 666 534 c 2,34,-1
 389 534 l 1,35,-1
 389 97 l 1,36,-1
 857 97 l 2,37,38
 869 97 869 97 879 105.5 c 128,-1,39
 889 114 889 114 890 121 c 2,40,-1
 925 291 l 1,41,-1
 1023 291 l 1,42,-1
 1023 0 l 1,43,-1
 65 0 l 1,0,-1
EndSplineSet
EndChar

StartChar: f
Encoding: 102 102 73
Width: 1019
GlyphClass: 2
Flags: W
LayerCount: 2
Fore
SplineSet
51 1033 m 1,0,-1
 51 1120 l 1,1,-1
 949 1120 l 1,2,-1
 949 843 l 1,3,-1
 841 843 l 1,4,-1
 814 1001 l 2,5,6
 812 1011 812 1011 804 1017.5 c 128,-1,7
 796 1024 796 1024 782 1024 c 2,8,-1
 389 1024 l 1,9,-1
 389 612 l 1,10,-1
 672 612 l 2,11,12
 685 612 685 612 694 620 c 128,-1,13
 703 628 703 628 705 634 c 1,14,-1
 723 757 l 1,15,-1
 814 757 l 1,16,-1
 814 371 l 1,17,-1
 723 371 l 1,18,-1
 705 493 l 2,19,20
 703 500 703 500 693 507.5 c 128,-1,21
 683 515 683 515 672 515 c 2,22,-1
 389 515 l 1,23,-1
 389 121 l 2,24,25
 389 112 389 112 398.5 103.5 c 128,-1,26
 408 95 408 95 428 93 c 1,27,28
 458 92 458 92 489.5 90.5 c 128,-1,29
 521 89 521 89 551 87 c 1,30,-1
 551 0 l 1,31,-1
 66 0 l 1,32,-1
 66 87 l 1,33,-1
 164 93 l 2,34,35
 184 95 184 95 193 103.5 c 128,-1,36
 202 112 202 112 202 121 c 2,37,-1
 202 999 l 2,38,39
 202 1008 202 1008 193 1017 c 128,-1,40
 184 1026 184 1026 164 1027 c 0,41,42
 136 1029 136 1029 107.5 1030.5 c 128,-1,43
 79 1032 79 1032 51 1033 c 1,0,-1
EndSplineSet
EndChar

StartChar: g
Encoding: 103 103 74
Width: 1309
GlyphClass: 2
Flags: W
LayerCount: 2
Fore
SplineSet
79 563 m 0,0,1
 79 694 79 694 125 802 c 128,-1,2
 171 910 171 910 257.5 986.5 c 128,-1,3
 344 1063 344 1063 468 1105 c 128,-1,4
 592 1147 592 1147 747 1147 c 0,5,6
 842 1147 842 1147 921.5 1131.5 c 128,-1,7
 1001 1116 1001 1116 1079 1098 c 2,8,-1
 1110 1091 l 1,9,-1
 1110 809 l 1,10,-1
 999 809 l 1,11,-1
 969 963 l 2,12,13
 967 974 967 974 956 982.5 c 128,-1,14
 945 991 945 991 932 995 c 0,15,16
 929 996 929 996 926.5 997.5 c 128,-1,17
 924 999 924 999 921 1000 c 0,18,19
 893 1011 893 1011 846 1024.5 c 128,-1,20
 799 1038 799 1038 740 1038 c 0,21,22
 640 1038 640 1038 557 1007.5 c 128,-1,23
 474 977 474 977 414.5 917.5 c 128,-1,24
 355 858 355 858 322 771 c 128,-1,25
 289 684 289 684 289 571 c 0,26,27
 289 454 289 454 322.5 363 c 128,-1,28
 356 272 356 272 417.5 209.5 c 128,-1,29
 479 147 479 147 567 114.5 c 128,-1,30
 655 82 655 82 763 82 c 0,31,32
 808 82 808 82 847 89.5 c 128,-1,33
 886 97 886 97 906 102 c 1,34,35
 919 107 919 107 925 107 c 1,36,-1
 925 427 l 2,37,38
 925 437 925 437 915.5 445 c 128,-1,39
 906 453 906 453 886 454 c 2,40,-1
 763 462 l 1,41,-1
 763 549 l 1,42,-1
 1244 549 l 1,43,-1
 1244 462 l 1,44,-1
 1150 454 l 2,45,46
 1130 453 1130 453 1120.5 445 c 128,-1,47
 1111 437 1111 437 1111 427 c 2,48,-1
 1111 40 l 1,49,50
 1054 21 1054 21 991 7 c 0,51,52
 937 -6 937 -6 867 -16 c 128,-1,53
 797 -26 797 -26 723 -26 c 0,54,55
 568 -26 568 -26 448.5 22.5 c 128,-1,56
 329 71 329 71 246.5 152.5 c 128,-1,57
 164 234 164 234 121.5 340.5 c 128,-1,58
 79 447 79 447 79 563 c 0,0,1
EndSplineSet
EndChar

StartChar: h
Encoding: 104 104 75
Width: 1400
GlyphClass: 2
Flags: W
LayerCount: 2
Fore
SplineSet
66 0 m 1,0,-1
 66 87 l 1,1,-1
 162 93 l 2,2,3
 182 95 182 95 192 103.5 c 128,-1,4
 202 112 202 112 202 121 c 2,5,-1
 202 999 l 2,6,7
 202 1008 202 1008 192 1016 c 128,-1,8
 182 1024 182 1024 162 1026 c 1,9,10
 139 1027 139 1027 114.5 1029 c 128,-1,11
 90 1031 90 1031 66 1032 c 1,12,-1
 66 1120 l 1,13,-1
 534 1120 l 1,14,-1
 534 1032 l 1,15,-1
 428 1026 l 2,16,17
 408 1024 408 1024 398.5 1016 c 128,-1,18
 389 1008 389 1008 389 999 c 2,19,-1
 389 636 l 1,20,-1
 997 636 l 1,21,-1
 997 999 l 2,22,23
 997 1008 997 1008 987 1016 c 128,-1,24
 977 1024 977 1024 959 1026 c 1,25,26
 932 1027 932 1027 905.5 1029 c 128,-1,27
 879 1031 879 1031 853 1032 c 1,28,-1
 853 1120 l 1,29,-1
 1320 1120 l 1,30,-1
 1320 1032 l 1,31,-1
 1225 1026 l 2,32,33
 1205 1024 1205 1024 1194.5 1016 c 128,-1,34
 1184 1008 1184 1008 1184 999 c 2,35,-1
 1184 121 l 2,36,37
 1184 112 1184 112 1194.5 103.5 c 128,-1,38
 1205 95 1205 95 1225 93 c 1,39,40
 1248 92 1248 92 1272 90.5 c 128,-1,41
 1296 89 1296 89 1320 87 c 1,42,-1
 1320 0 l 1,43,-1
 853 0 l 1,44,-1
 853 87 l 1,45,-1
 959 93 l 2,46,47
 977 95 977 95 987 103.5 c 128,-1,48
 997 112 997 112 997 121 c 2,49,-1
 997 539 l 1,50,-1
 389 539 l 1,51,-1
 389 121 l 2,52,53
 389 112 389 112 398.5 103.5 c 128,-1,54
 408 95 408 95 428 93 c 1,55,56
 455 92 455 92 481.5 90.5 c 128,-1,57
 508 89 508 89 534 87 c 1,58,-1
 534 0 l 1,59,-1
 66 0 l 1,0,-1
EndSplineSet
EndChar

StartChar: i
Encoding: 105 105 76
Width: 622
GlyphClass: 2
Flags: W
LayerCount: 2
Fore
SplineSet
64 0 m 1,0,-1
 64 87 l 1,1,-1
 175 93 l 2,2,3
 195 95 195 95 204 103.5 c 128,-1,4
 213 112 213 112 213 121 c 2,5,-1
 213 999 l 2,6,7
 213 1008 213 1008 204 1016 c 128,-1,8
 195 1024 195 1024 175 1026 c 1,9,10
 147 1027 147 1027 119 1029 c 128,-1,11
 91 1031 91 1031 64 1032 c 1,12,-1
 64 1120 l 1,13,-1
 551 1120 l 1,14,-1
 551 1032 l 1,15,-1
 439 1026 l 2,16,17
 419 1024 419 1024 409.5 1016 c 128,-1,18
 400 1008 400 1008 400 999 c 2,19,-1
 400 121 l 2,20,21
 400 112 400 112 409.5 103.5 c 128,-1,22
 419 95 419 95 439 93 c 1,23,24
 467 92 467 92 495 90.5 c 128,-1,25
 523 89 523 89 551 87 c 1,26,-1
 551 0 l 1,27,-1
 64 0 l 1,0,-1
EndSplineSet
EndChar

StartChar: j
Encoding: 106 106 77
Width: 914
GlyphClass: 2
Flags: W
LayerCount: 2
Fore
SplineSet
51 20 m 1,0,-1
 51 317 l 1,1,-1
 160 317 l 1,2,-1
 202 110 l 1,3,4
 208 90 208 90 233.5 82 c 128,-1,5
 259 74 259 74 287 74 c 0,6,7
 413 74 413 74 466.5 159 c 128,-1,8
 520 244 520 244 520 413 c 2,9,-1
 520 999 l 2,10,11
 520 1008 520 1008 510 1017 c 128,-1,12
 500 1026 500 1026 480 1027 c 0,13,14
 451 1029 451 1029 422 1030.5 c 128,-1,15
 393 1032 393 1032 364 1033 c 1,16,-1
 364 1120 l 1,17,-1
 852 1120 l 1,18,-1
 852 1033 l 1,19,-1
 745 1027 l 2,20,21
 725 1026 725 1026 715.5 1017 c 128,-1,22
 706 1008 706 1008 706 999 c 2,23,-1
 706 425 l 2,24,25
 706 320 706 320 684.5 236.5 c 128,-1,26
 663 153 663 153 615 94.5 c 128,-1,27
 567 36 567 36 489.5 5 c 128,-1,28
 412 -26 412 -26 300 -26 c 0,29,30
 256 -26 256 -26 213 -19 c 128,-1,31
 170 -12 170 -12 135.5 -4 c 128,-1,32
 101 4 101 4 78 11.5 c 128,-1,33
 55 19 55 19 51 20 c 1,0,-1
EndSplineSet
EndChar

StartChar: k
Encoding: 107 107 78
Width: 1202
GlyphClass: 2
Flags: W
LayerCount: 2
Fore
SplineSet
66 0 m 1,0,-1
 66 87 l 1,1,-1
 163 93 l 2,2,3
 183 95 183 95 192.5 103.5 c 128,-1,4
 202 112 202 112 202 121 c 2,5,-1
 202 999 l 2,6,7
 202 1008 202 1008 192.5 1017 c 128,-1,8
 183 1026 183 1026 163 1027 c 0,9,10
 139 1029 139 1029 114.5 1030.5 c 128,-1,11
 90 1032 90 1032 66 1033 c 1,12,-1
 66 1120 l 1,13,-1
 535 1120 l 1,14,-1
 535 1033 l 1,15,-1
 429 1027 l 2,16,17
 409 1026 409 1026 398.5 1017 c 128,-1,18
 388 1008 388 1008 388 999 c 2,19,-1
 388 576 l 1,20,-1
 455 576 l 1,21,-1
 455 572 l 1,22,-1
 857 1010 l 2,23,24
 861 1014 861 1014 855.5 1019.5 c 128,-1,25
 850 1025 850 1025 843 1026 c 2,26,-1
 748 1033 l 1,27,-1
 748 1120 l 1,28,-1
 1140 1120 l 1,29,-1
 1140 1033 l 1,30,31
 1107 1031 1107 1031 1081 1028 c 0,32,33
 1058 1026 1058 1026 1038.5 1024 c 128,-1,34
 1019 1022 1019 1022 1015 1021 c 1,35,-1
 1015 1024 l 1,36,-1
 641 626 l 1,37,38
 744 492 744 492 846.5 359 c 128,-1,39
 949 226 949 226 1052 92 c 1,40,-1
 1052 95 l 1,41,-1
 1185 87 l 1,42,-1
 1185 0 l 1,43,-1
 861 0 l 1,44,-1
 861 54 l 1,45,-1
 518 494 l 1,46,-1
 518 490 l 1,47,-1
 388 490 l 1,48,-1
 388 121 l 2,49,50
 388 112 388 112 398.5 103.5 c 128,-1,51
 409 95 409 95 429 93 c 1,52,53
 456 92 456 92 482.5 90.5 c 128,-1,54
 509 89 509 89 535 87 c 1,55,-1
 535 0 l 1,56,-1
 66 0 l 1,0,-1
EndSplineSet
EndChar

StartChar: l
Encoding: 108 108 79
Width: 1000
GlyphClass: 2
Flags: W
LayerCount: 2
Fore
SplineSet
54 0 m 1,0,-1
 54 87 l 1,1,-1
 162 93 l 2,2,3
 182 95 182 95 191.5 103.5 c 128,-1,4
 201 112 201 112 201 121 c 2,5,-1
 201 999 l 2,6,7
 201 1008 201 1008 191.5 1017 c 128,-1,8
 182 1026 182 1026 162 1027 c 0,9,10
 136 1029 136 1029 108.5 1030.5 c 128,-1,11
 81 1032 81 1032 54 1033 c 1,12,-1
 54 1120 l 1,13,-1
 526 1120 l 1,14,-1
 526 1033 l 1,15,-1
 428 1027 l 2,16,17
 408 1026 408 1026 397.5 1017 c 128,-1,18
 387 1008 387 1008 387 999 c 2,19,-1
 387 97 l 1,20,-1
 776 97 l 2,21,22
 787 97 787 97 800.5 103 c 128,-1,23
 814 109 814 109 816 117 c 2,24,-1
 846 322 l 1,25,-1
 953 322 l 1,26,-1
 953 0 l 1,27,-1
 54 0 l 1,0,-1
EndSplineSet
EndChar

StartChar: m
Encoding: 109 109 80
Width: 1650
GlyphClass: 2
Flags: W
LayerCount: 2
Fore
SplineSet
62 0 m 1,0,-1
 62 87 l 1,1,-1
 167 93 l 2,2,3
 187 95 187 95 196.5 103.5 c 128,-1,4
 206 112 206 112 206 121 c 2,5,-1
 206 999 l 2,6,7
 206 1008 206 1008 196.5 1017 c 128,-1,8
 187 1026 187 1026 167 1027 c 0,9,10
 141 1029 141 1029 114.5 1030.5 c 128,-1,11
 88 1032 88 1032 62 1033 c 1,12,-1
 62 1120 l 1,13,-1
 476 1120 l 1,14,-1
 476 1071 l 1,15,16
 557 873 557 873 643 666.5 c 128,-1,17
 729 460 729 460 810 262 c 1,18,19
 891 459 891 459 977 663.5 c 128,-1,20
 1063 868 1063 868 1144 1066 c 1,21,-1
 1144 1120 l 1,22,-1
 1570 1120 l 1,23,-1
 1570 1033 l 1,24,-1
 1469 1027 l 2,25,26
 1449 1026 1449 1026 1439 1017 c 128,-1,27
 1429 1008 1429 1008 1429 999 c 2,28,-1
 1429 121 l 2,29,30
 1429 112 1429 112 1439 103.5 c 128,-1,31
 1449 95 1449 95 1469 93 c 1,32,33
 1494 92 1494 92 1519 90.5 c 128,-1,34
 1544 89 1544 89 1570 87 c 1,35,-1
 1570 0 l 1,36,-1
 1103 0 l 1,37,-1
 1103 87 l 1,38,-1
 1202 93 l 2,39,40
 1221 95 1221 95 1231.5 103.5 c 128,-1,41
 1242 112 1242 112 1242 121 c 2,42,-1
 1242 1027 l 1,43,-1
 814 0 l 1,44,-1
 728 0 l 1,45,-1
 315 1011 l 1,46,-1
 315 121 l 2,47,48
 315 112 315 112 325 103.5 c 128,-1,49
 335 95 335 95 355 93 c 1,50,51
 381 92 381 92 408 90.5 c 128,-1,52
 435 89 435 89 461 87 c 1,53,-1
 461 0 l 1,54,-1
 62 0 l 1,0,-1
EndSplineSet
EndChar

StartChar: n
Encoding: 110 110 81
Width: 1359
GlyphClass: 2
Flags: W
LayerCount: 2
Fore
SplineSet
52 1033 m 1,0,-1
 52 1120 l 1,1,-1
 419 1120 l 1,2,-1
 419 1076 l 1,3,-1
 1034 248 l 1,4,-1
 1034 999 l 2,5,6
 1034 1008 1034 1008 1024 1017 c 128,-1,7
 1014 1026 1014 1026 995 1027 c 0,8,9
 969 1029 969 1029 942.5 1030.5 c 128,-1,10
 916 1032 916 1032 890 1033 c 1,11,-1
 890 1120 l 1,12,-1
 1284 1120 l 1,13,-1
 1284 1033 l 1,14,-1
 1181 1027 l 2,15,16
 1162 1026 1162 1026 1152.5 1017 c 128,-1,17
 1143 1008 1143 1008 1143 999 c 2,18,-1
 1143 0 l 1,19,-1
 1001 0 l 1,20,-1
 312 925 l 1,21,-1
 312 121 l 2,22,23
 312 112 312 112 321.5 103.5 c 128,-1,24
 331 95 331 95 351 93 c 1,25,26
 377 92 377 92 403 90.5 c 128,-1,27
 429 89 429 89 455 87 c 1,28,-1
 455 0 l 1,29,-1
 56 0 l 1,30,-1
 56 87 l 1,31,-1
 162 93 l 2,32,33
 182 95 182 95 192 103.5 c 128,-1,34
 202 112 202 112 202 121 c 2,35,-1
 202 999 l 2,36,37
 202 1008 202 1008 192 1017 c 128,-1,38
 182 1026 182 1026 162 1027 c 0,39,40
 135 1029 135 1029 107 1030.5 c 128,-1,41
 79 1032 79 1032 52 1033 c 1,0,-1
EndSplineSet
EndChar

StartChar: o
Encoding: 111 111 82
Width: 1377
GlyphClass: 2
Flags: W
LayerCount: 2
Fore
SplineSet
79 561 m 0,0,1
 79 683 79 683 121.5 789.5 c 128,-1,2
 164 896 164 896 242.5 975.5 c 128,-1,3
 321 1055 321 1055 432.5 1101 c 128,-1,4
 544 1147 544 1147 682 1147 c 0,5,6
 819 1147 819 1147 930 1100.5 c 128,-1,7
 1041 1054 1041 1054 1120 974.5 c 128,-1,8
 1199 895 1199 895 1241.5 787.5 c 128,-1,9
 1284 680 1284 680 1284 559 c 0,10,11
 1284 437 1284 437 1241 330.5 c 128,-1,12
 1198 224 1198 224 1119.5 145 c 128,-1,13
 1041 66 1041 66 930 20 c 128,-1,14
 819 -26 819 -26 684 -26 c 0,15,16
 548 -26 548 -26 436.5 18.5 c 128,-1,17
 325 63 325 63 245.5 141.5 c 128,-1,18
 166 220 166 220 122.5 327.5 c 128,-1,19
 79 435 79 435 79 561 c 0,0,1
291 561 m 256,20,21
 291 464 291 464 315 376.5 c 128,-1,22
 339 289 339 289 387 223 c 128,-1,23
 435 157 435 157 508 118.5 c 128,-1,24
 581 80 581 80 679 80 c 0,25,26
 779 80 779 80 852.5 118.5 c 128,-1,27
 926 157 926 157 974.5 223 c 128,-1,28
 1023 289 1023 289 1047 375.5 c 128,-1,29
 1071 462 1071 462 1071 558 c 0,30,31
 1071 657 1071 657 1046.5 744 c 128,-1,32
 1022 831 1022 831 973.5 896 c 128,-1,33
 925 961 925 961 852.5 998.5 c 128,-1,34
 780 1036 780 1036 684 1036 c 0,35,36
 583 1036 583 1036 509 998 c 128,-1,37
 435 960 435 960 386.5 895 c 128,-1,38
 338 830 338 830 314.5 744 c 128,-1,39
 291 658 291 658 291 561 c 256,20,21
EndSplineSet
EndChar

StartChar: p
Encoding: 112 112 83
Width: 1091
GlyphClass: 2
Flags: W
LayerCount: 2
Fore
SplineSet
52 1033 m 1,0,-1
 52 1120 l 1,1,-1
 493 1120 l 2,2,3
 624 1120 624 1120 720 1102 c 128,-1,4
 816 1084 816 1084 879 1044 c 128,-1,5
 942 1004 942 1004 972.5 939 c 128,-1,6
 1003 874 1003 874 1003 781 c 256,7,8
 1003 688 1003 688 965 618.5 c 128,-1,9
 927 549 927 549 862 503 c 128,-1,10
 797 457 797 457 708.5 435 c 128,-1,11
 620 413 620 413 520 413 c 0,12,13
 503 413 503 413 482 414 c 128,-1,14
 461 415 461 415 442.5 416 c 128,-1,15
 424 417 424 417 409 418 c 128,-1,16
 394 419 394 419 389 420 c 1,17,-1
 389 121 l 2,18,19
 389 112 389 112 398.5 103.5 c 128,-1,20
 408 95 408 95 428 93 c 1,21,22
 459 92 459 92 489.5 90.5 c 128,-1,23
 520 89 520 89 550 87 c 1,24,-1
 550 0 l 1,25,-1
 64 0 l 1,26,-1
 64 87 l 1,27,-1
 162 93 l 2,28,29
 182 95 182 95 192 103.5 c 128,-1,30
 202 112 202 112 202 121 c 2,31,-1
 202 999 l 2,32,33
 202 1008 202 1008 192 1017 c 128,-1,34
 182 1026 182 1026 162 1027 c 0,35,36
 134 1029 134 1029 106.5 1030.5 c 128,-1,37
 79 1032 79 1032 52 1033 c 1,0,-1
389 520 m 1,38,39
 390 520 390 520 395 519.5 c 128,-1,40
 400 519 400 519 406 518 c 0,41,42
 423 516 423 516 448.5 513.5 c 128,-1,43
 474 511 474 511 493 511 c 0,44,45
 497 511 497 511 502 511 c 0,46,47
 570 511 570 511 624 526 c 1,48,49
 683 541 683 541 724.5 574 c 128,-1,50
 766 607 766 607 788.5 658 c 128,-1,51
 811 709 811 709 811 778 c 0,52,53
 811 836 811 836 793 882 c 128,-1,54
 775 928 775 928 735.5 959.5 c 128,-1,55
 696 991 696 991 633.5 1007.5 c 128,-1,56
 571 1024 571 1024 483 1024 c 0,57,58
 470 1024 470 1024 453.5 1023.5 c 128,-1,59
 437 1023 437 1023 423 1023 c 2,60,-1
 389 1023 l 1,61,-1
 389 520 l 1,38,39
EndSplineSet
EndChar

StartChar: q
Encoding: 113 113 84
Width: 1392
GlyphClass: 2
Flags: W
LayerCount: 2
Fore
SplineSet
79 559 m 0,0,1
 79 682 79 682 122 789 c 128,-1,2
 165 896 165 896 244.5 975.5 c 128,-1,3
 324 1055 324 1055 436 1101 c 128,-1,4
 548 1147 548 1147 687 1147 c 0,5,6
 827 1147 827 1147 940.5 1101.5 c 128,-1,7
 1054 1056 1054 1056 1134 976.5 c 128,-1,8
 1214 897 1214 897 1257 790 c 128,-1,9
 1300 683 1300 683 1300 559 c 0,10,11
 1300 449 1300 449 1263.5 352.5 c 128,-1,12
 1227 256 1227 256 1160 180.5 c 128,-1,13
 1093 105 1093 105 998.5 53.5 c 128,-1,14
 904 2 904 2 789 -19 c 1,15,16
 792 -106 792 -106 855 -153.5 c 128,-1,17
 918 -201 918 -201 1045 -201 c 0,18,19
 1109 -201 1109 -201 1155.5 -194 c 128,-1,20
 1202 -187 1202 -187 1219 -184 c 0,21,22
 1220 -184 1220 -184 1221 -183.5 c 128,-1,23
 1222 -183 1222 -183 1223 -183 c 1,24,-1
 1223 -270 l 1,25,26
 1213 -272 1213 -272 1187 -276.5 c 128,-1,27
 1161 -281 1161 -281 1124 -286 c 128,-1,28
 1087 -291 1087 -291 1042 -294.5 c 128,-1,29
 997 -298 997 -298 949 -298 c 0,30,31
 853 -298 853 -298 786 -278.5 c 128,-1,32
 719 -259 719 -259 676 -223 c 128,-1,33
 633 -187 633 -187 613 -136 c 128,-1,34
 593 -85 593 -85 592 -21 c 1,35,36
 484 -6 484 -6 390 41.5 c 128,-1,37
 296 89 296 89 227 163.5 c 128,-1,38
 158 238 158 238 118.5 338 c 128,-1,39
 79 438 79 438 79 559 c 0,0,1
294 563 m 0,40,41
 294 467 294 467 318.5 380 c 128,-1,42
 343 293 343 293 392 226 c 128,-1,43
 441 159 441 159 515.5 119.5 c 128,-1,44
 590 80 590 80 689 80 c 0,45,46
 789 80 789 80 862.5 119 c 128,-1,47
 936 158 936 158 985 224 c 128,-1,48
 1034 290 1034 290 1058 377 c 128,-1,49
 1082 464 1082 464 1082 559 c 0,50,51
 1082 655 1082 655 1058.5 741.5 c 128,-1,52
 1035 828 1035 828 987 894 c 128,-1,53
 939 960 939 960 865 999 c 128,-1,54
 791 1038 791 1038 689 1038 c 0,55,56
 588 1038 588 1038 513.5 1000 c 128,-1,57
 439 962 439 962 390 897 c 128,-1,58
 341 832 341 832 317.5 746 c 128,-1,59
 294 660 294 660 294 563 c 0,40,41
EndSplineSet
EndChar

StartChar: r
Encoding: 114 114 85
Width: 1223
GlyphClass: 2
Flags: W
LayerCount: 2
Fore
SplineSet
66 0 m 1,0,-1
 66 87 l 1,1,-1
 162 93 l 2,2,3
 182 95 182 95 192 103.5 c 128,-1,4
 202 112 202 112 202 121 c 2,5,-1
 202 999 l 2,6,7
 202 1008 202 1008 192 1017 c 128,-1,8
 182 1026 182 1026 162 1027 c 0,9,10
 138 1029 138 1029 114 1030.5 c 128,-1,11
 90 1032 90 1032 66 1033 c 1,12,-1
 66 1120 l 1,13,-1
 547 1120 l 2,14,15
 652 1120 652 1120 736 1104.5 c 128,-1,16
 820 1089 820 1089 878.5 1053.5 c 128,-1,17
 937 1018 937 1018 968.5 960.5 c 128,-1,18
 1000 903 1000 903 1000 820 c 0,19,20
 1000 757 1000 757 978.5 711 c 128,-1,21
 957 665 957 665 920 632 c 128,-1,22
 883 599 883 599 834.5 578 c 128,-1,23
 786 557 786 557 731 544 c 1,24,25
 794 526 794 526 832 497.5 c 128,-1,26
 870 469 870 469 893 434.5 c 128,-1,27
 916 400 916 400 928 361.5 c 128,-1,28
 940 323 940 323 949 285 c 0,29,30
 959 246 959 246 971 209.5 c 128,-1,31
 983 173 983 173 1009 145.5 c 128,-1,32
 1035 118 1035 118 1081 101.5 c 128,-1,33
 1127 85 1127 85 1205 85 c 1,34,-1
 1205 -5 l 1,35,-1
 1181 -11 l 2,36,37
 1164 -16 1164 -16 1138 -21 c 128,-1,38
 1112 -26 1112 -26 1083 -26 c 0,39,40
 1002 -26 1002 -26 950.5 -3.5 c 128,-1,41
 899 19 899 19 867 55.5 c 128,-1,42
 835 92 835 92 816.5 139 c 128,-1,43
 798 186 798 186 783 235 c 0,44,45
 773 267 773 267 762 298.5 c 128,-1,46
 751 330 751 330 735.5 358.5 c 128,-1,47
 720 387 720 387 698.5 411.5 c 128,-1,48
 677 436 677 436 646 454 c 128,-1,49
 615 472 615 472 572 482 c 128,-1,50
 529 492 529 492 472 492 c 0,51,52
 449 492 449 492 428.5 491 c 128,-1,53
 408 490 408 490 397 490 c 0,54,55
 395 490 395 490 393.5 489.5 c 128,-1,56
 392 489 392 489 391 489 c 2,57,-1
 389 489 l 1,58,-1
 389 121 l 2,59,60
 389 112 389 112 398.5 103.5 c 128,-1,61
 408 95 408 95 428 93 c 1,62,63
 452 92 452 92 476 90.5 c 128,-1,64
 500 89 500 89 525 87 c 1,65,-1
 525 0 l 1,66,-1
 66 0 l 1,0,-1
389 589 m 1,67,-1
 406 589 l 1,68,69
 422 588 422 588 444 587.5 c 128,-1,70
 466 587 466 587 480 587 c 0,71,72
 557 587 557 587 616.5 598.5 c 128,-1,73
 676 610 676 610 716.5 636.5 c 128,-1,74
 757 663 757 663 778 706 c 128,-1,75
 799 749 799 749 799 813 c 0,76,77
 799 864 799 864 781 903.5 c 128,-1,78
 763 943 763 943 724 969.5 c 128,-1,79
 685 996 685 996 623 1010 c 128,-1,80
 561 1024 561 1024 474 1024 c 2,81,-1
 389 1024 l 1,82,-1
 389 589 l 1,67,-1
EndSplineSet
EndChar

StartChar: s
Encoding: 115 115 86
Width: 982
GlyphClass: 2
Flags: W
LayerCount: 2
Fore
SplineSet
77 35 m 1,0,-1
 77 343 l 1,1,-1
 192 343 l 1,2,-1
 218 148 l 1,3,4
 220 141 220 141 229.5 132 c 128,-1,5
 239 123 239 123 248 119 c 1,6,-1
 249 118 l 1,7,-1
 250 117 l 2,8,9
 251 117 251 117 253 117 c 0,10,11
 259 114 259 114 274 108.5 c 128,-1,12
 289 103 289 103 311.5 97 c 128,-1,13
 334 91 334 91 365 86.5 c 128,-1,14
 396 82 396 82 435 82 c 0,15,16
 494 82 494 82 544 94.5 c 128,-1,17
 594 107 594 107 630 131 c 128,-1,18
 666 155 666 155 686.5 189.5 c 128,-1,19
 707 224 707 224 707 268 c 0,20,21
 707 309 707 309 681.5 341.5 c 128,-1,22
 656 374 656 374 616 401 c 128,-1,23
 576 428 576 428 527 450 c 128,-1,24
 478 472 478 472 431 492 c 0,25,26
 420 497 420 497 406.5 502.5 c 128,-1,27
 393 508 393 508 382 512 c 0,28,29
 325 536 325 536 273.5 562 c 128,-1,30
 222 588 222 588 182.5 622.5 c 128,-1,31
 143 657 143 657 120 704 c 128,-1,32
 97 751 97 751 97 817 c 0,33,34
 97 892 97 892 129.5 953 c 128,-1,35
 162 1014 162 1014 219 1057 c 128,-1,36
 276 1100 276 1100 354 1123.5 c 128,-1,37
 432 1147 432 1147 523 1147 c 0,38,39
 620 1147 620 1147 696.5 1129.5 c 128,-1,40
 773 1112 773 1112 833 1095 c 1,41,-1
 849 1090 l 1,42,-1
 849 818 l 1,43,-1
 744 818 l 1,44,-1
 716 982 l 2,45,46
 715 987 715 987 707 993.5 c 128,-1,47
 699 1000 699 1000 690 1004 c 0,48,49
 686 1006 686 1006 675 1012 c 128,-1,50
 664 1018 664 1018 644 1024.5 c 128,-1,51
 624 1031 624 1031 595 1036 c 128,-1,52
 566 1041 566 1041 526 1041 c 0,53,54
 470 1041 470 1041 426 1027 c 128,-1,55
 382 1013 382 1013 351 988.5 c 128,-1,56
 320 964 320 964 303.5 930 c 128,-1,57
 287 896 287 896 287 856 c 0,58,59
 287 821 287 821 304.5 791.5 c 128,-1,60
 322 762 322 762 355 736.5 c 128,-1,61
 388 711 388 711 435.5 688.5 c 128,-1,62
 483 666 483 666 544 645 c 0,63,64
 622 618 622 618 687 586 c 128,-1,65
 752 554 752 554 798 515 c 128,-1,66
 844 476 844 476 869.5 427 c 128,-1,67
 895 378 895 378 895 317 c 0,68,69
 895 253 895 253 867.5 191.5 c 128,-1,70
 840 130 840 130 780.5 81.5 c 128,-1,71
 721 33 721 33 628 3.5 c 128,-1,72
 535 -26 535 -26 405 -26 c 0,73,74
 330 -26 330 -26 270 -16.5 c 128,-1,75
 210 -7 210 -7 167 4 c 0,76,77
 117 17 117 17 77 35 c 1,0,-1
EndSplineSet
EndChar

StartChar: t
Encoding: 116 116 87
Width: 1129
GlyphClass: 2
Flags: W
LayerCount: 2
Fore
SplineSet
35 841 m 1,0,-1
 35 1120 l 1,1,-1
 1082 1120 l 1,2,-1
 1082 841 l 1,3,-1
 974 841 l 1,4,-1
 947 1003 l 2,5,6
 945 1012 945 1012 937.5 1018 c 128,-1,7
 930 1024 930 1024 916 1024 c 2,8,-1
 652 1024 l 1,9,-1
 652 121 l 2,10,11
 652 112 652 112 661.5 103.5 c 128,-1,12
 671 95 671 95 691 93 c 1,13,14
 720 92 720 92 750 90.5 c 128,-1,15
 780 89 780 89 809 87 c 1,16,-1
 809 0 l 1,17,-1
 308 0 l 1,18,-1
 308 87 l 1,19,-1
 427 93 l 2,20,21
 447 95 447 95 456.5 103.5 c 128,-1,22
 466 112 466 112 466 121 c 2,23,-1
 466 1024 l 1,24,-1
 200 1024 l 2,25,26
 186 1024 186 1024 177 1018.5 c 128,-1,27
 168 1013 168 1013 168 1003 c 1,28,-1
 142 841 l 1,29,-1
 35 841 l 1,0,-1
EndSplineSet
EndChar

StartChar: u
Encoding: 117 117 88
Width: 1341
GlyphClass: 2
Flags: W
LayerCount: 2
Fore
SplineSet
63 1033 m 1,0,-1
 63 1120 l 1,1,-1
 534 1120 l 1,2,-1
 534 1033 l 1,3,-1
 428 1027 l 2,4,5
 408 1026 408 1026 398.5 1017 c 128,-1,6
 389 1008 389 1008 389 999 c 2,7,-1
 389 417 l 2,8,9
 389 346 389 346 401.5 287.5 c 128,-1,10
 414 229 414 229 448.5 187.5 c 128,-1,11
 483 146 483 146 544 123 c 128,-1,12
 605 100 605 100 701 100 c 256,13,14
 797 100 797 100 858 124.5 c 128,-1,15
 919 149 919 149 954.5 191.5 c 128,-1,16
 990 234 990 234 1003.5 292 c 128,-1,17
 1017 350 1017 350 1017 417 c 2,18,-1
 1017 999 l 2,19,20
 1017 1008 1017 1008 1006.5 1017 c 128,-1,21
 996 1026 996 1026 976 1027 c 0,22,23
 950 1029 950 1029 923 1030.5 c 128,-1,24
 896 1032 896 1032 870 1033 c 1,25,-1
 870 1120 l 1,26,-1
 1271 1120 l 1,27,-1
 1271 1033 l 1,28,-1
 1165 1027 l 2,29,30
 1145 1026 1145 1026 1135.5 1017 c 128,-1,31
 1126 1008 1126 1008 1126 999 c 2,32,-1
 1126 374 l 2,33,34
 1126 167 1126 167 1004.5 70.5 c 128,-1,35
 883 -26 883 -26 651 -26 c 0,36,37
 422 -26 422 -26 311.5 74 c 128,-1,38
 201 174 201 174 201 374 c 2,39,-1
 201 999 l 2,40,41
 201 1008 201 1008 191.5 1017 c 128,-1,42
 182 1026 182 1026 162 1027 c 0,43,44
 138 1029 138 1029 113 1030.5 c 128,-1,45
 88 1032 88 1032 63 1033 c 1,0,-1
EndSplineSet
EndChar

StartChar: v
Encoding: 118 118 89
Width: 1255
GlyphClass: 2
Flags: W
LayerCount: 2
Fore
SplineSet
24 1033 m 1,0,-1
 24 1120 l 1,1,-1
 466 1120 l 1,2,-1
 466 1033 l 1,3,-1
 357 1026 l 1,4,5
 350 1024 350 1024 344.5 1017.5 c 128,-1,6
 339 1011 339 1011 340 1006 c 0,7,8
 421 805 421 805 502.5 600 c 128,-1,9
 584 395 584 395 665 193 c 1,10,11
 741 392 741 392 821.5 598.5 c 128,-1,12
 902 805 902 805 977 1003 c 0,13,14
 980 1010 980 1010 971.5 1017 c 128,-1,15
 963 1024 963 1024 952 1026 c 1,16,-1
 850 1033 l 1,17,-1
 850 1120 l 1,18,-1
 1217 1120 l 1,19,-1
 1217 1033 l 1,20,-1
 1110 1016 l 1,21,-1
 1110 1022 l 1,22,-1
 696 -26 l 1,23,-1
 559 -26 l 1,24,-1
 133 1023 l 1,25,-1
 133 1018 l 1,26,27
 107 1022 107 1022 79.5 1026 c 128,-1,28
 52 1030 52 1030 24 1033 c 1,0,-1
EndSplineSet
EndChar

StartChar: w
Encoding: 119 119 90
Width: 1754
GlyphClass: 2
Flags: W
LayerCount: 2
Fore
SplineSet
27 1033 m 1,0,-1
 27 1120 l 1,1,-1
 450 1120 l 1,2,-1
 450 1033 l 1,3,-1
 339 1024 l 1,4,5
 328 1022 328 1022 323.5 1015 c 128,-1,6
 319 1008 319 1008 321 1000 c 1,7,-1
 321 1001 l 1,8,-1
 541 259 l 1,9,-1
 832 1120 l 1,10,-1
 971 1120 l 1,11,-1
 1271 232 l 1,12,-1
 1271 231 l 1,13,14
 1322 425 1322 425 1373 616.5 c 128,-1,15
 1424 808 1424 808 1475 1000 c 1,16,17
 1475 1008 1475 1008 1468 1015.5 c 128,-1,18
 1461 1023 1461 1023 1449 1024 c 2,19,-1
 1332 1033 l 1,20,-1
 1332 1120 l 1,21,-1
 1709 1120 l 1,22,-1
 1709 1033 l 1,23,-1
 1596 1014 l 1,24,-1
 1596 1021 l 1,25,-1
 1313 -26 l 1,26,-1
 1181 -26 l 1,27,-1
 870 891 l 1,28,-1
 567 -26 l 1,29,-1
 437 -26 l 1,30,-1
 134 1021 l 1,31,-1
 134 1014 l 1,32,-1
 27 1033 l 1,0,-1
EndSplineSet
EndChar

StartChar: x
Encoding: 120 120 91
Width: 1194
GlyphClass: 2
Flags: W
LayerCount: 2
Fore
SplineSet
24 0 m 1,0,-1
 24 87 l 1,1,-1
 135 107 l 1,2,-1
 135 103 l 1,3,-1
 503 553 l 1,4,-1
 170 1018 l 1,5,-1
 170 1014 l 1,6,-1
 49 1033 l 1,7,-1
 49 1120 l 1,8,-1
 512 1120 l 1,9,-1
 512 1033 l 1,10,-1
 418 1026 l 2,11,12
 401 1025 401 1025 396.5 1018 c 128,-1,13
 392 1011 392 1011 396 1004 c 2,14,-1
 621 695 l 1,15,-1
 621 696 l 1,16,-1
 869 1000 l 2,17,18
 876 1008 876 1008 868.5 1014.5 c 128,-1,19
 861 1021 861 1021 850 1023 c 2,20,-1
 755 1033 l 1,21,-1
 755 1120 l 1,22,-1
 1142 1120 l 1,23,-1
 1142 1033 l 1,24,-1
 1023 1018 l 1,25,-1
 1023 1021 l 1,26,-1
 684 604 l 1,27,-1
 1044 102 l 1,28,-1
 1044 107 l 1,29,-1
 1158 87 l 1,30,-1
 1158 0 l 1,31,-1
 684 0 l 1,32,-1
 684 87 l 1,33,-1
 790 97 l 2,34,35
 801 98 801 98 809.5 104.5 c 128,-1,36
 818 111 818 111 813 119 c 2,37,-1
 568 463 l 1,38,-1
 568 462 l 1,39,-1
 282 113 l 2,40,41
 279 108 279 108 283.5 102 c 128,-1,42
 288 96 288 96 305 95 c 2,43,-1
 416 87 l 1,44,-1
 416 0 l 1,45,-1
 24 0 l 1,0,-1
EndSplineSet
EndChar

StartChar: y
Encoding: 121 121 92
Width: 1179
GlyphClass: 2
Flags: W
LayerCount: 2
Fore
SplineSet
24 1033 m 1,0,-1
 24 1120 l 1,1,-1
 462 1120 l 1,2,-1
 462 1033 l 1,3,-1
 369 1026 l 2,4,5
 351 1024 351 1024 347.5 1017 c 128,-1,6
 344 1010 344 1010 348 1004 c 2,7,-1
 608 575 l 1,8,-1
 894 1000 l 2,9,10
 899 1008 899 1008 891 1014.5 c 128,-1,11
 883 1021 883 1021 872 1023 c 2,12,-1
 769 1033 l 1,13,-1
 769 1120 l 1,14,-1
 1144 1120 l 1,15,-1
 1144 1033 l 1,16,-1
 1044 1018 l 1,17,-1
 1044 1022 l 1,18,-1
 673 473 l 1,19,-1
 673 121 l 2,20,21
 673 112 673 112 682 103.5 c 128,-1,22
 691 95 691 95 711 93 c 1,23,24
 740 92 740 92 770 90.5 c 128,-1,25
 800 89 800 89 829 87 c 1,26,-1
 829 0 l 1,27,-1
 330 0 l 1,28,-1
 330 87 l 1,29,-1
 445 93 l 2,30,31
 465 95 465 95 475.5 103.5 c 128,-1,32
 486 112 486 112 486 121 c 2,33,-1
 486 449 l 1,34,-1
 132 1018 l 1,35,-1
 132 1014 l 1,36,-1
 24 1033 l 1,0,-1
EndSplineSet
EndChar

StartChar: z
Encoding: 122 122 93
Width: 1084
GlyphClass: 2
Flags: W
LayerCount: 2
Fore
SplineSet
77 0 m 1,0,-1
 77 84 l 1,1,-1
 755 1023 l 1,2,-1
 284 1023 l 2,3,4
 272 1023 272 1023 264 1016 c 128,-1,5
 256 1009 256 1009 252 1000 c 1,6,-1
 224 841 l 1,7,-1
 116 841 l 1,8,-1
 116 1120 l 1,9,-1
 985 1120 l 1,10,-1
 985 1032 l 1,11,-1
 306 100 l 1,12,-1
 823 100 l 2,13,14
 850 100 850 100 855 122 c 1,15,16
 863 168 863 168 872 222 c 128,-1,17
 881 276 881 276 887 321 c 1,18,-1
 995 321 l 1,19,-1
 995 0 l 1,20,-1
 77 0 l 1,0,-1
EndSplineSet
EndChar

StartChar: braceleft
Encoding: 123 123 94
Width: 999
GlyphClass: 2
Flags: W
LayerCount: 2
Fore
SplineSet
123 549 m 1,0,-1
 123 641 l 1,1,2
 168 641 168 641 203.5 643 c 128,-1,3
 239 645 239 645 267.5 651 c 128,-1,4
 296 657 296 657 319 667.5 c 128,-1,5
 342 678 342 678 360 696 c 0,6,7
 384 719 384 719 396 755 c 128,-1,8
 408 791 408 791 413 831 c 128,-1,9
 418 871 418 871 418 912 c 2,10,-1
 418 1087 l 2,11,12
 418 1137 418 1137 425.5 1183.5 c 128,-1,13
 433 1230 433 1230 450 1273 c 128,-1,14
 467 1316 467 1316 502 1352 c 0,15,16
 527 1379 527 1379 565.5 1396 c 128,-1,17
 604 1413 604 1413 651 1423.5 c 128,-1,18
 698 1434 698 1434 751 1438 c 128,-1,19
 804 1442 804 1442 858 1442 c 1,20,-1
 858 1358 l 1,21,22
 845 1358 845 1358 818 1356 c 128,-1,23
 791 1354 791 1354 759.5 1348 c 128,-1,24
 728 1342 728 1342 698 1329.5 c 128,-1,25
 668 1317 668 1317 649 1296 c 0,26,27
 628 1273 628 1273 617.5 1239 c 128,-1,28
 607 1205 607 1205 603 1164.5 c 128,-1,29
 599 1124 599 1124 599.5 1080 c 128,-1,30
 600 1036 600 1036 600 993 c 0,31,32
 600 958 600 958 598.5 919.5 c 128,-1,33
 597 881 597 881 591 843.5 c 128,-1,34
 585 806 585 806 573.5 772.5 c 128,-1,35
 562 739 562 739 541 713 c 0,36,37
 500 660 500 660 443.5 635 c 128,-1,38
 387 610 387 610 324 596 c 1,39,40
 387 582 387 582 443.5 556 c 128,-1,41
 500 530 500 530 541 477 c 0,42,43
 562 451 562 451 573.5 417.5 c 128,-1,44
 585 384 585 384 591 346.5 c 128,-1,45
 597 309 597 309 598.5 270.5 c 128,-1,46
 600 232 600 232 600 197 c 0,47,48
 600 154 600 154 599.5 110 c 128,-1,49
 599 66 599 66 603 25.5 c 128,-1,50
 607 -15 607 -15 617.5 -49 c 128,-1,51
 628 -83 628 -83 649 -106 c 0,52,53
 668 -127 668 -127 698 -139.5 c 128,-1,54
 728 -152 728 -152 759.5 -158 c 128,-1,55
 791 -164 791 -164 818 -166 c 128,-1,56
 845 -168 845 -168 858 -168 c 1,57,-1
 858 -252 l 1,58,59
 804 -252 804 -252 751 -248 c 128,-1,60
 698 -244 698 -244 651 -233.5 c 128,-1,61
 604 -223 604 -223 565.5 -206 c 128,-1,62
 527 -189 527 -189 502 -162 c 0,63,64
 467 -126 467 -126 450 -83.5 c 128,-1,65
 433 -41 433 -41 425.5 6 c 128,-1,66
 418 53 418 53 418 102 c 2,67,-1
 418 278 l 2,68,69
 418 319 418 319 413 359 c 128,-1,70
 408 399 408 399 396 435 c 128,-1,71
 384 471 384 471 360 494 c 0,72,73
 342 512 342 512 319 522.5 c 128,-1,74
 296 533 296 533 267.5 539 c 128,-1,75
 239 545 239 545 203.5 547 c 128,-1,76
 168 549 168 549 123 549 c 1,0,-1
EndSplineSet
EndChar

StartChar: bar
Encoding: 124 124 95
Width: 724
GlyphClass: 2
Flags: W
LayerCount: 2
Fore
SplineSet
300 -528 m 1,0,-1
 300 1630 l 1,1,-1
 424 1630 l 1,2,-1
 424 -528 l 1,3,-1
 300 -528 l 1,0,-1
EndSplineSet
EndChar

StartChar: braceright
Encoding: 125 125 96
Width: 999
GlyphClass: 2
Flags: W
LayerCount: 2
Fore
SplineSet
141 -168 m 1,0,1
 154 -168 154 -168 181 -166 c 128,-1,2
 208 -164 208 -164 239.5 -158 c 128,-1,3
 271 -152 271 -152 301 -139.5 c 128,-1,4
 331 -127 331 -127 350 -106 c 0,5,6
 372 -83 372 -83 382 -49 c 128,-1,7
 392 -15 392 -15 396 25.5 c 128,-1,8
 400 66 400 66 399.5 110 c 128,-1,9
 399 154 399 154 399 197 c 0,10,11
 399 232 399 232 400.5 270.5 c 128,-1,12
 402 309 402 309 408 346.5 c 128,-1,13
 414 384 414 384 426 417.5 c 128,-1,14
 438 451 438 451 459 477 c 1,15,16
 499 530 499 530 556 556 c 128,-1,17
 613 582 613 582 676 596 c 1,18,19
 644 603 644 603 614 612 c 128,-1,20
 584 621 584 621 556 635 c 128,-1,21
 528 649 528 649 503.5 668 c 128,-1,22
 479 687 479 687 459 713 c 0,23,24
 438 739 438 739 426 772.5 c 128,-1,25
 414 806 414 806 408 843.5 c 128,-1,26
 402 881 402 881 400.5 919.5 c 128,-1,27
 399 958 399 958 399 993 c 0,28,29
 399 1036 399 1036 399.5 1080 c 128,-1,30
 400 1124 400 1124 396 1164.5 c 128,-1,31
 392 1205 392 1205 382 1239 c 128,-1,32
 372 1273 372 1273 350 1296 c 0,33,34
 331 1317 331 1317 301 1329.5 c 128,-1,35
 271 1342 271 1342 239.5 1348 c 128,-1,36
 208 1354 208 1354 181 1356 c 128,-1,37
 154 1358 154 1358 141 1358 c 1,38,-1
 141 1442 l 1,39,40
 196 1442 196 1442 249 1438 c 128,-1,41
 302 1434 302 1434 349 1423.5 c 128,-1,42
 396 1413 396 1413 434 1396 c 128,-1,43
 472 1379 472 1379 498 1352 c 0,44,45
 532 1316 532 1316 549.5 1273 c 128,-1,46
 567 1230 567 1230 574.5 1183.5 c 128,-1,47
 582 1137 582 1137 582 1087 c 2,48,-1
 582 912 l 2,49,50
 582 871 582 871 586.5 831 c 128,-1,51
 591 791 591 791 603 755 c 128,-1,52
 615 719 615 719 639 696 c 0,53,54
 676 661 676 661 732 651 c 128,-1,55
 788 641 788 641 877 641 c 1,56,-1
 877 549 l 1,57,58
 788 549 788 549 732 539 c 128,-1,59
 676 529 676 529 639 494 c 0,60,61
 615 471 615 471 603 435 c 128,-1,62
 591 399 591 399 586.5 359 c 128,-1,63
 582 319 582 319 582 278 c 2,64,-1
 582 102 l 2,65,66
 582 53 582 53 574.5 6 c 128,-1,67
 567 -41 567 -41 549.5 -83.5 c 128,-1,68
 532 -126 532 -126 498 -162 c 0,69,70
 472 -189 472 -189 434 -206 c 128,-1,71
 396 -223 396 -223 349 -233.5 c 128,-1,72
 302 -244 302 -244 249 -248 c 128,-1,73
 196 -252 196 -252 141 -252 c 1,74,-1
 141 -168 l 1,0,1
EndSplineSet
EndChar

StartChar: asciitilde
Encoding: 126 126 97
Width: 1706
GlyphClass: 2
Flags: W
LayerCount: 2
Fore
SplineSet
176 461 m 1,0,-1
 176 594 l 1,1,2
 286 672 286 672 384 705.5 c 128,-1,3
 482 739 482 739 565 739 c 0,4,5
 640 739 640 739 715 717.5 c 128,-1,6
 790 696 790 696 864 670.5 c 128,-1,7
 938 645 938 645 1009 623.5 c 128,-1,8
 1080 602 1080 602 1147 602 c 0,9,10
 1220 602 1220 602 1313.5 636.5 c 128,-1,11
 1407 671 1407 671 1530 760 c 1,12,-1
 1530 627 l 1,13,14
 1471 586 1471 586 1420 558.5 c 128,-1,15
 1369 531 1369 531 1322.5 514 c 128,-1,16
 1276 497 1276 497 1232.5 490 c 128,-1,17
 1189 483 1189 483 1145 483 c 0,18,19
 1072 483 1072 483 1000 504.5 c 128,-1,20
 928 526 928 526 855 552 c 128,-1,21
 782 578 782 578 707 599.5 c 128,-1,22
 632 621 632 621 553 621 c 0,23,24
 475 621 475 621 377 578.5 c 128,-1,25
 279 536 279 536 176 461 c 1,0,-1
EndSplineSet
EndChar

StartChar: exclamdown
Encoding: 161 161 99
Width: 692
GlyphClass: 2
Flags: W
LayerCount: 2
Fore
SplineSet
219 885 m 256,0,1
 219 911 219 911 229 934 c 128,-1,2
 239 957 239 957 256 974.5 c 128,-1,3
 273 992 273 992 296.5 1002 c 128,-1,4
 320 1012 320 1012 346 1012 c 256,5,6
 372 1012 372 1012 395 1002 c 128,-1,7
 418 992 418 992 435 974.5 c 128,-1,8
 452 957 452 957 461.5 934 c 128,-1,9
 471 911 471 911 471 885 c 256,10,11
 471 859 471 859 461.5 836 c 128,-1,12
 452 813 452 813 435 796 c 128,-1,13
 418 779 418 779 395 769.5 c 128,-1,14
 372 760 372 760 346 760 c 256,15,16
 320 760 320 760 296.5 769.5 c 128,-1,17
 273 779 273 779 256 796 c 128,-1,18
 239 813 239 813 229 836 c 128,-1,19
 219 859 219 859 219 885 c 256,0,1
221 -262 m 2,20,-1
 297 617 l 1,21,-1
 395 617 l 1,22,-1
 469 -262 l 2,23,24
 473 -306 473 -306 465.5 -336 c 128,-1,25
 458 -366 458 -366 441.5 -385 c 128,-1,26
 425 -404 425 -404 400.5 -412 c 128,-1,27
 376 -420 376 -420 346 -420 c 256,28,29
 316 -420 316 -420 291.5 -412 c 128,-1,30
 267 -404 267 -404 250 -385 c 128,-1,31
 233 -366 233 -366 225 -336 c 128,-1,32
 217 -306 217 -306 221 -262 c 2,20,-1
EndSplineSet
EndChar

StartChar: cent
Encoding: 162 162 100
Width: 1153
GlyphClass: 2
Flags: W
LayerCount: 2
Fore
SplineSet
156 516 m 0,0,1
 156 618 156 618 188.5 705.5 c 128,-1,2
 221 793 221 793 279.5 860 c 128,-1,3
 338 927 338 927 420.5 970.5 c 128,-1,4
 503 1014 503 1014 604 1028 c 1,5,-1
 604 1237 l 1,6,-1
 702 1237 l 1,7,-1
 702 1036 l 1,8,9
 741 1036 741 1036 777 1033 c 128,-1,10
 813 1030 813 1030 848.5 1023.5 c 128,-1,11
 884 1017 884 1017 920.5 1007.5 c 128,-1,12
 957 998 957 998 997 985 c 1,13,-1
 997 684 l 1,14,-1
 899 684 l 1,15,-1
 870 862 l 2,16,17
 867 875 867 875 862.5 887.5 c 128,-1,18
 858 900 858 900 846 905 c 1,19,20
 835 911 835 911 823 916.5 c 128,-1,21
 811 922 811 922 794.5 926 c 128,-1,22
 778 930 778 930 755.5 932.5 c 128,-1,23
 733 935 733 935 702 936 c 1,24,-1
 702 98 l 1,25,26
 734 99 734 99 760.5 103.5 c 128,-1,27
 787 108 787 108 806 113 c 0,28,29
 828 119 828 119 846 127 c 0,30,31
 855 132 855 132 861 142 c 128,-1,32
 867 152 867 152 870 160 c 1,33,-1
 897 356 l 1,34,-1
 997 356 l 1,35,-1
 997 47 l 1,36,37
 995 45 995 45 975.5 37 c 128,-1,38
 956 29 956 29 919.5 21 c 128,-1,39
 883 13 883 13 828.5 6.5 c 128,-1,40
 774 0 774 0 702 0 c 1,41,-1
 702 -203 l 1,42,-1
 604 -203 l 1,43,-1
 604 4 l 1,44,45
 500 16 500 16 417 58 c 128,-1,46
 334 100 334 100 276 167 c 128,-1,47
 218 234 218 234 187 323 c 128,-1,48
 156 412 156 412 156 516 c 0,0,1
352 522 m 0,49,50
 352 431 352 431 372 359 c 128,-1,51
 392 287 392 287 426.5 234.5 c 128,-1,52
 461 182 461 182 507 149 c 128,-1,53
 553 116 553 116 604 104 c 1,54,-1
 604 930 l 1,55,56
 564 921 564 921 520 892 c 128,-1,57
 476 863 476 863 438.5 813 c 128,-1,58
 401 763 401 763 376.5 691 c 128,-1,59
 352 619 352 619 352 522 c 0,49,50
EndSplineSet
EndChar

StartChar: sterling
Encoding: 163 163 101
Width: 1153
GlyphClass: 2
Flags: W
LayerCount: 2
Fore
SplineSet
88 0 m 1,0,-1
 88 125 l 1,1,2
 151 141 151 141 194 174.5 c 128,-1,3
 237 208 237 208 263 258.5 c 128,-1,4
 289 309 289 309 300.5 375.5 c 128,-1,5
 312 442 312 442 311 524 c 1,6,7
 313 527 313 527 312.5 550.5 c 128,-1,8
 312 574 312 574 311 602 c 2,9,-1
 309 674 l 1,10,-1
 166 674 l 1,11,-1
 166 774 l 1,12,-1
 307 774 l 1,13,14
 306 821 306 821 306 864 c 1,15,16
 305 901 305 901 305 938 c 2,17,-1
 305 999 l 2,18,19
 305 1105 305 1105 331 1198 c 128,-1,20
 357 1291 357 1291 411 1360 c 128,-1,21
 465 1429 465 1429 547 1469 c 128,-1,22
 629 1509 629 1509 741 1509 c 0,23,24
 789 1509 789 1509 845.5 1497.5 c 128,-1,25
 902 1486 902 1486 950.5 1460 c 128,-1,26
 999 1434 999 1434 1032 1392.5 c 128,-1,27
 1065 1351 1065 1351 1065 1292 c 0,28,29
 1065 1267 1065 1267 1054.5 1245.5 c 128,-1,30
 1044 1224 1044 1224 1026.5 1208.5 c 128,-1,31
 1009 1193 1009 1193 986 1184.5 c 128,-1,32
 963 1176 963 1176 938 1176 c 0,33,34
 915 1176 915 1176 890 1181 c 0,35,36
 877 1183 877 1183 864 1186 c 1,37,-1
 864 1391 l 1,38,39
 849 1395 849 1395 833 1399 c 0,40,41
 819 1402 819 1402 803 1404.5 c 128,-1,42
 787 1407 787 1407 772 1407 c 0,43,44
 713 1407 713 1407 669.5 1390 c 128,-1,45
 626 1373 626 1373 595.5 1343.5 c 128,-1,46
 565 1314 565 1314 546 1274 c 128,-1,47
 527 1234 527 1234 516.5 1189 c 128,-1,48
 506 1144 506 1144 502 1096 c 128,-1,49
 498 1048 498 1048 498 1001 c 0,50,51
 498 967 498 967 498.5 927.5 c 128,-1,52
 499 888 499 888 500 854 c 2,53,-1
 502 774 l 1,54,-1
 883 774 l 1,55,-1
 883 674 l 1,56,-1
 502 674 l 1,57,58
 502 576 502 576 493.5 499 c 128,-1,59
 485 422 485 422 461 360.5 c 128,-1,60
 437 299 437 299 394.5 249 c 128,-1,61
 352 199 352 199 285 156 c 1,62,63
 322 159 322 159 355 162 c 2,64,-1
 411 166 l 2,65,66
 439 168 439 168 455 168 c 2,67,-1
 1061 168 l 1,68,-1
 1061 0 l 1,69,-1
 88 0 l 1,0,-1
EndSplineSet
EndChar

StartChar: currency
Encoding: 164 164 102
Width: 1249
GlyphClass: 2
Flags: W
LayerCount: 2
Fore
SplineSet
82 401 m 1,0,-1
 293 612 l 1,1,2
 248 668 248 668 225.5 735 c 128,-1,3
 203 802 203 802 203 874 c 0,4,5
 203 910 203 910 208.5 946.5 c 128,-1,6
 214 983 214 983 225.5 1018 c 128,-1,7
 237 1053 237 1053 254.5 1085.5 c 128,-1,8
 272 1118 272 1118 297 1145 c 1,9,-1
 82 1360 l 1,10,-1
 156 1434 l 1,11,-1
 371 1219 l 1,12,13
 426 1264 426 1264 496.5 1286.5 c 128,-1,14
 567 1309 567 1309 639 1309 c 0,15,16
 710 1309 710 1309 777 1285.5 c 128,-1,17
 844 1262 844 1262 897 1217 c 1,18,-1
 1114 1434 l 1,19,-1
 1188 1360 l 1,20,-1
 975 1147 l 1,21,22
 1018 1093 1018 1093 1042.5 1021 c 128,-1,23
 1067 949 1067 949 1067 877 c 0,24,25
 1067 804 1067 804 1045 736 c 128,-1,26
 1023 668 1023 668 977 612 c 1,27,-1
 1188 401 l 1,28,-1
 1114 328 l 1,29,-1
 903 539 l 1,30,31
 847 491 847 491 778.5 466.5 c 128,-1,32
 710 442 710 442 639 442 c 0,33,34
 562 442 562 442 493 465.5 c 128,-1,35
 424 489 424 489 367 539 c 1,36,-1
 156 328 l 1,37,-1
 82 401 l 1,0,-1
319 874 m 0,38,39
 319 808 319 808 344 750.5 c 128,-1,40
 369 693 369 693 412.5 650.5 c 128,-1,41
 456 608 456 608 514.5 583.5 c 128,-1,42
 573 559 573 559 639 559 c 0,43,44
 704 559 704 559 761 584.5 c 128,-1,45
 818 610 818 610 860 653.5 c 128,-1,46
 902 697 902 697 926 754.5 c 128,-1,47
 950 812 950 812 950 877 c 0,48,49
 950 941 950 941 925.5 998 c 128,-1,50
 901 1055 901 1055 859 1098 c 128,-1,51
 817 1141 817 1141 760 1166.5 c 128,-1,52
 703 1192 703 1192 639 1192 c 0,53,54
 572 1192 572 1192 514 1167.5 c 128,-1,55
 456 1143 456 1143 412.5 1100 c 128,-1,56
 369 1057 369 1057 344 999 c 128,-1,57
 319 941 319 941 319 874 c 0,38,39
EndSplineSet
EndChar

StartChar: yen
Encoding: 165 165 103
Width: 1221
GlyphClass: 2
Flags: W
LayerCount: 2
Fore
SplineSet
20 1288 m 1,0,-1
 20 1374 l 1,1,-1
 479 1374 l 1,2,-1
 479 1288 l 1,3,-1
 391 1274 l 2,4,5
 374 1271 374 1271 366.5 1257.5 c 128,-1,6
 359 1244 359 1244 367 1229 c 2,7,-1
 637 700 l 1,8,-1
 934 1227 l 2,9,10
 937 1231 937 1231 938.5 1238 c 128,-1,11
 940 1245 940 1245 937.5 1251.5 c 128,-1,12
 935 1258 935 1258 928 1264 c 128,-1,13
 921 1270 921 1270 907 1272 c 2,14,-1
 809 1288 l 1,15,-1
 809 1374 l 1,16,-1
 1200 1374 l 1,17,-1
 1200 1288 l 1,18,-1
 1085 1262 l 1,19,-1
 866 874 l 1,20,-1
 1155 874 l 1,21,-1
 1155 784 l 1,22,-1
 815 784 l 1,23,-1
 696 575 l 1,24,-1
 1155 575 l 1,25,-1
 1155 485 l 1,26,-1
 698 485 l 1,27,-1
 698 141 l 2,28,29
 698 130 698 130 711 114 c 128,-1,30
 724 98 724 98 752 96 c 2,31,-1
 870 86 l 1,32,-1
 870 0 l 1,33,-1
 336 0 l 1,34,-1
 336 86 l 1,35,-1
 457 96 l 2,36,37
 485 98 485 98 496.5 114 c 128,-1,38
 508 130 508 130 508 141 c 2,39,-1
 508 485 l 1,40,-1
 66 485 l 1,41,-1
 66 575 l 1,42,-1
 504 575 l 1,43,-1
 393 784 l 1,44,-1
 66 784 l 1,45,-1
 66 874 l 1,46,-1
 344 874 l 1,47,-1
 141 1264 l 1,48,-1
 20 1288 l 1,0,-1
EndSplineSet
EndChar

StartChar: brokenbar
Encoding: 166 166 104
Width: 707
GlyphClass: 2
Flags: W
LayerCount: 2
Fore
SplineSet
301 -406 m 1,0,-1
 301 414 l 1,1,-1
 406 414 l 1,2,-1
 406 -406 l 1,3,-1
 301 -406 l 1,0,-1
301 688 m 1,4,-1
 301 1507 l 1,5,-1
 406 1507 l 1,6,-1
 406 688 l 1,7,-1
 301 688 l 1,4,-1
EndSplineSet
EndChar

StartChar: section
Encoding: 167 167 105
Width: 1024
GlyphClass: 2
Flags: W
LayerCount: 2
Fore
SplineSet
121 625 m 0,0,1
 121 693 121 693 140 743 c 128,-1,2
 159 793 159 793 191.5 830.5 c 128,-1,3
 224 868 224 868 268 895.5 c 128,-1,4
 312 923 312 923 362 946 c 1,5,6
 316 969 316 969 278.5 996 c 128,-1,7
 241 1023 241 1023 214 1055 c 128,-1,8
 187 1087 187 1087 172.5 1125 c 128,-1,9
 158 1163 158 1163 158 1208 c 0,10,11
 158 1278 158 1278 182.5 1334 c 128,-1,12
 207 1390 207 1390 256.5 1429 c 128,-1,13
 306 1468 306 1468 380.5 1488.5 c 128,-1,14
 455 1509 455 1509 555 1509 c 0,15,16
 600 1509 600 1509 644 1504 c 128,-1,17
 688 1499 688 1499 726.5 1491.5 c 128,-1,18
 765 1484 765 1484 795 1475.5 c 128,-1,19
 825 1467 825 1467 840 1460 c 1,20,-1
 840 1194 l 1,21,-1
 743 1194 l 1,22,-1
 723 1360 l 1,23,24
 706 1369 706 1369 685.5 1379.5 c 128,-1,25
 665 1390 665 1390 640.5 1398.5 c 128,-1,26
 616 1407 616 1407 588.5 1413 c 128,-1,27
 561 1419 561 1419 530 1419 c 0,28,29
 484 1419 484 1419 446.5 1406 c 128,-1,30
 409 1393 409 1393 382 1370 c 128,-1,31
 355 1347 355 1347 340.5 1315.5 c 128,-1,32
 326 1284 326 1284 326 1247 c 0,33,34
 326 1208 326 1208 351 1177 c 128,-1,35
 376 1146 376 1146 416.5 1119 c 128,-1,36
 457 1092 457 1092 508.5 1066 c 128,-1,37
 560 1040 560 1040 614.5 1012 c 128,-1,38
 669 984 669 984 720.5 951.5 c 128,-1,39
 772 919 772 919 812.5 878 c 128,-1,40
 853 837 853 837 878 785 c 128,-1,41
 903 733 903 733 903 666 c 0,42,43
 903 606 903 606 882 553.5 c 128,-1,44
 861 501 861 501 826 458.5 c 128,-1,45
 791 416 791 416 746.5 384 c 128,-1,46
 702 352 702 352 655 334 c 1,47,48
 700 313 700 313 738.5 287 c 128,-1,49
 777 261 777 261 805.5 227.5 c 128,-1,50
 834 194 834 194 850 153 c 128,-1,51
 866 112 866 112 866 63 c 0,52,53
 866 -6 866 -6 837.5 -63.5 c 128,-1,54
 809 -121 809 -121 758.5 -162.5 c 128,-1,55
 708 -204 708 -204 638 -227 c 128,-1,56
 568 -250 568 -250 485 -250 c 0,57,58
 432 -250 432 -250 383.5 -243 c 128,-1,59
 335 -236 335 -236 294 -225.5 c 128,-1,60
 253 -215 253 -215 221 -204 c 128,-1,61
 189 -193 189 -193 170 -184 c 1,62,-1
 170 84 l 1,63,-1
 272 84 l 1,64,65
 275 65 275 65 277 54 c 128,-1,66
 279 43 279 43 280.5 34.5 c 128,-1,67
 282 26 282 26 283.5 17 c 128,-1,68
 285 8 285 8 287.5 -6 c 128,-1,69
 290 -20 290 -20 293 -42 c 128,-1,70
 296 -64 296 -64 301 -100 c 1,71,72
 319 -112 319 -112 343 -122 c 128,-1,73
 367 -132 367 -132 393 -139 c 128,-1,74
 419 -146 419 -146 445 -150 c 128,-1,75
 471 -154 471 -154 494 -154 c 0,76,77
 539 -154 539 -154 577.5 -142.5 c 128,-1,78
 616 -131 616 -131 644.5 -109.5 c 128,-1,79
 673 -88 673 -88 689 -57 c 128,-1,80
 705 -26 705 -26 705 12 c 0,81,82
 705 57 705 57 680 91.5 c 128,-1,83
 655 126 655 126 614 155 c 128,-1,84
 573 184 573 184 520.5 210.5 c 128,-1,85
 468 237 468 237 413 265 c 128,-1,86
 358 293 358 293 305.5 326 c 128,-1,87
 253 359 253 359 212 401.5 c 128,-1,88
 171 444 171 444 146 498.5 c 128,-1,89
 121 553 121 553 121 625 c 0,0,1
276 672 m 0,90,91
 276 625 276 625 294 586 c 128,-1,92
 312 547 312 547 348.5 512 c 128,-1,93
 385 477 385 477 440.5 443.5 c 128,-1,94
 496 410 496 410 571 375 c 1,95,96
 593 387 593 387 623 410.5 c 128,-1,97
 653 434 653 434 679.5 466 c 128,-1,98
 706 498 706 498 724.5 536 c 128,-1,99
 743 574 743 574 743 614 c 0,100,101
 743 707 743 707 669 777 c 128,-1,102
 595 847 595 847 461 903 c 1,103,104
 414 887 414 887 379.5 861.5 c 128,-1,105
 345 836 345 836 322 805 c 128,-1,106
 299 774 299 774 287.5 740 c 128,-1,107
 276 706 276 706 276 672 c 0,90,91
EndSplineSet
EndChar

StartChar: dieresis
Encoding: 168 168 106
Width: 647
GlyphClass: 2
Flags: W
LayerCount: 2
Fore
SplineSet
0 1311 m 0,0,1
 0 1333 0 1333 9 1353.5 c 128,-1,2
 18 1374 18 1374 33 1390 c 128,-1,3
 48 1406 48 1406 68 1415.5 c 128,-1,4
 88 1425 88 1425 111 1425 c 256,5,6
 134 1425 134 1425 154.5 1416 c 128,-1,7
 175 1407 175 1407 190 1392 c 128,-1,8
 205 1377 205 1377 214 1356.5 c 128,-1,9
 223 1336 223 1336 223 1313 c 256,10,11
 223 1290 223 1290 214 1269 c 128,-1,12
 205 1248 205 1248 190 1232 c 128,-1,13
 175 1216 175 1216 154.5 1207 c 128,-1,14
 134 1198 134 1198 111 1198 c 256,15,16
 88 1198 88 1198 68 1207 c 128,-1,17
 48 1216 48 1216 33 1232 c 128,-1,18
 18 1248 18 1248 9 1268 c 128,-1,19
 0 1288 0 1288 0 1311 c 0,0,1
424 1313 m 0,20,21
 424 1334 424 1334 433 1354.5 c 128,-1,22
 442 1375 442 1375 458 1390.5 c 128,-1,23
 474 1406 474 1406 494 1415.5 c 128,-1,24
 514 1425 514 1425 537 1425 c 256,25,26
 560 1425 560 1425 580 1416 c 128,-1,27
 600 1407 600 1407 615 1391.5 c 128,-1,28
 630 1376 630 1376 638.5 1355.5 c 128,-1,29
 647 1335 647 1335 647 1313 c 0,30,31
 647 1290 647 1290 638.5 1269 c 128,-1,32
 630 1248 630 1248 615 1232 c 128,-1,33
 600 1216 600 1216 580 1207 c 128,-1,34
 560 1198 560 1198 537 1198 c 256,35,36
 514 1198 514 1198 493.5 1207 c 128,-1,37
 473 1216 473 1216 457.5 1232 c 128,-1,38
 442 1248 442 1248 433 1269 c 128,-1,39
 424 1290 424 1290 424 1313 c 0,20,21
EndSplineSet
EndChar

StartChar: copyright
Encoding: 169 169 107
Width: 1714
GlyphClass: 2
Flags: W
LayerCount: 2
Fore
SplineSet
70 717 m 0,0,1
 70 826 70 826 98 927 c 128,-1,2
 126 1028 126 1028 177.5 1116 c 128,-1,3
 229 1204 229 1204 300.5 1276.5 c 128,-1,4
 372 1349 372 1349 459.5 1400.5 c 128,-1,5
 547 1452 547 1452 648 1480.5 c 128,-1,6
 749 1509 749 1509 858 1509 c 0,7,8
 968 1509 968 1509 1069 1480 c 128,-1,9
 1170 1451 1170 1451 1257.5 1399 c 128,-1,10
 1345 1347 1345 1347 1416.5 1274.5 c 128,-1,11
 1488 1202 1488 1202 1539 1114 c 128,-1,12
 1590 1026 1590 1026 1617.5 926 c 128,-1,13
 1645 826 1645 826 1645 719 c 0,14,15
 1645 610 1645 610 1617 509 c 128,-1,16
 1589 408 1589 408 1537.5 320 c 128,-1,17
 1486 232 1486 232 1414 159 c 128,-1,18
 1342 86 1342 86 1254.5 34.5 c 128,-1,19
 1167 -17 1167 -17 1066 -45.5 c 128,-1,20
 965 -74 965 -74 856 -74 c 0,21,22
 748 -74 748 -74 648 -45.5 c 128,-1,23
 548 -17 548 -17 460.5 34.5 c 128,-1,24
 373 86 373 86 301 158.5 c 128,-1,25
 229 231 229 231 177.5 319 c 128,-1,26
 126 407 126 407 98 508 c 128,-1,27
 70 609 70 609 70 717 c 0,0,1
158 717 m 256,28,29
 158 620 158 620 183 530.5 c 128,-1,30
 208 441 208 441 253.5 362.5 c 128,-1,31
 299 284 299 284 362.5 219.5 c 128,-1,32
 426 155 426 155 503.5 109 c 128,-1,33
 581 63 581 63 670.5 37.5 c 128,-1,34
 760 12 760 12 856 12 c 256,35,36
 952 12 952 12 1041.5 37.5 c 128,-1,37
 1131 63 1131 63 1208.5 109 c 128,-1,38
 1286 155 1286 155 1350 219.5 c 128,-1,39
 1414 284 1414 284 1460 362.5 c 128,-1,40
 1506 441 1506 441 1531 530.5 c 128,-1,41
 1556 620 1556 620 1556 717 c 256,42,43
 1556 814 1556 814 1531 904 c 128,-1,44
 1506 994 1506 994 1461 1072 c 128,-1,45
 1416 1150 1416 1150 1352.5 1215 c 128,-1,46
 1289 1280 1289 1280 1211 1326 c 128,-1,47
 1133 1372 1133 1372 1044 1397.5 c 128,-1,48
 955 1423 955 1423 858 1423 c 256,49,50
 761 1423 761 1423 671.5 1397.5 c 128,-1,51
 582 1372 582 1372 504.5 1326 c 128,-1,52
 427 1280 427 1280 363 1215.5 c 128,-1,53
 299 1151 299 1151 253.5 1072.5 c 128,-1,54
 208 994 208 994 183 904 c 128,-1,55
 158 814 158 814 158 717 c 256,28,29
387 717 m 0,56,57
 387 823 387 823 423 911 c 128,-1,58
 459 999 459 999 525 1063 c 128,-1,59
 591 1127 591 1127 684 1162.5 c 128,-1,60
 777 1198 777 1198 891 1198 c 0,61,62
 971 1198 971 1198 1041.5 1182.5 c 128,-1,63
 1112 1167 1112 1167 1180 1147 c 1,64,-1
 1180 903 l 1,65,-1
 1087 903 l 1,66,-1
 1057 1059 l 1,67,68
 1034 1074 1034 1074 994.5 1088 c 128,-1,69
 955 1102 955 1102 911 1102 c 0,70,71
 846 1102 846 1102 785 1076.5 c 128,-1,72
 724 1051 724 1051 677.5 1002 c 128,-1,73
 631 953 631 953 603 882.5 c 128,-1,74
 575 812 575 812 575 721 c 0,75,76
 575 627 575 627 602 554 c 128,-1,77
 629 481 629 481 673 430.5 c 128,-1,78
 717 380 717 380 774 354 c 128,-1,79
 831 328 831 328 891 328 c 0,80,81
 916 328 916 328 941 331.5 c 128,-1,82
 966 335 966 335 988 341 c 128,-1,83
 1010 347 1010 347 1029 354 c 128,-1,84
 1048 361 1048 361 1061 367 c 1,85,-1
 1090 541 l 1,86,-1
 1180 541 l 1,87,-1
 1180 283 l 1,88,89
 1178 282 1178 282 1153.5 274 c 128,-1,90
 1129 266 1129 266 1089 257 c 128,-1,91
 1049 248 1049 248 997.5 240.5 c 128,-1,92
 946 233 946 233 889 233 c 0,93,94
 768 233 768 233 674.5 272.5 c 128,-1,95
 581 312 581 312 517 378.5 c 128,-1,96
 453 445 453 445 420 532.5 c 128,-1,97
 387 620 387 620 387 717 c 0,56,57
EndSplineSet
EndChar

StartChar: ordfeminine
Encoding: 170 170 108
Width: 698
GlyphClass: 2
Flags: W
LayerCount: 2
Fore
SplineSet
55 936 m 0,0,1
 55 970 55 970 67.5 999 c 128,-1,2
 80 1028 80 1028 121.5 1055 c 128,-1,3
 163 1082 163 1082 241 1107.5 c 128,-1,4
 319 1133 319 1133 451 1159 c 1,5,-1
 451 1212 l 2,6,7
 451 1274 451 1274 421 1303.5 c 128,-1,8
 391 1333 391 1333 328 1333 c 0,9,10
 293 1333 293 1333 267.5 1326.5 c 128,-1,11
 242 1320 242 1320 231 1317 c 1,12,-1
 231 1210 l 1,13,-1
 135 1210 l 2,14,15
 117 1210 117 1210 101.5 1216 c 128,-1,16
 86 1222 86 1222 86 1245 c 0,17,18
 86 1284 86 1284 110.5 1311.5 c 128,-1,19
 135 1339 135 1339 174.5 1356.5 c 128,-1,20
 214 1374 214 1374 263.5 1382.5 c 128,-1,21
 313 1391 313 1391 362 1391 c 0,22,23
 424 1391 424 1391 465 1377.5 c 128,-1,24
 506 1364 506 1364 530 1339.5 c 128,-1,25
 554 1315 554 1315 563.5 1281 c 128,-1,26
 573 1247 573 1247 573 1206 c 2,27,-1
 573 862 l 2,28,29
 573 851 573 851 581 844.5 c 128,-1,30
 589 838 589 838 600 836 c 1,31,-1
 666 831 l 1,32,-1
 666 784 l 1,33,-1
 469 784 l 1,34,-1
 451 856 l 1,35,36
 416 831 416 831 378 813 c 1,37,38
 346 796 346 796 306 783 c 128,-1,39
 266 770 266 770 227 770 c 0,40,41
 192 770 192 770 160.5 781 c 128,-1,42
 129 792 129 792 105.5 813.5 c 128,-1,43
 82 835 82 835 68.5 866 c 128,-1,44
 55 897 55 897 55 936 c 0,0,1
63 623 m 1,45,-1
 63 684 l 1,46,-1
 659 684 l 1,47,-1
 659 623 l 1,48,-1
 63 623 l 1,45,-1
186 944 m 0,49,50
 186 925 186 925 193 906.5 c 128,-1,51
 200 888 200 888 212.5 874 c 128,-1,52
 225 860 225 860 244 851 c 128,-1,53
 263 842 263 842 287 842 c 0,54,55
 313 842 313 842 342.5 850.5 c 128,-1,56
 372 859 372 859 396 870 c 0,57,58
 424 882 424 882 451 899 c 1,59,-1
 451 1112 l 1,60,61
 361 1091 361 1091 308.5 1071 c 128,-1,62
 256 1051 256 1051 228.5 1030 c 128,-1,63
 201 1009 201 1009 193.5 987.5 c 128,-1,64
 186 966 186 966 186 944 c 0,49,50
EndSplineSet
EndChar

StartChar: guillemotleft
Encoding: 171 171 109
Width: 905
GlyphClass: 2
Flags: W
LayerCount: 2
Fore
SplineSet
78 410 m 1,0,-1
 78 573 l 1,1,-1
 420 854 l 1,2,-1
 420 709 l 1,3,-1
 182 492 l 1,4,-1
 420 272 l 1,5,-1
 420 131 l 1,6,-1
 78 410 l 1,0,-1
481 410 m 1,7,-1
 481 573 l 1,8,-1
 823 854 l 1,9,-1
 823 709 l 1,10,-1
 588 492 l 1,11,-1
 823 272 l 1,12,-1
 823 131 l 1,13,-1
 481 410 l 1,7,-1
EndSplineSet
EndChar

StartChar: logicalnot
Encoding: 172 172 110
Width: 1270
GlyphClass: 2
Flags: W
LayerCount: 2
Fore
SplineSet
82 737 m 1,0,-1
 82 860 l 1,1,-1
 1188 860 l 1,2,-1
 1188 387 l 1,3,-1
 1065 387 l 1,4,-1
 1065 737 l 1,5,-1
 82 737 l 1,0,-1
EndSplineSet
EndChar

StartChar: uni00AD
Encoding: 173 173 111
Width: 655
GlyphClass: 2
Flags: W
LayerCount: 2
Fore
SplineSet
90 416 m 1,0,-1
 90 569 l 1,1,-1
 565 569 l 1,2,-1
 565 416 l 1,3,-1
 90 416 l 1,0,-1
EndSplineSet
EndChar

StartChar: registered
Encoding: 174 174 112
Width: 1714
GlyphClass: 2
Flags: W
LayerCount: 2
Fore
SplineSet
70 717 m 256,0,1
 70 826 70 826 98 927 c 128,-1,2
 126 1028 126 1028 177.5 1116 c 128,-1,3
 229 1204 229 1204 300.5 1276.5 c 128,-1,4
 372 1349 372 1349 459.5 1400.5 c 128,-1,5
 547 1452 547 1452 648 1480.5 c 128,-1,6
 749 1509 749 1509 858 1509 c 0,7,8
 965 1509 965 1509 1065.5 1480.5 c 128,-1,9
 1166 1452 1166 1452 1253.5 1401 c 128,-1,10
 1341 1350 1341 1350 1413 1277.5 c 128,-1,11
 1485 1205 1485 1205 1536.5 1117 c 128,-1,12
 1588 1029 1588 1029 1616.5 927.5 c 128,-1,13
 1645 826 1645 826 1645 717 c 256,14,15
 1645 608 1645 608 1617 507 c 128,-1,16
 1589 406 1589 406 1537.5 318 c 128,-1,17
 1486 230 1486 230 1414 158 c 128,-1,18
 1342 86 1342 86 1254 34.5 c 128,-1,19
 1166 -17 1166 -17 1065 -45.5 c 128,-1,20
 964 -74 964 -74 854 -74 c 0,21,22
 746 -74 746 -74 646.5 -45.5 c 128,-1,23
 547 -17 547 -17 460 34.5 c 128,-1,24
 373 86 373 86 301 158 c 128,-1,25
 229 230 229 230 177.5 318 c 128,-1,26
 126 406 126 406 98 507 c 128,-1,27
 70 608 70 608 70 717 c 256,0,1
158 713 m 0,28,29
 158 617 158 617 183 528 c 128,-1,30
 208 439 208 439 253 361 c 128,-1,31
 298 283 298 283 361.5 219 c 128,-1,32
 425 155 425 155 503 109 c 128,-1,33
 581 63 581 63 670 37.5 c 128,-1,34
 759 12 759 12 856 12 c 256,35,36
 953 12 953 12 1042.5 37.5 c 128,-1,37
 1132 63 1132 63 1209.5 109 c 128,-1,38
 1287 155 1287 155 1351 220 c 128,-1,39
 1415 285 1415 285 1460.5 363 c 128,-1,40
 1506 441 1506 441 1531 531 c 128,-1,41
 1556 621 1556 621 1556 717 c 0,42,43
 1556 815 1556 815 1531 905 c 128,-1,44
 1506 995 1506 995 1460.5 1073.5 c 128,-1,45
 1415 1152 1415 1152 1351.5 1216.5 c 128,-1,46
 1288 1281 1288 1281 1210.5 1327 c 128,-1,47
 1133 1373 1133 1373 1043.5 1398 c 128,-1,48
 954 1423 954 1423 858 1423 c 256,49,50
 762 1423 762 1423 673 1398 c 128,-1,51
 584 1373 584 1373 506.5 1327.5 c 128,-1,52
 429 1282 429 1282 364.5 1217.5 c 128,-1,53
 300 1153 300 1153 254.5 1074.5 c 128,-1,54
 209 996 209 996 183.5 904.5 c 128,-1,55
 158 813 158 813 158 713 c 0,28,29
442 291 m 1,56,-1
 442 348 l 1,57,-1
 520 354 l 2,58,59
 536 356 536 356 543.5 365 c 128,-1,60
 551 374 551 374 551 383 c 2,61,-1
 551 1096 l 2,62,63
 551 1105 551 1105 543.5 1113.5 c 128,-1,64
 536 1122 536 1122 520 1124 c 2,65,-1
 442 1130 l 1,66,-1
 442 1188 l 1,67,-1
 823 1188 l 2,68,69
 907 1188 907 1188 973.5 1175.5 c 128,-1,70
 1040 1163 1040 1163 1086.5 1135 c 128,-1,71
 1133 1107 1133 1107 1157.5 1061.5 c 128,-1,72
 1182 1016 1182 1016 1182 950 c 0,73,74
 1182 898 1182 898 1162 860.5 c 128,-1,75
 1142 823 1142 823 1109 796.5 c 128,-1,76
 1076 770 1076 770 1032.5 753.5 c 128,-1,77
 989 737 989 737 942 727 c 1,78,79
 1003 713 1003 713 1039 689.5 c 128,-1,80
 1075 666 1075 666 1095.5 637 c 128,-1,81
 1116 608 1116 608 1125 575 c 128,-1,82
 1134 542 1134 542 1142 509.5 c 128,-1,83
 1150 477 1150 477 1160.5 447.5 c 128,-1,84
 1171 418 1171 418 1194.5 395.5 c 128,-1,85
 1218 373 1218 373 1258.5 359.5 c 128,-1,86
 1299 346 1299 346 1366 346 c 1,87,-1
 1366 291 l 1,88,89
 1361 290 1361 290 1348 288.5 c 128,-1,90
 1335 287 1335 287 1318 285.5 c 128,-1,91
 1301 284 1301 284 1282 282.5 c 128,-1,92
 1263 281 1263 281 1247 281 c 0,93,94
 1179 281 1179 281 1137 298.5 c 128,-1,95
 1095 316 1095 316 1069.5 345 c 128,-1,96
 1044 374 1044 374 1030.5 410.5 c 128,-1,97
 1017 447 1017 447 1005.5 485.5 c 128,-1,98
 994 524 994 524 980.5 560.5 c 128,-1,99
 967 597 967 597 941.5 626 c 128,-1,100
 916 655 916 655 874 672.5 c 128,-1,101
 832 690 832 690 764 690 c 0,102,103
 741 690 741 690 720 689 c 128,-1,104
 699 688 699 688 696 688 c 1,105,-1
 696 383 l 2,106,107
 696 374 696 374 704 365 c 128,-1,108
 712 356 712 356 727 354 c 2,109,-1
 805 348 l 1,110,-1
 805 291 l 1,111,-1
 442 291 l 1,56,-1
696 756 m 1,112,113
 697 756 697 756 706 755.5 c 128,-1,114
 715 755 715 755 727 755 c 128,-1,115
 739 755 739 755 751.5 754.5 c 128,-1,116
 764 754 764 754 772 754 c 0,117,118
 833 754 833 754 879.5 763.5 c 128,-1,119
 926 773 926 773 957.5 795.5 c 128,-1,120
 989 818 989 818 1005.5 854 c 128,-1,121
 1022 890 1022 890 1022 944 c 0,122,123
 1022 986 1022 986 1008 1019.5 c 128,-1,124
 994 1053 994 1053 963 1076.5 c 128,-1,125
 932 1100 932 1100 883.5 1112 c 128,-1,126
 835 1124 835 1124 766 1124 c 2,127,-1
 696 1124 l 1,128,-1
 696 756 l 1,112,113
EndSplineSet
EndChar

StartChar: macron
Encoding: 175 175 113
Width: 686
GlyphClass: 2
Flags: W
LayerCount: 2
Fore
SplineSet
0 1200 m 1,0,-1
 0 1330 l 1,1,-1
 686 1330 l 1,2,-1
 686 1200 l 1,3,-1
 0 1200 l 1,0,-1
EndSplineSet
EndChar

StartChar: degree
Encoding: 176 176 114
Width: 655
GlyphClass: 2
Flags: W
LayerCount: 2
Fore
SplineSet
102 1249 m 256,0,1
 102 1296 102 1296 119.5 1337 c 128,-1,2
 137 1378 137 1378 168 1409 c 128,-1,3
 199 1440 199 1440 240 1457.5 c 128,-1,4
 281 1475 281 1475 328 1475 c 256,5,6
 375 1475 375 1475 416 1457.5 c 128,-1,7
 457 1440 457 1440 487.5 1409 c 128,-1,8
 518 1378 518 1378 535.5 1337 c 128,-1,9
 553 1296 553 1296 553 1249 c 256,10,11
 553 1202 553 1202 535.5 1161 c 128,-1,12
 518 1120 518 1120 487.5 1089.5 c 128,-1,13
 457 1059 457 1059 416 1041.5 c 128,-1,14
 375 1024 375 1024 328 1024 c 256,15,16
 281 1024 281 1024 240 1041.5 c 128,-1,17
 199 1059 199 1059 168 1089.5 c 128,-1,18
 137 1120 137 1120 119.5 1161 c 128,-1,19
 102 1202 102 1202 102 1249 c 256,0,1
184 1249 m 256,20,21
 184 1219 184 1219 195 1193 c 128,-1,22
 206 1167 206 1167 225.5 1147.5 c 128,-1,23
 245 1128 245 1128 271.5 1117 c 128,-1,24
 298 1106 298 1106 328 1106 c 256,25,26
 358 1106 358 1106 384 1117 c 128,-1,27
 410 1128 410 1128 429.5 1147.5 c 128,-1,28
 449 1167 449 1167 460 1193 c 128,-1,29
 471 1219 471 1219 471 1249 c 256,30,31
 471 1279 471 1279 460 1305 c 128,-1,32
 449 1331 449 1331 429.5 1350.5 c 128,-1,33
 410 1370 410 1370 384 1381.5 c 128,-1,34
 358 1393 358 1393 328 1393 c 256,35,36
 298 1393 298 1393 271.5 1381.5 c 128,-1,37
 245 1370 245 1370 225.5 1350.5 c 128,-1,38
 206 1331 206 1331 195 1305 c 128,-1,39
 184 1279 184 1279 184 1249 c 256,20,21
EndSplineSet
EndChar

StartChar: plusminus
Encoding: 177 177 115
Width: 2048
GlyphClass: 2
Flags: W
LayerCount: 2
Fore
SplineSet
410 0 m 1,0,-1
 410 127 l 1,1,-1
 1638 127 l 1,2,-1
 1638 0 l 1,3,-1
 410 0 l 1,0,-1
410 733 m 1,4,-1
 410 860 l 1,5,-1
 961 860 l 1,6,-1
 961 1229 l 1,7,-1
 1087 1229 l 1,8,-1
 1087 860 l 1,9,-1
 1638 860 l 1,10,-1
 1638 733 l 1,11,-1
 1087 733 l 1,12,-1
 1087 365 l 1,13,-1
 961 365 l 1,14,-1
 961 733 l 1,15,-1
 410 733 l 1,4,-1
EndSplineSet
EndChar

StartChar: uni00B2
Encoding: 178 178 116
Width: 750
GlyphClass: 2
Flags: W
LayerCount: 2
Fore
SplineSet
63 784 m 1,0,-1
 63 866 l 1,1,-1
 250 1009 l 2,2,3
 335 1074 335 1074 396.5 1134 c 128,-1,4
 458 1194 458 1194 492 1252.5 c 128,-1,5
 526 1311 526 1311 526 1376 c 0,6,7
 526 1421 526 1421 510.5 1454.5 c 128,-1,8
 495 1488 495 1488 469 1510.5 c 128,-1,9
 443 1533 443 1533 408.5 1544.5 c 128,-1,10
 374 1556 374 1556 336 1556 c 0,11,12
 313 1556 313 1556 293.5 1552 c 128,-1,13
 274 1548 274 1548 259.5 1543.5 c 128,-1,14
 245 1539 245 1539 236 1535 c 128,-1,15
 227 1531 227 1531 225 1530 c 1,16,-1
 225 1395 l 1,17,18
 218 1388 218 1388 208 1383 c 0,19,20
 200 1378 200 1378 187.5 1375 c 128,-1,21
 175 1372 175 1372 160 1372 c 0,22,23
 129 1372 129 1372 104.5 1390.5 c 128,-1,24
 80 1409 80 1409 80 1446 c 0,25,26
 80 1485 80 1485 104 1517.5 c 128,-1,27
 128 1550 128 1550 168 1573 c 128,-1,28
 208 1596 208 1596 261 1609 c 128,-1,29
 314 1622 314 1622 373 1622 c 0,30,31
 437 1622 437 1622 491.5 1605.5 c 128,-1,32
 546 1589 546 1589 586 1559 c 128,-1,33
 626 1529 626 1529 648 1486 c 128,-1,34
 670 1443 670 1443 670 1389 c 0,35,36
 670 1323 670 1323 630.5 1261.5 c 128,-1,37
 591 1200 591 1200 526 1139 c 128,-1,38
 461 1078 461 1078 377 1016 c 128,-1,39
 293 954 293 954 203 889 c 1,40,-1
 598 889 l 1,41,-1
 621 993 l 1,42,-1
 686 993 l 1,43,-1
 686 784 l 1,44,-1
 63 784 l 1,0,-1
EndSplineSet
EndChar

StartChar: uni00B3
Encoding: 179 179 117
Width: 750
GlyphClass: 2
Flags: W
LayerCount: 2
Fore
SplineSet
63 909 m 0,0,1
 63 934 63 934 82 955.5 c 128,-1,2
 101 977 101 977 141 977 c 0,3,4
 149 977 149 977 163.5 975.5 c 128,-1,5
 178 974 178 974 186 969 c 1,6,-1
 227 858 l 1,7,8
 279 831 279 831 342 831 c 0,9,10
 388 831 388 831 426 846.5 c 128,-1,11
 464 862 464 862 491.5 888.5 c 128,-1,12
 519 915 519 915 534 949 c 128,-1,13
 549 983 549 983 549 1020 c 0,14,15
 549 1065 549 1065 530 1094.5 c 128,-1,16
 511 1124 511 1124 481.5 1141.5 c 128,-1,17
 452 1159 452 1159 416.5 1166.5 c 128,-1,18
 381 1174 381 1174 348 1174 c 0,19,20
 330 1174 330 1174 315.5 1173 c 128,-1,21
 301 1172 301 1172 290 1170 c 0,22,23
 278 1168 278 1168 268 1167 c 1,24,-1
 268 1245 l 1,25,26
 271 1245 271 1245 282.5 1244 c 128,-1,27
 294 1243 294 1243 303 1243 c 0,28,29
 345 1243 345 1243 384 1252.5 c 128,-1,30
 423 1262 423 1262 452 1281.5 c 128,-1,31
 481 1301 481 1301 498.5 1330.5 c 128,-1,32
 516 1360 516 1360 516 1401 c 0,33,34
 516 1439 516 1439 501.5 1468 c 128,-1,35
 487 1497 487 1497 463 1516.5 c 128,-1,36
 439 1536 439 1536 407.5 1546 c 128,-1,37
 376 1556 376 1556 342 1556 c 0,38,39
 315 1556 315 1556 292.5 1551 c 128,-1,40
 270 1546 270 1546 254 1541 c 1,41,42
 236 1534 236 1534 221 1526 c 1,43,-1
 221 1405 l 1,44,45
 218 1403 218 1403 202.5 1394.5 c 128,-1,46
 187 1386 187 1386 162 1386 c 0,47,48
 150 1386 150 1386 137 1389.5 c 128,-1,49
 124 1393 124 1393 112.5 1401 c 128,-1,50
 101 1409 101 1409 93.5 1422.5 c 128,-1,51
 86 1436 86 1436 86 1456 c 0,52,53
 86 1491 86 1491 109.5 1521.5 c 128,-1,54
 133 1552 133 1552 172.5 1574.5 c 128,-1,55
 212 1597 212 1597 265.5 1609.5 c 128,-1,56
 319 1622 319 1622 379 1622 c 0,57,58
 436 1622 436 1622 486 1608 c 128,-1,59
 536 1594 536 1594 572.5 1567.5 c 128,-1,60
 609 1541 609 1541 630 1502.5 c 128,-1,61
 651 1464 651 1464 651 1415 c 0,62,63
 651 1346 651 1346 599.5 1294.5 c 128,-1,64
 548 1243 548 1243 449 1217 c 1,65,66
 491 1215 491 1215 533.5 1203 c 128,-1,67
 576 1191 576 1191 609.5 1167 c 128,-1,68
 643 1143 643 1143 664.5 1107 c 128,-1,69
 686 1071 686 1071 686 1020 c 0,70,71
 686 964 686 964 658.5 917.5 c 128,-1,72
 631 871 631 871 584 838 c 128,-1,73
 537 805 537 805 473.5 786.5 c 128,-1,74
 410 768 410 768 338 768 c 0,75,76
 270 768 270 768 219 781.5 c 128,-1,77
 168 795 168 795 133 816 c 128,-1,78
 98 837 98 837 80.5 862 c 128,-1,79
 63 887 63 887 63 909 c 0,0,1
EndSplineSet
EndChar

StartChar: acute
Encoding: 180 180 118
Width: 717
GlyphClass: 2
Flags: W
LayerCount: 2
Fore
SplineSet
242 1128 m 1,0,-1
 514 1446 l 2,1,2
 526 1459 526 1459 536 1469.5 c 128,-1,3
 546 1480 546 1480 558 1487 c 128,-1,4
 570 1494 570 1494 585.5 1497.5 c 128,-1,5
 601 1501 601 1501 623 1501 c 0,6,7
 650 1501 650 1501 668 1492.5 c 128,-1,8
 686 1484 686 1484 697 1471 c 128,-1,9
 708 1458 708 1458 712.5 1441.5 c 128,-1,10
 717 1425 717 1425 717 1409 c 0,11,12
 717 1381 717 1381 703.5 1361 c 128,-1,13
 690 1341 690 1341 670 1327 c 1,14,-1
 358 1128 l 1,15,-1
 242 1128 l 1,0,-1
EndSplineSet
EndChar

StartChar: uni00B5
Encoding: 181 181 119
Width: 1120
GlyphClass: 2
Flags: W
LayerCount: 2
Fore
SplineSet
119 -342 m 0,0,1
 119 -310 119 -310 124 -284 c 128,-1,2
 129 -258 129 -258 136 -229.5 c 128,-1,3
 143 -201 143 -201 151.5 -166.5 c 128,-1,4
 160 -132 160 -132 167 -81.5 c 128,-1,5
 174 -31 174 -31 179 39 c 128,-1,6
 184 109 184 109 184 207 c 2,7,-1
 184 987 l 1,8,-1
 375 987 l 1,9,-1
 375 403 l 2,10,11
 375 326 375 326 379.5 277.5 c 128,-1,12
 384 229 384 229 393 201 c 0,13,14
 399 182 399 182 411 164.5 c 128,-1,15
 423 147 423 147 439.5 133.5 c 128,-1,16
 456 120 456 120 477 112 c 128,-1,17
 498 104 498 104 522 104 c 0,18,19
 582 104 582 104 633 140.5 c 128,-1,20
 684 177 684 177 745 246 c 1,21,-1
 745 987 l 1,22,-1
 936 987 l 1,23,-1
 936 281 l 2,24,25
 936 212 936 212 941.5 173.5 c 128,-1,26
 947 135 947 135 956.5 117 c 128,-1,27
 966 99 966 99 978.5 95.5 c 128,-1,28
 991 92 991 92 1006 92 c 0,29,30
 1022 92 1022 92 1034.5 98 c 128,-1,31
 1047 104 1047 104 1057 119 c 128,-1,32
 1067 134 1067 134 1075.5 158.5 c 128,-1,33
 1084 183 1084 183 1092 221 c 1,34,-1
 1133 221 l 1,35,36
 1128 155 1128 155 1110 108.5 c 128,-1,37
 1092 62 1092 62 1064.5 32 c 128,-1,38
 1037 2 1037 2 1001.5 -11.5 c 128,-1,39
 966 -25 966 -25 926 -25 c 0,40,41
 895 -25 895 -25 866 -15.5 c 128,-1,42
 837 -6 837 -6 812.5 17 c 128,-1,43
 788 40 788 40 770.5 78 c 128,-1,44
 753 116 753 116 745 174 c 1,45,46
 701 123 701 123 663.5 86 c 128,-1,47
 626 49 626 49 590 24 c 128,-1,48
 554 -1 554 -1 517.5 -13 c 128,-1,49
 481 -25 481 -25 440 -25 c 0,50,51
 429 -25 429 -25 406 -23 c 128,-1,52
 383 -21 383 -21 356.5 -12 c 128,-1,53
 330 -3 330 -3 303.5 15.5 c 128,-1,54
 277 34 277 34 258 66 c 1,55,-1
 258 16 l 2,56,57
 258 -33 258 -33 265.5 -82.5 c 128,-1,58
 273 -132 273 -132 282.5 -178.5 c 128,-1,59
 292 -225 292 -225 299.5 -266 c 128,-1,60
 307 -307 307 -307 307 -338 c 0,61,62
 307 -364 307 -364 299 -385 c 128,-1,63
 291 -406 291 -406 277.5 -422 c 128,-1,64
 264 -438 264 -438 246 -446.5 c 128,-1,65
 228 -455 228 -455 209 -455 c 0,66,67
 191 -455 191 -455 175 -446.5 c 128,-1,68
 159 -438 159 -438 146.5 -423 c 128,-1,69
 134 -408 134 -408 126.5 -387.5 c 128,-1,70
 119 -367 119 -367 119 -342 c 0,0,1
EndSplineSet
EndChar

StartChar: paragraph
Encoding: 182 182 120
Width: 995
GlyphClass: 2
Flags: W
LayerCount: 2
Fore
SplineSet
55 973 m 0,0,1
 55 1086 55 1086 87 1162.5 c 128,-1,2
 119 1239 119 1239 180.5 1286 c 128,-1,3
 242 1333 242 1333 331 1353.5 c 128,-1,4
 420 1374 420 1374 535 1374 c 2,5,-1
 940 1374 l 1,6,-1
 940 1300 l 1,7,-1
 813 1280 l 1,8,-1
 813 -162 l 1,9,-1
 713 -162 l 1,10,-1
 713 1290 l 1,11,-1
 557 1290 l 1,12,-1
 557 575 l 1,13,14
 446 575 446 575 354 592.5 c 128,-1,15
 262 610 262 610 195.5 655 c 128,-1,16
 129 700 129 700 92 777 c 128,-1,17
 55 854 55 854 55 973 c 0,0,1
EndSplineSet
EndChar

StartChar: periodcentered
Encoding: 183 183 121
Width: 385
GlyphClass: 2
Flags: W
LayerCount: 2
Fore
SplineSet
72 696 m 256,0,1
 72 721 72 721 81.5 743.5 c 128,-1,2
 91 766 91 766 107 782 c 128,-1,3
 123 798 123 798 145 807.5 c 128,-1,4
 167 817 167 817 193 817 c 0,5,6
 218 817 218 817 240 807.5 c 128,-1,7
 262 798 262 798 278 782 c 128,-1,8
 294 766 294 766 303.5 743.5 c 128,-1,9
 313 721 313 721 313 696 c 256,10,11
 313 671 313 671 303.5 649 c 128,-1,12
 294 627 294 627 278 610.5 c 128,-1,13
 262 594 262 594 240 584.5 c 128,-1,14
 218 575 218 575 193 575 c 0,15,16
 167 575 167 575 145 584.5 c 128,-1,17
 123 594 123 594 107 610.5 c 128,-1,18
 91 627 91 627 81.5 649 c 128,-1,19
 72 671 72 671 72 696 c 256,0,1
EndSplineSet
EndChar

StartChar: cedilla
Encoding: 184 184 122
Width: 471
GlyphClass: 2
Flags: W
LayerCount: 2
Fore
SplineSet
82 -360 m 1,0,1
 103 -365 103 -365 125 -369 c 0,2,3
 144 -372 144 -372 165.5 -374.5 c 128,-1,4
 187 -377 187 -377 207 -377 c 0,5,6
 231 -377 231 -377 254.5 -372.5 c 128,-1,7
 278 -368 278 -368 296.5 -358.5 c 128,-1,8
 315 -349 315 -349 326.5 -333 c 128,-1,9
 338 -317 338 -317 338 -293 c 0,10,11
 338 -255 338 -255 311 -236 c 128,-1,12
 284 -217 284 -217 242 -217 c 0,13,14
 234 -217 234 -217 226 -219 c 128,-1,15
 218 -221 218 -221 211 -223 c 2,16,-1
 195 -229 l 1,17,-1
 195 2 l 1,18,-1
 276 2 l 1,19,-1
 276 -129 l 1,20,21
 287 -127 287 -127 297 -124 c 128,-1,22
 307 -121 307 -121 324 -121 c 0,23,24
 355 -121 355 -121 381.5 -129 c 128,-1,25
 408 -137 408 -137 428 -154.5 c 128,-1,26
 448 -172 448 -172 459.5 -199.5 c 128,-1,27
 471 -227 471 -227 471 -266 c 0,28,29
 471 -314 471 -314 453 -350 c 128,-1,30
 435 -386 435 -386 403.5 -411 c 128,-1,31
 372 -436 372 -436 328.5 -448.5 c 128,-1,32
 285 -461 285 -461 233 -461 c 0,33,34
 206 -461 206 -461 179.5 -458 c 128,-1,35
 153 -455 153 -455 131 -451 c 0,36,37
 105 -447 105 -447 82 -440 c 1,38,-1
 82 -360 l 1,0,1
EndSplineSet
EndChar

StartChar: uni00B9
Encoding: 185 185 123
Width: 750
GlyphClass: 2
Flags: W
LayerCount: 2
Fore
SplineSet
100 1487 m 1,0,-1
 100 1540 l 1,1,-1
 389 1622 l 1,2,-1
 438 1622 l 1,3,-1
 438 870 l 2,4,5
 438 859 438 859 447.5 851.5 c 128,-1,6
 457 844 457 844 469 844 c 2,7,-1
 594 840 l 1,8,-1
 594 784 l 1,9,-1
 143 784 l 1,10,-1
 143 840 l 1,11,-1
 279 844 l 2,12,13
 291 844 291 844 299 851.5 c 128,-1,14
 307 859 307 859 307 870 c 2,15,-1
 307 1520 l 1,16,-1
 100 1487 l 1,0,-1
EndSplineSet
EndChar

StartChar: ordmasculine
Encoding: 186 186 124
Width: 733
GlyphClass: 2
Flags: W
LayerCount: 2
Fore
SplineSet
49 1079 m 0,0,1
 49 1145 49 1145 71.5 1202 c 128,-1,2
 94 1259 94 1259 135.5 1301 c 128,-1,3
 177 1343 177 1343 236.5 1367 c 128,-1,4
 296 1391 296 1391 371 1391 c 0,5,6
 445 1391 445 1391 503.5 1366.5 c 128,-1,7
 562 1342 562 1342 602 1299.5 c 128,-1,8
 642 1257 642 1257 663 1200 c 128,-1,9
 684 1143 684 1143 684 1079 c 0,10,11
 684 1014 684 1014 661.5 957.5 c 128,-1,12
 639 901 639 901 598 859.5 c 128,-1,13
 557 818 557 818 498.5 794 c 128,-1,14
 440 770 440 770 367 770 c 256,15,16
 294 770 294 770 235 793 c 128,-1,17
 176 816 176 816 135 857.5 c 128,-1,18
 94 899 94 899 71.5 955.5 c 128,-1,19
 49 1012 49 1012 49 1079 c 0,0,1
55 623 m 1,20,-1
 55 684 l 1,21,-1
 680 684 l 1,22,-1
 680 623 l 1,23,-1
 55 623 l 1,20,-1
190 1079 m 0,24,25
 190 1030 190 1030 201 984 c 128,-1,26
 212 938 212 938 234 903 c 128,-1,27
 256 868 256 868 289 846.5 c 128,-1,28
 322 825 322 825 367 825 c 0,29,30
 413 825 413 825 446.5 846 c 128,-1,31
 480 867 480 867 502.5 902 c 128,-1,32
 525 937 525 937 536 983 c 128,-1,33
 547 1029 547 1029 547 1079 c 0,34,35
 547 1130 547 1130 536 1176 c 128,-1,36
 525 1222 525 1222 503 1257.5 c 128,-1,37
 481 1293 481 1293 447.5 1314 c 128,-1,38
 414 1335 414 1335 369 1335 c 0,39,40
 323 1335 323 1335 289 1314 c 128,-1,41
 255 1293 255 1293 233 1257.5 c 128,-1,42
 211 1222 211 1222 200.5 1176 c 128,-1,43
 190 1130 190 1130 190 1079 c 0,24,25
EndSplineSet
EndChar

StartChar: guillemotright
Encoding: 187 187 125
Width: 905
GlyphClass: 2
Flags: W
LayerCount: 2
Fore
SplineSet
82 131 m 1,0,-1
 82 276 l 1,1,-1
 317 494 l 1,2,-1
 82 713 l 1,3,-1
 82 854 l 1,4,-1
 424 575 l 1,5,-1
 424 412 l 1,6,-1
 82 131 l 1,0,-1
485 131 m 1,7,-1
 485 276 l 1,8,-1
 723 494 l 1,9,-1
 485 713 l 1,10,-1
 485 854 l 1,11,-1
 827 575 l 1,12,-1
 827 412 l 1,13,-1
 485 131 l 1,7,-1
EndSplineSet
EndChar

StartChar: onequarter
Encoding: 188 188 126
Width: 1792
GlyphClass: 2
Flags: W
LayerCount: 2
Fore
SplineSet
98 1307 m 1,0,-1
 98 1362 l 1,1,-1
 387 1444 l 1,2,-1
 436 1444 l 1,3,-1
 436 690 l 2,4,5
 436 679 436 679 445.5 672.5 c 128,-1,6
 455 666 455 666 467 664 c 1,7,-1
 592 659 l 1,8,-1
 592 604 l 1,9,-1
 141 604 l 1,10,-1
 141 659 l 1,11,-1
 276 664 l 1,12,13
 289 666 289 666 297 672.5 c 128,-1,14
 305 679 305 679 305 690 c 2,15,-1
 305 1339 l 1,16,-1
 98 1307 l 1,0,-1
375 0 m 1,17,-1
 1284 1430 l 1,18,-1
 1413 1430 l 1,19,-1
 506 0 l 1,20,-1
 375 0 l 1,17,-1
1001 233 m 1,21,-1
 1001 319 l 1,22,-1
 1452 831 l 1,23,-1
 1542 831 l 1,24,-1
 1542 317 l 1,25,-1
 1694 317 l 1,26,-1
 1694 233 l 1,27,-1
 1542 233 l 1,28,-1
 1542 -43 l 1,29,-1
 1427 -43 l 1,30,-1
 1427 233 l 1,31,-1
 1001 233 l 1,21,-1
1108 317 m 1,32,-1
 1427 317 l 1,33,-1
 1427 688 l 1,34,-1
 1108 317 l 1,32,-1
EndSplineSet
EndChar

StartChar: onehalf
Encoding: 189 189 127
Width: 1792
GlyphClass: 2
Flags: W
LayerCount: 2
Fore
SplineSet
94 1307 m 1,0,-1
 94 1362 l 1,1,-1
 383 1444 l 1,2,-1
 432 1444 l 1,3,-1
 432 690 l 2,4,5
 432 679 432 679 441 672.5 c 128,-1,6
 450 666 450 666 463 664 c 1,7,-1
 588 659 l 1,8,-1
 588 604 l 1,9,-1
 137 604 l 1,10,-1
 137 659 l 1,11,-1
 272 664 l 1,12,13
 285 666 285 666 293 672.5 c 128,-1,14
 301 679 301 679 301 690 c 2,15,-1
 301 1339 l 1,16,-1
 94 1307 l 1,0,-1
360 0 m 1,17,-1
 1270 1430 l 1,18,-1
 1399 1430 l 1,19,-1
 489 0 l 1,20,-1
 360 0 l 1,17,-1
1075 0 m 1,21,-1
 1075 82 l 1,22,23
 1177 160 1177 160 1260.5 225.5 c 128,-1,24
 1344 291 1344 291 1403.5 351.5 c 128,-1,25
 1463 412 1463 412 1495.5 470.5 c 128,-1,26
 1528 529 1528 529 1528 594 c 0,27,28
 1528 639 1528 639 1515 672 c 128,-1,29
 1502 705 1502 705 1479 727.5 c 128,-1,30
 1456 750 1456 750 1424 761 c 128,-1,31
 1392 772 1392 772 1354 772 c 0,32,33
 1331 772 1331 772 1312 768 c 128,-1,34
 1293 764 1293 764 1278.5 759.5 c 128,-1,35
 1264 755 1264 755 1255.5 750.5 c 128,-1,36
 1247 746 1247 746 1245 745 c 1,37,-1
 1245 610 l 1,38,39
 1238 604 1238 604 1228 600 c 0,40,41
 1220 596 1220 596 1207.5 593 c 128,-1,42
 1195 590 1195 590 1180 590 c 0,43,44
 1149 590 1149 590 1124.5 607 c 128,-1,45
 1100 624 1100 624 1100 662 c 0,46,47
 1100 701 1100 701 1123 733.5 c 128,-1,48
 1146 766 1146 766 1186 790 c 128,-1,49
 1226 814 1226 814 1278 827 c 128,-1,50
 1330 840 1330 840 1389 840 c 0,51,52
 1453 840 1453 840 1505 823.5 c 128,-1,53
 1557 807 1557 807 1593.5 776 c 128,-1,54
 1630 745 1630 745 1649.5 701.5 c 128,-1,55
 1669 658 1669 658 1669 604 c 0,56,57
 1669 539 1669 539 1632 477 c 128,-1,58
 1595 415 1595 415 1532.5 354 c 128,-1,59
 1470 293 1470 293 1388.5 231.5 c 128,-1,60
 1307 170 1307 170 1217 104 c 1,61,-1
 1610 104 l 1,62,-1
 1632 211 l 1,63,-1
 1700 211 l 1,64,-1
 1700 0 l 1,65,-1
 1075 0 l 1,21,-1
EndSplineSet
EndChar

StartChar: threequarters
Encoding: 190 190 128
Width: 1792
GlyphClass: 2
Flags: W
LayerCount: 2
Fore
SplineSet
78 731 m 0,0,1
 78 743 78 743 82.5 755.5 c 128,-1,2
 87 768 87 768 96.5 778 c 128,-1,3
 106 788 106 788 121 794.5 c 128,-1,4
 136 801 136 801 156 801 c 0,5,6
 164 801 164 801 178.5 798.5 c 128,-1,7
 193 796 193 796 201 791 c 1,8,-1
 242 682 l 1,9,10
 268 668 268 668 293 661.5 c 128,-1,11
 318 655 318 655 350 655 c 0,12,13
 396 655 396 655 433 670.5 c 128,-1,14
 470 686 470 686 496.5 712.5 c 128,-1,15
 523 739 523 739 537 773 c 128,-1,16
 551 807 551 807 551 844 c 0,17,18
 551 889 551 889 533 918 c 128,-1,19
 515 947 515 947 487.5 964 c 128,-1,20
 460 981 460 981 425.5 988 c 128,-1,21
 391 995 391 995 358 995 c 0,22,23
 340 995 340 995 326.5 994.5 c 128,-1,24
 313 994 313 994 303 993 c 0,25,26
 292 992 292 992 283 991 c 1,27,-1
 283 1067 l 1,28,-1
 317 1067 l 2,29,30
 359 1067 359 1067 396 1076 c 128,-1,31
 433 1085 433 1085 460 1104 c 128,-1,32
 487 1123 487 1123 502.5 1152.5 c 128,-1,33
 518 1182 518 1182 518 1223 c 0,34,35
 518 1261 518 1261 504.5 1290 c 128,-1,36
 491 1319 491 1319 468 1338.5 c 128,-1,37
 445 1358 445 1358 414.5 1368 c 128,-1,38
 384 1378 384 1378 350 1378 c 0,39,40
 323 1378 323 1378 302 1373.5 c 128,-1,41
 281 1369 281 1369 266 1364 c 0,42,43
 248 1358 248 1358 236 1350 c 1,44,-1
 236 1227 l 1,45,46
 232 1225 232 1225 216.5 1217.5 c 128,-1,47
 201 1210 201 1210 176 1210 c 0,48,49
 164 1210 164 1210 150.5 1213.5 c 128,-1,50
 137 1217 137 1217 125.5 1225 c 128,-1,51
 114 1233 114 1233 106 1246.5 c 128,-1,52
 98 1260 98 1260 98 1280 c 0,53,54
 98 1315 98 1315 120.5 1345.5 c 128,-1,55
 143 1376 143 1376 181.5 1398.5 c 128,-1,56
 220 1421 220 1421 272.5 1433.5 c 128,-1,57
 325 1446 325 1446 385 1446 c 0,58,59
 443 1446 443 1446 492 1432 c 128,-1,60
 541 1418 541 1418 577 1391 c 128,-1,61
 613 1364 613 1364 633 1325 c 128,-1,62
 653 1286 653 1286 653 1237 c 0,63,64
 653 1168 653 1168 600.5 1117 c 128,-1,65
 548 1066 548 1066 449 1040 c 1,66,67
 491 1038 491 1038 533.5 1026.5 c 128,-1,68
 576 1015 576 1015 609.5 991 c 128,-1,69
 643 967 643 967 664.5 931 c 128,-1,70
 686 895 686 895 686 844 c 0,71,72
 686 788 686 788 660 742 c 128,-1,73
 634 696 634 696 588.5 663 c 128,-1,74
 543 630 543 630 480.5 612 c 128,-1,75
 418 594 418 594 346 594 c 0,76,77
 278 594 278 594 228 607 c 128,-1,78
 178 620 178 620 144.5 640.5 c 128,-1,79
 111 661 111 661 94.5 685 c 128,-1,80
 78 709 78 709 78 731 c 0,0,1
397 0 m 1,81,-1
 1307 1430 l 1,82,-1
 1436 1430 l 1,83,-1
 526 0 l 1,84,-1
 397 0 l 1,81,-1
1024 233 m 1,85,-1
 1024 319 l 1,86,-1
 1475 831 l 1,87,-1
 1565 831 l 1,88,-1
 1565 317 l 1,89,-1
 1716 317 l 1,90,-1
 1716 233 l 1,91,-1
 1565 233 l 1,92,-1
 1565 -43 l 1,93,-1
 1450 -43 l 1,94,-1
 1450 233 l 1,95,-1
 1024 233 l 1,85,-1
1130 317 m 1,96,-1
 1450 317 l 1,97,-1
 1450 688 l 1,98,-1
 1130 317 l 1,96,-1
EndSplineSet
EndChar

StartChar: questiondown
Encoding: 191 191 129
Width: 995
GlyphClass: 2
Flags: W
LayerCount: 2
Fore
SplineSet
141 -53 m 0,0,1
 141 44 141 44 179.5 116 c 128,-1,2
 218 188 218 188 276.5 240.5 c 128,-1,3
 335 293 335 293 403 329 c 128,-1,4
 471 365 471 365 530 391 c 1,5,-1
 530 621 l 1,6,-1
 645 621 l 1,7,-1
 645 324 l 1,8,9
 597 308 597 308 544.5 278 c 128,-1,10
 492 248 492 248 448.5 203.5 c 128,-1,11
 405 159 405 159 376.5 99 c 128,-1,12
 348 39 348 39 348 -37 c 0,13,14
 348 -180 348 -180 424.5 -248.5 c 128,-1,15
 501 -317 501 -317 641 -317 c 1,16,-1
 725 -110 l 1,17,-1
 741 -108 l 2,18,19
 747 -107 747 -107 752.5 -106.5 c 128,-1,20
 758 -106 758 -106 760 -106 c 0,21,22
 788 -106 788 -106 812 -112.5 c 128,-1,23
 836 -119 836 -119 854 -133 c 128,-1,24
 872 -147 872 -147 882.5 -168.5 c 128,-1,25
 893 -190 893 -190 893 -219 c 0,26,27
 893 -255 893 -255 873.5 -291 c 128,-1,28
 854 -327 854 -327 814 -355.5 c 128,-1,29
 774 -384 774 -384 712.5 -402 c 128,-1,30
 651 -420 651 -420 567 -420 c 0,31,32
 477 -420 477 -420 399 -394 c 128,-1,33
 321 -368 321 -368 263.5 -320 c 128,-1,34
 206 -272 206 -272 173.5 -204.5 c 128,-1,35
 141 -137 141 -137 141 -53 c 0,0,1
459 887 m 256,36,37
 459 913 459 913 469 936 c 128,-1,38
 479 959 479 959 496 976 c 128,-1,39
 513 993 513 993 536.5 1002.5 c 128,-1,40
 560 1012 560 1012 586 1012 c 256,41,42
 612 1012 612 1012 634.5 1002 c 128,-1,43
 657 992 657 992 674 974.5 c 128,-1,44
 691 957 691 957 701 934 c 128,-1,45
 711 911 711 911 711 885 c 256,46,47
 711 859 711 859 701 836 c 128,-1,48
 691 813 691 813 674 796 c 128,-1,49
 657 779 657 779 634.5 769.5 c 128,-1,50
 612 760 612 760 586 760 c 0,51,52
 559 760 559 760 536 770 c 128,-1,53
 513 780 513 780 495.5 797 c 128,-1,54
 478 814 478 814 468.5 837.5 c 128,-1,55
 459 861 459 861 459 887 c 256,36,37
EndSplineSet
EndChar

StartChar: Agrave
Encoding: 192 192 130
Width: 1380
GlyphClass: 2
Flags: W
LayerCount: 2
Fore
SplineSet
10 0 m 1,0,-1
 10 88 l 1,1,-1
 129 113 l 1,2,-1
 606 1407 l 1,3,-1
 760 1407 l 1,4,-1
 1235 143 l 2,5,6
 1242 122 1242 122 1248.5 115 c 128,-1,7
 1255 108 1255 108 1278 104 c 2,8,-1
 1370 88 l 1,9,-1
 1370 0 l 1,10,-1
 883 0 l 1,11,-1
 883 88 l 1,12,-1
 1001 98 l 2,13,14
 1011 98 1011 98 1018 111.5 c 128,-1,15
 1025 125 1025 125 1022 133 c 2,16,-1
 881 508 l 1,17,-1
 408 508 l 1,18,-1
 272 139 l 2,19,20
 270 133 270 133 272 126 c 128,-1,21
 274 119 274 119 279 112.5 c 128,-1,22
 284 106 284 106 290 102 c 128,-1,23
 296 98 296 98 301 98 c 2,24,-1
 422 88 l 1,25,-1
 422 0 l 1,26,-1
 10 0 l 1,0,-1
389 1809 m 0,27,28
 389 1825 389 1825 394 1841.5 c 128,-1,29
 399 1858 399 1858 410 1871 c 128,-1,30
 421 1884 421 1884 439 1892.5 c 128,-1,31
 457 1901 457 1901 483 1901 c 0,32,33
 505 1901 505 1901 520 1897.5 c 128,-1,34
 535 1894 535 1894 547 1887 c 128,-1,35
 559 1880 559 1880 569 1869.5 c 128,-1,36
 579 1859 579 1859 590 1846 c 2,37,-1
 864 1528 l 1,38,-1
 747 1528 l 1,39,-1
 436 1727 l 2,40,41
 414 1741 414 1741 401.5 1761 c 128,-1,42
 389 1781 389 1781 389 1809 c 0,27,28
444 606 m 1,43,-1
 844 606 l 1,44,-1
 643 1143 l 1,45,-1
 444 606 l 1,43,-1
EndSplineSet
EndChar

StartChar: Aacute
Encoding: 193 193 131
Width: 1380
GlyphClass: 2
Flags: W
LayerCount: 2
Fore
SplineSet
10 0 m 1,0,-1
 10 88 l 1,1,-1
 129 113 l 1,2,-1
 606 1407 l 1,3,-1
 760 1407 l 1,4,-1
 1235 143 l 2,5,6
 1242 122 1242 122 1248.5 115 c 128,-1,7
 1255 108 1255 108 1278 104 c 2,8,-1
 1370 88 l 1,9,-1
 1370 0 l 1,10,-1
 883 0 l 1,11,-1
 883 88 l 1,12,-1
 1001 98 l 2,13,14
 1011 98 1011 98 1018 111.5 c 128,-1,15
 1025 125 1025 125 1022 133 c 2,16,-1
 881 508 l 1,17,-1
 408 508 l 1,18,-1
 272 139 l 2,19,20
 270 133 270 133 272 126 c 128,-1,21
 274 119 274 119 279 112.5 c 128,-1,22
 284 106 284 106 290 102 c 128,-1,23
 296 98 296 98 301 98 c 2,24,-1
 422 88 l 1,25,-1
 422 0 l 1,26,-1
 10 0 l 1,0,-1
444 606 m 1,27,-1
 844 606 l 1,28,-1
 643 1143 l 1,29,-1
 444 606 l 1,27,-1
504 1528 m 1,30,-1
 776 1846 l 2,31,32
 788 1859 788 1859 798 1869.5 c 128,-1,33
 808 1880 808 1880 820 1887 c 128,-1,34
 832 1894 832 1894 847.5 1897.5 c 128,-1,35
 863 1901 863 1901 885 1901 c 0,36,37
 912 1901 912 1901 930 1892.5 c 128,-1,38
 948 1884 948 1884 959 1871 c 128,-1,39
 970 1858 970 1858 974.5 1841.5 c 128,-1,40
 979 1825 979 1825 979 1809 c 0,41,42
 979 1781 979 1781 965.5 1761 c 128,-1,43
 952 1741 952 1741 932 1727 c 1,44,-1
 620 1528 l 1,45,-1
 504 1528 l 1,30,-1
EndSplineSet
EndChar

StartChar: Acircumflex
Encoding: 194 194 132
Width: 1380
GlyphClass: 2
Flags: W
LayerCount: 2
Fore
SplineSet
10 0 m 1,0,-1
 10 88 l 1,1,-1
 129 113 l 1,2,-1
 606 1407 l 1,3,-1
 760 1407 l 1,4,-1
 1235 143 l 2,5,6
 1242 122 1242 122 1248.5 115 c 128,-1,7
 1255 108 1255 108 1278 104 c 2,8,-1
 1370 88 l 1,9,-1
 1370 0 l 1,10,-1
 883 0 l 1,11,-1
 883 88 l 1,12,-1
 1001 98 l 2,13,14
 1011 98 1011 98 1018 111.5 c 128,-1,15
 1025 125 1025 125 1022 133 c 2,16,-1
 881 508 l 1,17,-1
 408 508 l 1,18,-1
 272 139 l 2,19,20
 270 133 270 133 272 126 c 128,-1,21
 274 119 274 119 279 112.5 c 128,-1,22
 284 106 284 106 290 102 c 128,-1,23
 296 98 296 98 301 98 c 2,24,-1
 422 88 l 1,25,-1
 422 0 l 1,26,-1
 10 0 l 1,0,-1
348 1528 m 1,27,-1
 606 1875 l 1,28,-1
 760 1875 l 1,29,-1
 1018 1528 l 1,30,-1
 895 1528 l 1,31,-1
 684 1731 l 1,32,-1
 471 1528 l 1,33,-1
 348 1528 l 1,27,-1
444 606 m 1,34,-1
 844 606 l 1,35,-1
 643 1143 l 1,36,-1
 444 606 l 1,34,-1
EndSplineSet
EndChar

StartChar: Atilde
Encoding: 195 195 133
Width: 1380
GlyphClass: 2
Flags: W
LayerCount: 2
Fore
SplineSet
10 0 m 1,0,-1
 10 88 l 1,1,-1
 129 113 l 1,2,-1
 606 1407 l 1,3,-1
 760 1407 l 1,4,-1
 1235 143 l 2,5,6
 1242 122 1242 122 1248.5 115 c 128,-1,7
 1255 108 1255 108 1278 104 c 2,8,-1
 1370 88 l 1,9,-1
 1370 0 l 1,10,-1
 883 0 l 1,11,-1
 883 88 l 1,12,-1
 1001 98 l 2,13,14
 1011 98 1011 98 1018 111.5 c 128,-1,15
 1025 125 1025 125 1022 133 c 2,16,-1
 881 508 l 1,17,-1
 408 508 l 1,18,-1
 272 139 l 2,19,20
 270 133 270 133 272 126 c 128,-1,21
 274 119 274 119 279 112.5 c 128,-1,22
 284 106 284 106 290 102 c 128,-1,23
 296 98 296 98 301 98 c 2,24,-1
 422 88 l 1,25,-1
 422 0 l 1,26,-1
 10 0 l 1,0,-1
328 1598 m 1,27,28
 340 1643 340 1643 359.5 1684 c 128,-1,29
 379 1725 379 1725 408.5 1756 c 128,-1,30
 438 1787 438 1787 477 1805 c 128,-1,31
 516 1823 516 1823 566 1823 c 0,32,33
 593 1823 593 1823 615 1815.5 c 128,-1,34
 637 1808 637 1808 657.5 1797.5 c 128,-1,35
 678 1787 678 1787 697.5 1774 c 128,-1,36
 717 1761 717 1761 739.5 1750.5 c 128,-1,37
 762 1740 762 1740 788.5 1732.5 c 128,-1,38
 815 1725 815 1725 848 1725 c 0,39,40
 869 1725 869 1725 887.5 1733.5 c 128,-1,41
 906 1742 906 1742 921 1755.5 c 128,-1,42
 936 1769 936 1769 945.5 1787 c 128,-1,43
 955 1805 955 1805 957 1823 c 1,44,-1
 1039 1823 l 1,45,46
 1027 1778 1027 1778 1007 1737 c 128,-1,47
 987 1696 987 1696 958 1665.5 c 128,-1,48
 929 1635 929 1635 890 1616.5 c 128,-1,49
 851 1598 851 1598 801 1598 c 0,50,51
 774 1598 774 1598 751.5 1605.5 c 128,-1,52
 729 1613 729 1613 708.5 1623.5 c 128,-1,53
 688 1634 688 1634 668 1647 c 128,-1,54
 648 1660 648 1660 625.5 1670.5 c 128,-1,55
 603 1681 603 1681 576 1688.5 c 128,-1,56
 549 1696 549 1696 516 1696 c 0,57,58
 495 1696 495 1696 477 1687.5 c 128,-1,59
 459 1679 459 1679 444.5 1665.5 c 128,-1,60
 430 1652 430 1652 421 1634 c 128,-1,61
 412 1616 412 1616 410 1598 c 1,62,-1
 328 1598 l 1,27,28
444 606 m 1,63,-1
 844 606 l 1,64,-1
 643 1143 l 1,65,-1
 444 606 l 1,63,-1
EndSplineSet
EndChar

StartChar: Adieresis
Encoding: 196 196 134
Width: 1380
GlyphClass: 2
Flags: W
LayerCount: 2
Fore
SplineSet
10 0 m 1,0,-1
 10 88 l 1,1,-1
 129 113 l 1,2,-1
 606 1407 l 1,3,-1
 760 1407 l 1,4,-1
 1235 143 l 2,5,6
 1242 122 1242 122 1248.5 115 c 128,-1,7
 1255 108 1255 108 1278 104 c 2,8,-1
 1370 88 l 1,9,-1
 1370 0 l 1,10,-1
 883 0 l 1,11,-1
 883 88 l 1,12,-1
 1001 98 l 2,13,14
 1011 98 1011 98 1018 111.5 c 128,-1,15
 1025 125 1025 125 1022 133 c 2,16,-1
 881 508 l 1,17,-1
 408 508 l 1,18,-1
 272 139 l 2,19,20
 270 133 270 133 272 126 c 128,-1,21
 274 119 274 119 279 112.5 c 128,-1,22
 284 106 284 106 290 102 c 128,-1,23
 296 98 296 98 301 98 c 2,24,-1
 422 88 l 1,25,-1
 422 0 l 1,26,-1
 10 0 l 1,0,-1
360 1711 m 0,27,28
 360 1733 360 1733 369 1753.5 c 128,-1,29
 378 1774 378 1774 393 1790 c 128,-1,30
 408 1806 408 1806 428 1815.5 c 128,-1,31
 448 1825 448 1825 471 1825 c 256,32,33
 494 1825 494 1825 514.5 1816 c 128,-1,34
 535 1807 535 1807 550 1792 c 128,-1,35
 565 1777 565 1777 574 1756.5 c 128,-1,36
 583 1736 583 1736 583 1713 c 256,37,38
 583 1690 583 1690 574 1669 c 128,-1,39
 565 1648 565 1648 550 1632 c 128,-1,40
 535 1616 535 1616 514.5 1607 c 128,-1,41
 494 1598 494 1598 471 1598 c 256,42,43
 448 1598 448 1598 428 1607 c 128,-1,44
 408 1616 408 1616 393 1632 c 128,-1,45
 378 1648 378 1648 369 1668 c 128,-1,46
 360 1688 360 1688 360 1711 c 0,27,28
444 606 m 1,47,-1
 844 606 l 1,48,-1
 643 1143 l 1,49,-1
 444 606 l 1,47,-1
784 1713 m 0,50,51
 784 1734 784 1734 793 1754.5 c 128,-1,52
 802 1775 802 1775 818 1790.5 c 128,-1,53
 834 1806 834 1806 854 1815.5 c 128,-1,54
 874 1825 874 1825 897 1825 c 256,55,56
 920 1825 920 1825 940 1816 c 128,-1,57
 960 1807 960 1807 975 1791.5 c 128,-1,58
 990 1776 990 1776 998.5 1755.5 c 128,-1,59
 1007 1735 1007 1735 1007 1713 c 0,60,61
 1007 1690 1007 1690 998.5 1669 c 128,-1,62
 990 1648 990 1648 975 1632 c 128,-1,63
 960 1616 960 1616 940 1607 c 128,-1,64
 920 1598 920 1598 897 1598 c 256,65,66
 874 1598 874 1598 853.5 1607 c 128,-1,67
 833 1616 833 1616 817.5 1632 c 128,-1,68
 802 1648 802 1648 793 1669 c 128,-1,69
 784 1690 784 1690 784 1713 c 0,50,51
EndSplineSet
EndChar

StartChar: Aring
Encoding: 197 197 135
Width: 1380
GlyphClass: 2
Flags: W
LayerCount: 2
Fore
SplineSet
10 0 m 1,0,-1
 10 88 l 1,1,-1
 129 113 l 1,2,-1
 606 1407 l 1,3,-1
 760 1407 l 1,4,-1
 1235 143 l 2,5,6
 1242 122 1242 122 1248.5 115 c 128,-1,7
 1255 108 1255 108 1278 104 c 2,8,-1
 1370 88 l 1,9,-1
 1370 0 l 1,10,-1
 883 0 l 1,11,-1
 883 88 l 1,12,-1
 1001 98 l 2,13,14
 1011 98 1011 98 1018 111.5 c 128,-1,15
 1025 125 1025 125 1022 133 c 2,16,-1
 881 508 l 1,17,-1
 408 508 l 1,18,-1
 272 139 l 2,19,20
 270 133 270 133 272 126 c 128,-1,21
 274 119 274 119 279 112.5 c 128,-1,22
 284 106 284 106 290 102 c 128,-1,23
 296 98 296 98 301 98 c 2,24,-1
 422 88 l 1,25,-1
 422 0 l 1,26,-1
 10 0 l 1,0,-1
440 1770 m 0,27,28
 440 1821 440 1821 459 1865.5 c 128,-1,29
 478 1910 478 1910 511 1943.5 c 128,-1,30
 544 1977 544 1977 588.5 1996.5 c 128,-1,31
 633 2016 633 2016 684 2016 c 256,32,33
 735 2016 735 2016 779 1996.5 c 128,-1,34
 823 1977 823 1977 856 1943.5 c 128,-1,35
 889 1910 889 1910 908 1865.5 c 128,-1,36
 927 1821 927 1821 927 1770 c 0,37,38
 927 1720 927 1720 908 1676 c 128,-1,39
 889 1632 889 1632 856 1599 c 128,-1,40
 823 1566 823 1566 779 1547 c 128,-1,41
 735 1528 735 1528 684 1528 c 256,42,43
 633 1528 633 1528 588.5 1547 c 128,-1,44
 544 1566 544 1566 511 1599 c 128,-1,45
 478 1632 478 1632 459 1676 c 128,-1,46
 440 1720 440 1720 440 1770 c 0,27,28
444 606 m 1,47,-1
 844 606 l 1,48,-1
 643 1143 l 1,49,-1
 444 606 l 1,47,-1
540 1770 m 0,50,51
 540 1741 540 1741 551 1715 c 128,-1,52
 562 1689 562 1689 581.5 1669.5 c 128,-1,53
 601 1650 601 1650 627.5 1638.5 c 128,-1,54
 654 1627 654 1627 684 1627 c 256,55,56
 714 1627 714 1627 740 1638.5 c 128,-1,57
 766 1650 766 1650 785.5 1669.5 c 128,-1,58
 805 1689 805 1689 816 1715 c 128,-1,59
 827 1741 827 1741 827 1770 c 0,60,61
 827 1800 827 1800 816 1826.5 c 128,-1,62
 805 1853 805 1853 785.5 1873 c 128,-1,63
 766 1893 766 1893 740 1904.5 c 128,-1,64
 714 1916 714 1916 684 1916 c 256,65,66
 654 1916 654 1916 627.5 1904.5 c 128,-1,67
 601 1893 601 1893 581.5 1873 c 128,-1,68
 562 1853 562 1853 551 1826.5 c 128,-1,69
 540 1800 540 1800 540 1770 c 0,50,51
EndSplineSet
EndChar

StartChar: AE
Encoding: 198 198 136
Width: 1911
GlyphClass: 2
Flags: W
LayerCount: 2
Fore
SplineSet
10 0 m 1,0,-1
 10 88 l 1,1,-1
 119 104 l 1,2,-1
 815 1235 l 2,3,4
 824 1250 824 1250 812 1263 c 128,-1,5
 800 1276 800 1276 786 1278 c 2,6,-1
 686 1288 l 1,7,-1
 686 1374 l 1,8,-1
 1772 1374 l 1,9,-1
 1772 1069 l 1,10,-1
 1653 1069 l 1,11,-1
 1624 1237 l 2,12,13
 1621 1252 1621 1252 1612 1264 c 128,-1,14
 1603 1276 1603 1276 1589 1276 c 2,15,-1
 1192 1276 l 1,16,-1
 1192 766 l 1,17,-1
 1450 764 l 2,18,19
 1464 764 1464 764 1474.5 777 c 128,-1,20
 1485 790 1485 790 1487 801 c 2,21,-1
 1505 942 l 1,22,-1
 1606 942 l 1,23,-1
 1606 485 l 1,24,-1
 1505 485 l 1,25,-1
 1487 629 l 2,26,27
 1485 640 1485 640 1473.5 652 c 128,-1,28
 1462 664 1462 664 1450 664 c 2,29,-1
 1192 664 l 1,30,-1
 1192 100 l 1,31,-1
 1661 100 l 2,32,33
 1667 100 1667 100 1673 104 c 128,-1,34
 1679 108 1679 108 1684.5 114 c 128,-1,35
 1690 120 1690 120 1693.5 127 c 128,-1,36
 1697 134 1697 134 1698 139 c 2,37,-1
 1729 342 l 1,38,-1
 1845 342 l 1,39,-1
 1845 0 l 1,40,-1
 831 0 l 1,41,-1
 831 88 l 1,42,-1
 932 96 l 2,43,44
 954 98 954 98 969.5 112.5 c 128,-1,45
 985 127 985 127 985 141 c 2,46,-1
 985 512 l 1,47,-1
 512 512 l 1,48,-1
 283 141 l 2,49,50
 272 124 272 124 277.5 112 c 128,-1,51
 283 100 283 100 297 98 c 2,52,-1
 414 88 l 1,53,-1
 414 0 l 1,54,-1
 10 0 l 1,0,-1
569 612 m 1,55,-1
 985 612 l 1,56,-1
 985 1280 l 1,57,-1
 569 612 l 1,55,-1
EndSplineSet
EndChar

StartChar: Ccedilla
Encoding: 199 199 137
Width: 1284
GlyphClass: 2
Flags: W
LayerCount: 2
Fore
SplineSet
80 690 m 0,0,1
 80 849 80 849 132 981 c 128,-1,2
 184 1113 184 1113 278 1207.5 c 128,-1,3
 372 1302 372 1302 504 1354.5 c 128,-1,4
 636 1407 636 1407 797 1407 c 0,5,6
 847 1407 847 1407 893.5 1401.5 c 128,-1,7
 940 1396 940 1396 988 1386 c 128,-1,8
 1036 1376 1036 1376 1089 1361 c 128,-1,9
 1142 1346 1142 1346 1204 1327 c 1,10,-1
 1204 1006 l 1,11,-1
 1081 1006 l 1,12,-1
 1051 1192 l 2,13,14
 1049 1206 1049 1206 1037 1220 c 128,-1,15
 1025 1234 1025 1234 1016 1239 c 1,16,17
 1004 1244 1004 1244 984.5 1253 c 128,-1,18
 965 1262 965 1262 938 1270.5 c 128,-1,19
 911 1279 911 1279 878 1285.5 c 128,-1,20
 845 1292 845 1292 807 1292 c 0,21,22
 702 1292 702 1292 612 1253 c 128,-1,23
 522 1214 522 1214 456 1138 c 128,-1,24
 390 1062 390 1062 352.5 949.5 c 128,-1,25
 315 837 315 837 315 690 c 0,26,27
 315 547 315 547 350.5 434 c 128,-1,28
 386 321 386 321 453 242 c 128,-1,29
 520 163 520 163 616 121.5 c 128,-1,30
 712 80 712 80 834 80 c 0,31,32
 870 80 870 80 899.5 85 c 128,-1,33
 929 90 929 90 951 96.5 c 128,-1,34
 973 103 973 103 985 108.5 c 128,-1,35
 997 114 997 114 999 115 c 0,36,37
 1015 121 1015 121 1025 132 c 128,-1,38
 1035 143 1035 143 1038 156 c 2,39,-1
 1085 379 l 1,40,-1
 1204 379 l 1,41,-1
 1204 47 l 1,42,43
 1200 45 1200 45 1165 32.5 c 128,-1,44
 1130 20 1130 20 1074 5.5 c 128,-1,45
 1018 -9 1018 -9 945.5 -21 c 128,-1,46
 873 -33 873 -33 795 -33 c 2,47,-1
 771 -33 l 1,48,-1
 771 -129 l 1,49,50
 782 -127 782 -127 792 -124 c 128,-1,51
 802 -121 802 -121 819 -121 c 0,52,53
 850 -121 850 -121 876.5 -129 c 128,-1,54
 903 -137 903 -137 923 -154.5 c 128,-1,55
 943 -172 943 -172 954.5 -199.5 c 128,-1,56
 966 -227 966 -227 966 -266 c 0,57,58
 966 -314 966 -314 948 -350 c 128,-1,59
 930 -386 930 -386 898.5 -411 c 128,-1,60
 867 -436 867 -436 823.5 -448.5 c 128,-1,61
 780 -461 780 -461 728 -461 c 0,62,63
 701 -461 701 -461 674.5 -458 c 128,-1,64
 648 -455 648 -455 626 -451 c 0,65,66
 600 -447 600 -447 577 -440 c 1,67,-1
 577 -360 l 1,68,69
 598 -365 598 -365 620 -369 c 0,70,71
 639 -372 639 -372 660.5 -374.5 c 128,-1,72
 682 -377 682 -377 702 -377 c 0,73,74
 726 -377 726 -377 749.5 -372.5 c 128,-1,75
 773 -368 773 -368 791.5 -358.5 c 128,-1,76
 810 -349 810 -349 821.5 -333 c 128,-1,77
 833 -317 833 -317 833 -293 c 0,78,79
 833 -255 833 -255 806 -236 c 128,-1,80
 779 -217 779 -217 737 -217 c 0,81,82
 729 -217 729 -217 721 -219 c 128,-1,83
 713 -221 713 -221 706 -223 c 2,84,-1
 690 -229 l 1,85,-1
 690 -27 l 1,86,87
 634 -20 634 -20 582 -5 c 0,88,89
 485 22 485 22 405.5 71 c 128,-1,90
 326 120 326 120 265.5 188 c 128,-1,91
 205 256 205 256 163.5 336 c 128,-1,92
 122 416 122 416 101 506 c 128,-1,93
 80 596 80 596 80 690 c 0,0,1
EndSplineSet
EndChar

StartChar: Egrave
Encoding: 200 200 138
Width: 1194
GlyphClass: 2
Flags: W
LayerCount: 2
Fore
SplineSet
66 0 m 1,0,-1
 66 88 l 1,1,-1
 172 96 l 2,2,3
 194 98 194 98 205.5 112 c 128,-1,4
 217 126 217 126 217 141 c 2,5,-1
 217 1233 l 2,6,7
 217 1248 217 1248 205.5 1262 c 128,-1,8
 194 1276 194 1276 172 1278 c 2,9,-1
 66 1286 l 1,10,-1
 66 1374 l 1,11,-1
 1061 1374 l 1,12,-1
 1061 1069 l 1,13,-1
 938 1069 l 1,14,-1
 907 1237 l 2,15,16
 905 1252 905 1252 894.5 1264 c 128,-1,17
 884 1276 884 1276 870 1276 c 2,18,-1
 426 1276 l 1,19,-1
 426 766 l 1,20,-1
 733 766 l 2,21,22
 747 766 747 766 758.5 778 c 128,-1,23
 770 790 770 790 770 801 c 1,24,-1
 791 942 l 1,25,-1
 895 942 l 1,26,-1
 895 485 l 1,27,-1
 791 485 l 1,28,-1
 770 627 l 1,29,30
 770 638 770 638 758 651 c 128,-1,31
 746 664 746 664 733 664 c 2,32,-1
 426 664 l 1,33,-1
 426 100 l 1,34,-1
 944 100 l 2,35,36
 957 100 957 100 968 114 c 128,-1,37
 979 128 979 128 981 139 c 2,38,-1
 1018 342 l 1,39,-1
 1128 342 l 1,40,-1
 1128 0 l 1,41,-1
 66 0 l 1,0,-1
303 1809 m 0,42,43
 303 1825 303 1825 308 1841.5 c 128,-1,44
 313 1858 313 1858 324 1871 c 128,-1,45
 335 1884 335 1884 353 1892.5 c 128,-1,46
 371 1901 371 1901 397 1901 c 0,47,48
 419 1901 419 1901 434 1897.5 c 128,-1,49
 449 1894 449 1894 461 1887 c 128,-1,50
 473 1880 473 1880 483 1869.5 c 128,-1,51
 493 1859 493 1859 504 1846 c 2,52,-1
 778 1528 l 1,53,-1
 661 1528 l 1,54,-1
 350 1727 l 2,55,56
 328 1741 328 1741 315.5 1761 c 128,-1,57
 303 1781 303 1781 303 1809 c 0,42,43
EndSplineSet
EndChar

StartChar: Eacute
Encoding: 201 201 139
Width: 1194
GlyphClass: 2
Flags: W
LayerCount: 2
Fore
SplineSet
66 0 m 1,0,-1
 66 88 l 1,1,-1
 172 96 l 2,2,3
 194 98 194 98 205.5 112 c 128,-1,4
 217 126 217 126 217 141 c 2,5,-1
 217 1233 l 2,6,7
 217 1248 217 1248 205.5 1262 c 128,-1,8
 194 1276 194 1276 172 1278 c 2,9,-1
 66 1286 l 1,10,-1
 66 1374 l 1,11,-1
 1061 1374 l 1,12,-1
 1061 1069 l 1,13,-1
 938 1069 l 1,14,-1
 907 1237 l 2,15,16
 905 1252 905 1252 894.5 1264 c 128,-1,17
 884 1276 884 1276 870 1276 c 2,18,-1
 426 1276 l 1,19,-1
 426 766 l 1,20,-1
 733 766 l 2,21,22
 747 766 747 766 758.5 778 c 128,-1,23
 770 790 770 790 770 801 c 1,24,-1
 791 942 l 1,25,-1
 895 942 l 1,26,-1
 895 485 l 1,27,-1
 791 485 l 1,28,-1
 770 627 l 1,29,30
 770 638 770 638 758 651 c 128,-1,31
 746 664 746 664 733 664 c 2,32,-1
 426 664 l 1,33,-1
 426 100 l 1,34,-1
 944 100 l 2,35,36
 957 100 957 100 968 114 c 128,-1,37
 979 128 979 128 981 139 c 2,38,-1
 1018 342 l 1,39,-1
 1128 342 l 1,40,-1
 1128 0 l 1,41,-1
 66 0 l 1,0,-1
418 1528 m 1,42,-1
 690 1846 l 2,43,44
 702 1859 702 1859 712 1869.5 c 128,-1,45
 722 1880 722 1880 734 1887 c 128,-1,46
 746 1894 746 1894 761.5 1897.5 c 128,-1,47
 777 1901 777 1901 799 1901 c 0,48,49
 826 1901 826 1901 844 1892.5 c 128,-1,50
 862 1884 862 1884 873 1871 c 128,-1,51
 884 1858 884 1858 888.5 1841.5 c 128,-1,52
 893 1825 893 1825 893 1809 c 0,53,54
 893 1781 893 1781 879.5 1761 c 128,-1,55
 866 1741 866 1741 846 1727 c 1,56,-1
 534 1528 l 1,57,-1
 418 1528 l 1,42,-1
EndSplineSet
EndChar

StartChar: Ecircumflex
Encoding: 202 202 140
Width: 1194
GlyphClass: 2
Flags: W
LayerCount: 2
Fore
SplineSet
66 0 m 1,0,-1
 66 88 l 1,1,-1
 172 96 l 2,2,3
 194 98 194 98 205.5 112 c 128,-1,4
 217 126 217 126 217 141 c 2,5,-1
 217 1233 l 2,6,7
 217 1248 217 1248 205.5 1262 c 128,-1,8
 194 1276 194 1276 172 1278 c 2,9,-1
 66 1286 l 1,10,-1
 66 1374 l 1,11,-1
 1061 1374 l 1,12,-1
 1061 1069 l 1,13,-1
 938 1069 l 1,14,-1
 907 1237 l 2,15,16
 905 1252 905 1252 894.5 1264 c 128,-1,17
 884 1276 884 1276 870 1276 c 2,18,-1
 426 1276 l 1,19,-1
 426 766 l 1,20,-1
 733 766 l 2,21,22
 747 766 747 766 758.5 778 c 128,-1,23
 770 790 770 790 770 801 c 1,24,-1
 791 942 l 1,25,-1
 895 942 l 1,26,-1
 895 485 l 1,27,-1
 791 485 l 1,28,-1
 770 627 l 1,29,30
 770 638 770 638 758 651 c 128,-1,31
 746 664 746 664 733 664 c 2,32,-1
 426 664 l 1,33,-1
 426 100 l 1,34,-1
 944 100 l 2,35,36
 957 100 957 100 968 114 c 128,-1,37
 979 128 979 128 981 139 c 2,38,-1
 1018 342 l 1,39,-1
 1128 342 l 1,40,-1
 1128 0 l 1,41,-1
 66 0 l 1,0,-1
262 1528 m 1,42,-1
 520 1875 l 1,43,-1
 674 1875 l 1,44,-1
 932 1528 l 1,45,-1
 809 1528 l 1,46,-1
 598 1731 l 1,47,-1
 385 1528 l 1,48,-1
 262 1528 l 1,42,-1
EndSplineSet
EndChar

StartChar: Edieresis
Encoding: 203 203 141
Width: 1194
GlyphClass: 2
Flags: W
LayerCount: 2
Fore
SplineSet
66 0 m 1,0,-1
 66 88 l 1,1,-1
 172 96 l 2,2,3
 194 98 194 98 205.5 112 c 128,-1,4
 217 126 217 126 217 141 c 2,5,-1
 217 1233 l 2,6,7
 217 1248 217 1248 205.5 1262 c 128,-1,8
 194 1276 194 1276 172 1278 c 2,9,-1
 66 1286 l 1,10,-1
 66 1374 l 1,11,-1
 1061 1374 l 1,12,-1
 1061 1069 l 1,13,-1
 938 1069 l 1,14,-1
 907 1237 l 2,15,16
 905 1252 905 1252 894.5 1264 c 128,-1,17
 884 1276 884 1276 870 1276 c 2,18,-1
 426 1276 l 1,19,-1
 426 766 l 1,20,-1
 733 766 l 2,21,22
 747 766 747 766 758.5 778 c 128,-1,23
 770 790 770 790 770 801 c 1,24,-1
 791 942 l 1,25,-1
 895 942 l 1,26,-1
 895 485 l 1,27,-1
 791 485 l 1,28,-1
 770 627 l 1,29,30
 770 638 770 638 758 651 c 128,-1,31
 746 664 746 664 733 664 c 2,32,-1
 426 664 l 1,33,-1
 426 100 l 1,34,-1
 944 100 l 2,35,36
 957 100 957 100 968 114 c 128,-1,37
 979 128 979 128 981 139 c 2,38,-1
 1018 342 l 1,39,-1
 1128 342 l 1,40,-1
 1128 0 l 1,41,-1
 66 0 l 1,0,-1
274 1711 m 0,42,43
 274 1733 274 1733 283 1753.5 c 128,-1,44
 292 1774 292 1774 307 1790 c 128,-1,45
 322 1806 322 1806 342 1815.5 c 128,-1,46
 362 1825 362 1825 385 1825 c 256,47,48
 408 1825 408 1825 428.5 1816 c 128,-1,49
 449 1807 449 1807 464 1792 c 128,-1,50
 479 1777 479 1777 488 1756.5 c 128,-1,51
 497 1736 497 1736 497 1713 c 256,52,53
 497 1690 497 1690 488 1669 c 128,-1,54
 479 1648 479 1648 464 1632 c 128,-1,55
 449 1616 449 1616 428.5 1607 c 128,-1,56
 408 1598 408 1598 385 1598 c 256,57,58
 362 1598 362 1598 342 1607 c 128,-1,59
 322 1616 322 1616 307 1632 c 128,-1,60
 292 1648 292 1648 283 1668 c 128,-1,61
 274 1688 274 1688 274 1711 c 0,42,43
698 1713 m 0,62,63
 698 1734 698 1734 707 1754.5 c 128,-1,64
 716 1775 716 1775 732 1790.5 c 128,-1,65
 748 1806 748 1806 768 1815.5 c 128,-1,66
 788 1825 788 1825 811 1825 c 256,67,68
 834 1825 834 1825 854 1816 c 128,-1,69
 874 1807 874 1807 889 1791.5 c 128,-1,70
 904 1776 904 1776 912.5 1755.5 c 128,-1,71
 921 1735 921 1735 921 1713 c 0,72,73
 921 1690 921 1690 912.5 1669 c 128,-1,74
 904 1648 904 1648 889 1632 c 128,-1,75
 874 1616 874 1616 854 1607 c 128,-1,76
 834 1598 834 1598 811 1598 c 256,77,78
 788 1598 788 1598 767.5 1607 c 128,-1,79
 747 1616 747 1616 731.5 1632 c 128,-1,80
 716 1648 716 1648 707 1669 c 128,-1,81
 698 1690 698 1690 698 1713 c 0,62,63
EndSplineSet
EndChar

StartChar: Igrave
Encoding: 204 204 142
Width: 676
GlyphClass: 2
Flags: W
LayerCount: 2
Fore
SplineSet
44 1809 m 0,0,1
 44 1825 44 1825 49 1841.5 c 128,-1,2
 54 1858 54 1858 65 1871 c 128,-1,3
 76 1884 76 1884 94 1892.5 c 128,-1,4
 112 1901 112 1901 138 1901 c 0,5,6
 160 1901 160 1901 175 1897.5 c 128,-1,7
 190 1894 190 1894 202 1887 c 128,-1,8
 214 1880 214 1880 224 1869.5 c 128,-1,9
 234 1859 234 1859 245 1846 c 2,10,-1
 519 1528 l 1,11,-1
 402 1528 l 1,12,-1
 91 1727 l 2,13,14
 69 1741 69 1741 56.5 1761 c 128,-1,15
 44 1781 44 1781 44 1809 c 0,0,1
68 0 m 1,16,-1
 68 88 l 1,17,-1
 190 96 l 2,18,19
 212 98 212 98 222.5 112 c 128,-1,20
 233 126 233 126 233 141 c 2,21,-1
 233 1233 l 2,22,23
 233 1248 233 1248 222.5 1261 c 128,-1,24
 212 1274 212 1274 190 1276 c 2,25,-1
 68 1284 l 1,26,-1
 68 1374 l 1,27,-1
 608 1374 l 1,28,-1
 608 1284 l 1,29,-1
 483 1276 l 2,30,31
 462 1274 462 1274 451 1261 c 128,-1,32
 440 1248 440 1248 440 1233 c 2,33,-1
 440 141 l 2,34,35
 440 126 440 126 451 112 c 128,-1,36
 462 98 462 98 483 96 c 2,37,-1
 608 88 l 1,38,-1
 608 0 l 1,39,-1
 68 0 l 1,16,-1
EndSplineSet
EndChar

StartChar: Iacute
Encoding: 205 205 143
Width: 676
GlyphClass: 2
Flags: W
LayerCount: 2
Fore
SplineSet
68 0 m 1,0,-1
 68 88 l 1,1,-1
 190 96 l 2,2,3
 212 98 212 98 222.5 112 c 128,-1,4
 233 126 233 126 233 141 c 2,5,-1
 233 1233 l 2,6,7
 233 1248 233 1248 222.5 1261 c 128,-1,8
 212 1274 212 1274 190 1276 c 2,9,-1
 68 1284 l 1,10,-1
 68 1374 l 1,11,-1
 608 1374 l 1,12,-1
 608 1284 l 1,13,-1
 483 1276 l 2,14,15
 462 1274 462 1274 451 1261 c 128,-1,16
 440 1248 440 1248 440 1233 c 2,17,-1
 440 141 l 2,18,19
 440 126 440 126 451 112 c 128,-1,20
 462 98 462 98 483 96 c 2,21,-1
 608 88 l 1,22,-1
 608 0 l 1,23,-1
 68 0 l 1,0,-1
159 1528 m 1,24,-1
 431 1846 l 2,25,26
 443 1859 443 1859 453 1869.5 c 128,-1,27
 463 1880 463 1880 475 1887 c 128,-1,28
 487 1894 487 1894 502.5 1897.5 c 128,-1,29
 518 1901 518 1901 540 1901 c 0,30,31
 567 1901 567 1901 585 1892.5 c 128,-1,32
 603 1884 603 1884 614 1871 c 128,-1,33
 625 1858 625 1858 629.5 1841.5 c 128,-1,34
 634 1825 634 1825 634 1809 c 0,35,36
 634 1781 634 1781 620.5 1761 c 128,-1,37
 607 1741 607 1741 587 1727 c 1,38,-1
 275 1528 l 1,39,-1
 159 1528 l 1,24,-1
EndSplineSet
EndChar

StartChar: Icircumflex
Encoding: 206 206 144
Width: 676
GlyphClass: 2
Flags: W
LayerCount: 2
Fore
SplineSet
3 1528 m 1,0,-1
 261 1875 l 1,1,-1
 415 1875 l 1,2,-1
 673 1528 l 1,3,-1
 550 1528 l 1,4,-1
 339 1731 l 1,5,-1
 126 1528 l 1,6,-1
 3 1528 l 1,0,-1
68 0 m 1,7,-1
 68 88 l 1,8,-1
 190 96 l 2,9,10
 212 98 212 98 222.5 112 c 128,-1,11
 233 126 233 126 233 141 c 2,12,-1
 233 1233 l 2,13,14
 233 1248 233 1248 222.5 1261 c 128,-1,15
 212 1274 212 1274 190 1276 c 2,16,-1
 68 1284 l 1,17,-1
 68 1374 l 1,18,-1
 608 1374 l 1,19,-1
 608 1284 l 1,20,-1
 483 1276 l 2,21,22
 462 1274 462 1274 451 1261 c 128,-1,23
 440 1248 440 1248 440 1233 c 2,24,-1
 440 141 l 2,25,26
 440 126 440 126 451 112 c 128,-1,27
 462 98 462 98 483 96 c 2,28,-1
 608 88 l 1,29,-1
 608 0 l 1,30,-1
 68 0 l 1,7,-1
EndSplineSet
EndChar

StartChar: Idieresis
Encoding: 207 207 145
Width: 676
GlyphClass: 2
Flags: W
LayerCount: 2
Fore
SplineSet
15 1711 m 0,0,1
 15 1733 15 1733 24 1753.5 c 128,-1,2
 33 1774 33 1774 48 1790 c 128,-1,3
 63 1806 63 1806 83 1815.5 c 128,-1,4
 103 1825 103 1825 126 1825 c 256,5,6
 149 1825 149 1825 169.5 1816 c 128,-1,7
 190 1807 190 1807 205 1792 c 128,-1,8
 220 1777 220 1777 229 1756.5 c 128,-1,9
 238 1736 238 1736 238 1713 c 256,10,11
 238 1690 238 1690 229 1669 c 128,-1,12
 220 1648 220 1648 205 1632 c 128,-1,13
 190 1616 190 1616 169.5 1607 c 128,-1,14
 149 1598 149 1598 126 1598 c 256,15,16
 103 1598 103 1598 83 1607 c 128,-1,17
 63 1616 63 1616 48 1632 c 128,-1,18
 33 1648 33 1648 24 1668 c 128,-1,19
 15 1688 15 1688 15 1711 c 0,0,1
68 0 m 1,20,-1
 68 88 l 1,21,-1
 190 96 l 2,22,23
 212 98 212 98 222.5 112 c 128,-1,24
 233 126 233 126 233 141 c 2,25,-1
 233 1233 l 2,26,27
 233 1248 233 1248 222.5 1261 c 128,-1,28
 212 1274 212 1274 190 1276 c 2,29,-1
 68 1284 l 1,30,-1
 68 1374 l 1,31,-1
 608 1374 l 1,32,-1
 608 1284 l 1,33,-1
 483 1276 l 2,34,35
 462 1274 462 1274 451 1261 c 128,-1,36
 440 1248 440 1248 440 1233 c 2,37,-1
 440 141 l 2,38,39
 440 126 440 126 451 112 c 128,-1,40
 462 98 462 98 483 96 c 2,41,-1
 608 88 l 1,42,-1
 608 0 l 1,43,-1
 68 0 l 1,20,-1
439 1713 m 0,44,45
 439 1734 439 1734 448 1754.5 c 128,-1,46
 457 1775 457 1775 473 1790.5 c 128,-1,47
 489 1806 489 1806 509 1815.5 c 128,-1,48
 529 1825 529 1825 552 1825 c 256,49,50
 575 1825 575 1825 595 1816 c 128,-1,51
 615 1807 615 1807 630 1791.5 c 128,-1,52
 645 1776 645 1776 653.5 1755.5 c 128,-1,53
 662 1735 662 1735 662 1713 c 0,54,55
 662 1690 662 1690 653.5 1669 c 128,-1,56
 645 1648 645 1648 630 1632 c 128,-1,57
 615 1616 615 1616 595 1607 c 128,-1,58
 575 1598 575 1598 552 1598 c 256,59,60
 529 1598 529 1598 508.5 1607 c 128,-1,61
 488 1616 488 1616 472.5 1632 c 128,-1,62
 457 1648 457 1648 448 1669 c 128,-1,63
 439 1690 439 1690 439 1713 c 0,44,45
EndSplineSet
EndChar

StartChar: Eth
Encoding: 208 208 146
Width: 1425
GlyphClass: 2
Flags: W
LayerCount: 2
Fore
SplineSet
29 668 m 1,0,-1
 29 772 l 1,1,-1
 219 772 l 1,2,-1
 219 1233 l 2,3,4
 219 1248 219 1248 207.5 1262 c 128,-1,5
 196 1276 196 1276 174 1278 c 2,6,-1
 66 1286 l 1,7,-1
 66 1374 l 1,8,-1
 594 1374 l 2,9,10
 755 1374 755 1374 893 1333.5 c 128,-1,11
 1031 1293 1031 1293 1131.5 1209 c 128,-1,12
 1232 1125 1232 1125 1289 996 c 128,-1,13
 1346 867 1346 867 1346 690 c 0,14,15
 1346 600 1346 600 1329 514.5 c 128,-1,16
 1312 429 1312 429 1276 352 c 128,-1,17
 1240 275 1240 275 1183.5 210.5 c 128,-1,18
 1127 146 1127 146 1048 99 c 128,-1,19
 969 52 969 52 866.5 26 c 128,-1,20
 764 0 764 0 635 0 c 2,21,-1
 66 0 l 1,22,-1
 66 88 l 1,23,-1
 174 96 l 2,24,25
 196 98 196 98 207.5 112 c 128,-1,26
 219 126 219 126 219 141 c 2,27,-1
 219 668 l 1,28,-1
 29 668 l 1,0,-1
426 98 m 1,29,-1
 592 100 l 2,30,31
 710 101 710 101 806.5 133.5 c 128,-1,32
 903 166 903 166 971 236 c 128,-1,33
 1039 306 1039 306 1076.5 417 c 128,-1,34
 1114 528 1114 528 1114 686 c 0,35,36
 1114 847 1114 847 1076.5 959.5 c 128,-1,37
 1039 1072 1039 1072 969.5 1142.5 c 128,-1,38
 900 1213 900 1213 801.5 1244.5 c 128,-1,39
 703 1276 703 1276 582 1276 c 2,40,-1
 426 1276 l 1,41,-1
 426 772 l 1,42,-1
 750 772 l 1,43,-1
 750 668 l 1,44,-1
 426 668 l 1,45,-1
 426 98 l 1,29,-1
EndSplineSet
EndChar

StartChar: Ntilde
Encoding: 209 209 147
Width: 1477
GlyphClass: 2
Flags: W
LayerCount: 2
Fore
SplineSet
51 1286 m 1,0,-1
 51 1374 l 1,1,-1
 457 1374 l 1,2,-1
 457 1323 l 1,3,-1
 1139 293 l 1,4,-1
 1139 1233 l 2,5,6
 1139 1248 1139 1248 1128 1262 c 128,-1,7
 1117 1276 1117 1276 1096 1278 c 2,8,-1
 979 1286 l 1,9,-1
 979 1374 l 1,10,-1
 1417 1374 l 1,11,-1
 1417 1286 l 1,12,-1
 1303 1278 l 2,13,14
 1281 1276 1281 1276 1270.5 1262 c 128,-1,15
 1260 1248 1260 1248 1260 1233 c 2,16,-1
 1260 0 l 1,17,-1
 1100 0 l 1,18,-1
 338 1147 l 1,19,-1
 338 141 l 2,20,21
 338 126 338 126 348.5 112 c 128,-1,22
 359 98 359 98 381 96 c 2,23,-1
 498 88 l 1,24,-1
 498 0 l 1,25,-1
 55 0 l 1,26,-1
 55 88 l 1,27,-1
 172 96 l 2,28,29
 194 98 194 98 205.5 112 c 128,-1,30
 217 126 217 126 217 141 c 2,31,-1
 217 1233 l 2,32,33
 217 1248 217 1248 205.5 1262 c 128,-1,34
 194 1276 194 1276 172 1278 c 2,35,-1
 51 1286 l 1,0,-1
379 1598 m 1,36,37
 391 1643 391 1643 410.5 1684 c 128,-1,38
 430 1725 430 1725 459.5 1756 c 128,-1,39
 489 1787 489 1787 528 1805 c 128,-1,40
 567 1823 567 1823 617 1823 c 0,41,42
 644 1823 644 1823 666 1815.5 c 128,-1,43
 688 1808 688 1808 708.5 1797.5 c 128,-1,44
 729 1787 729 1787 748.5 1774 c 128,-1,45
 768 1761 768 1761 790.5 1750.5 c 128,-1,46
 813 1740 813 1740 839.5 1732.5 c 128,-1,47
 866 1725 866 1725 899 1725 c 0,48,49
 920 1725 920 1725 938.5 1733.5 c 128,-1,50
 957 1742 957 1742 972 1755.5 c 128,-1,51
 987 1769 987 1769 996.5 1787 c 128,-1,52
 1006 1805 1006 1805 1008 1823 c 1,53,-1
 1090 1823 l 1,54,55
 1078 1778 1078 1778 1058 1737 c 128,-1,56
 1038 1696 1038 1696 1009 1665.5 c 128,-1,57
 980 1635 980 1635 941 1616.5 c 128,-1,58
 902 1598 902 1598 852 1598 c 0,59,60
 825 1598 825 1598 802.5 1605.5 c 128,-1,61
 780 1613 780 1613 759.5 1623.5 c 128,-1,62
 739 1634 739 1634 719 1647 c 128,-1,63
 699 1660 699 1660 676.5 1670.5 c 128,-1,64
 654 1681 654 1681 627 1688.5 c 128,-1,65
 600 1696 600 1696 567 1696 c 0,66,67
 546 1696 546 1696 528 1687.5 c 128,-1,68
 510 1679 510 1679 495.5 1665.5 c 128,-1,69
 481 1652 481 1652 472 1634 c 128,-1,70
 463 1616 463 1616 461 1598 c 1,71,-1
 379 1598 l 1,36,37
EndSplineSet
EndChar

StartChar: Ograve
Encoding: 210 210 148
Width: 1497
GlyphClass: 2
Flags: W
LayerCount: 2
Fore
SplineSet
80 688 m 0,0,1
 80 838 80 838 127 969 c 128,-1,2
 174 1100 174 1100 261 1197.5 c 128,-1,3
 348 1295 348 1295 471.5 1351 c 128,-1,4
 595 1407 595 1407 748 1407 c 0,5,6
 900 1407 900 1407 1023.5 1350 c 128,-1,7
 1147 1293 1147 1293 1234.5 1195 c 128,-1,8
 1322 1097 1322 1097 1369.5 966 c 128,-1,9
 1417 835 1417 835 1417 686 c 256,10,11
 1417 537 1417 537 1369 406 c 128,-1,12
 1321 275 1321 275 1233.5 177.5 c 128,-1,13
 1146 80 1146 80 1023 23.5 c 128,-1,14
 900 -33 900 -33 750 -33 c 0,15,16
 599 -33 599 -33 475.5 21.5 c 128,-1,17
 352 76 352 76 264 173 c 128,-1,18
 176 270 176 270 128 401.5 c 128,-1,19
 80 533 80 533 80 688 c 0,0,1
315 688 m 0,20,21
 315 565 315 565 341.5 454.5 c 128,-1,22
 368 344 368 344 421.5 261 c 128,-1,23
 475 178 475 178 555.5 129 c 128,-1,24
 636 80 636 80 745 80 c 0,25,26
 856 80 856 80 937.5 129 c 128,-1,27
 1019 178 1019 178 1073 260.5 c 128,-1,28
 1127 343 1127 343 1153.5 452.5 c 128,-1,29
 1180 562 1180 562 1180 684 c 0,30,31
 1180 809 1180 809 1153 919.5 c 128,-1,32
 1126 1030 1126 1030 1072 1112.5 c 128,-1,33
 1018 1195 1018 1195 937.5 1242.5 c 128,-1,34
 857 1290 857 1290 750 1290 c 0,35,36
 639 1290 639 1290 557 1242 c 128,-1,37
 475 1194 475 1194 421 1111.5 c 128,-1,38
 367 1029 367 1029 341 919.5 c 128,-1,39
 315 810 315 810 315 688 c 0,20,21
454 1809 m 0,40,41
 454 1825 454 1825 459 1841.5 c 128,-1,42
 464 1858 464 1858 475 1871 c 128,-1,43
 486 1884 486 1884 504 1892.5 c 128,-1,44
 522 1901 522 1901 548 1901 c 0,45,46
 570 1901 570 1901 585 1897.5 c 128,-1,47
 600 1894 600 1894 612 1887 c 128,-1,48
 624 1880 624 1880 634 1869.5 c 128,-1,49
 644 1859 644 1859 655 1846 c 2,50,-1
 929 1528 l 1,51,-1
 812 1528 l 1,52,-1
 501 1727 l 2,53,54
 479 1741 479 1741 466.5 1761 c 128,-1,55
 454 1781 454 1781 454 1809 c 0,40,41
EndSplineSet
EndChar

StartChar: Oacute
Encoding: 211 211 149
Width: 1497
GlyphClass: 2
Flags: W
LayerCount: 2
Fore
SplineSet
80 688 m 0,0,1
 80 838 80 838 127 969 c 128,-1,2
 174 1100 174 1100 261 1197.5 c 128,-1,3
 348 1295 348 1295 471.5 1351 c 128,-1,4
 595 1407 595 1407 748 1407 c 0,5,6
 900 1407 900 1407 1023.5 1350 c 128,-1,7
 1147 1293 1147 1293 1234.5 1195 c 128,-1,8
 1322 1097 1322 1097 1369.5 966 c 128,-1,9
 1417 835 1417 835 1417 686 c 256,10,11
 1417 537 1417 537 1369 406 c 128,-1,12
 1321 275 1321 275 1233.5 177.5 c 128,-1,13
 1146 80 1146 80 1023 23.5 c 128,-1,14
 900 -33 900 -33 750 -33 c 0,15,16
 599 -33 599 -33 475.5 21.5 c 128,-1,17
 352 76 352 76 264 173 c 128,-1,18
 176 270 176 270 128 401.5 c 128,-1,19
 80 533 80 533 80 688 c 0,0,1
315 688 m 0,20,21
 315 565 315 565 341.5 454.5 c 128,-1,22
 368 344 368 344 421.5 261 c 128,-1,23
 475 178 475 178 555.5 129 c 128,-1,24
 636 80 636 80 745 80 c 0,25,26
 856 80 856 80 937.5 129 c 128,-1,27
 1019 178 1019 178 1073 260.5 c 128,-1,28
 1127 343 1127 343 1153.5 452.5 c 128,-1,29
 1180 562 1180 562 1180 684 c 0,30,31
 1180 809 1180 809 1153 919.5 c 128,-1,32
 1126 1030 1126 1030 1072 1112.5 c 128,-1,33
 1018 1195 1018 1195 937.5 1242.5 c 128,-1,34
 857 1290 857 1290 750 1290 c 0,35,36
 639 1290 639 1290 557 1242 c 128,-1,37
 475 1194 475 1194 421 1111.5 c 128,-1,38
 367 1029 367 1029 341 919.5 c 128,-1,39
 315 810 315 810 315 688 c 0,20,21
569 1528 m 1,40,-1
 841 1846 l 2,41,42
 853 1859 853 1859 863 1869.5 c 128,-1,43
 873 1880 873 1880 885 1887 c 128,-1,44
 897 1894 897 1894 912.5 1897.5 c 128,-1,45
 928 1901 928 1901 950 1901 c 0,46,47
 977 1901 977 1901 995 1892.5 c 128,-1,48
 1013 1884 1013 1884 1024 1871 c 128,-1,49
 1035 1858 1035 1858 1039.5 1841.5 c 128,-1,50
 1044 1825 1044 1825 1044 1809 c 0,51,52
 1044 1781 1044 1781 1030.5 1761 c 128,-1,53
 1017 1741 1017 1741 997 1727 c 1,54,-1
 685 1528 l 1,55,-1
 569 1528 l 1,40,-1
EndSplineSet
EndChar

StartChar: Ocircumflex
Encoding: 212 212 150
Width: 1497
GlyphClass: 2
Flags: W
LayerCount: 2
Fore
SplineSet
80 688 m 0,0,1
 80 838 80 838 127 969 c 128,-1,2
 174 1100 174 1100 261 1197.5 c 128,-1,3
 348 1295 348 1295 471.5 1351 c 128,-1,4
 595 1407 595 1407 748 1407 c 0,5,6
 900 1407 900 1407 1023.5 1350 c 128,-1,7
 1147 1293 1147 1293 1234.5 1195 c 128,-1,8
 1322 1097 1322 1097 1369.5 966 c 128,-1,9
 1417 835 1417 835 1417 686 c 256,10,11
 1417 537 1417 537 1369 406 c 128,-1,12
 1321 275 1321 275 1233.5 177.5 c 128,-1,13
 1146 80 1146 80 1023 23.5 c 128,-1,14
 900 -33 900 -33 750 -33 c 0,15,16
 599 -33 599 -33 475.5 21.5 c 128,-1,17
 352 76 352 76 264 173 c 128,-1,18
 176 270 176 270 128 401.5 c 128,-1,19
 80 533 80 533 80 688 c 0,0,1
315 688 m 0,20,21
 315 565 315 565 341.5 454.5 c 128,-1,22
 368 344 368 344 421.5 261 c 128,-1,23
 475 178 475 178 555.5 129 c 128,-1,24
 636 80 636 80 745 80 c 0,25,26
 856 80 856 80 937.5 129 c 128,-1,27
 1019 178 1019 178 1073 260.5 c 128,-1,28
 1127 343 1127 343 1153.5 452.5 c 128,-1,29
 1180 562 1180 562 1180 684 c 0,30,31
 1180 809 1180 809 1153 919.5 c 128,-1,32
 1126 1030 1126 1030 1072 1112.5 c 128,-1,33
 1018 1195 1018 1195 937.5 1242.5 c 128,-1,34
 857 1290 857 1290 750 1290 c 0,35,36
 639 1290 639 1290 557 1242 c 128,-1,37
 475 1194 475 1194 421 1111.5 c 128,-1,38
 367 1029 367 1029 341 919.5 c 128,-1,39
 315 810 315 810 315 688 c 0,20,21
413 1528 m 1,40,-1
 671 1875 l 1,41,-1
 825 1875 l 1,42,-1
 1083 1528 l 1,43,-1
 960 1528 l 1,44,-1
 749 1731 l 1,45,-1
 536 1528 l 1,46,-1
 413 1528 l 1,40,-1
EndSplineSet
EndChar

StartChar: Otilde
Encoding: 213 213 151
Width: 1497
GlyphClass: 2
Flags: W
LayerCount: 2
Fore
SplineSet
80 688 m 0,0,1
 80 838 80 838 127 969 c 128,-1,2
 174 1100 174 1100 261 1197.5 c 128,-1,3
 348 1295 348 1295 471.5 1351 c 128,-1,4
 595 1407 595 1407 748 1407 c 0,5,6
 900 1407 900 1407 1023.5 1350 c 128,-1,7
 1147 1293 1147 1293 1234.5 1195 c 128,-1,8
 1322 1097 1322 1097 1369.5 966 c 128,-1,9
 1417 835 1417 835 1417 686 c 256,10,11
 1417 537 1417 537 1369 406 c 128,-1,12
 1321 275 1321 275 1233.5 177.5 c 128,-1,13
 1146 80 1146 80 1023 23.5 c 128,-1,14
 900 -33 900 -33 750 -33 c 0,15,16
 599 -33 599 -33 475.5 21.5 c 128,-1,17
 352 76 352 76 264 173 c 128,-1,18
 176 270 176 270 128 401.5 c 128,-1,19
 80 533 80 533 80 688 c 0,0,1
315 688 m 0,20,21
 315 565 315 565 341.5 454.5 c 128,-1,22
 368 344 368 344 421.5 261 c 128,-1,23
 475 178 475 178 555.5 129 c 128,-1,24
 636 80 636 80 745 80 c 0,25,26
 856 80 856 80 937.5 129 c 128,-1,27
 1019 178 1019 178 1073 260.5 c 128,-1,28
 1127 343 1127 343 1153.5 452.5 c 128,-1,29
 1180 562 1180 562 1180 684 c 0,30,31
 1180 809 1180 809 1153 919.5 c 128,-1,32
 1126 1030 1126 1030 1072 1112.5 c 128,-1,33
 1018 1195 1018 1195 937.5 1242.5 c 128,-1,34
 857 1290 857 1290 750 1290 c 0,35,36
 639 1290 639 1290 557 1242 c 128,-1,37
 475 1194 475 1194 421 1111.5 c 128,-1,38
 367 1029 367 1029 341 919.5 c 128,-1,39
 315 810 315 810 315 688 c 0,20,21
393 1598 m 1,40,41
 405 1643 405 1643 424.5 1684 c 128,-1,42
 444 1725 444 1725 473.5 1756 c 128,-1,43
 503 1787 503 1787 542 1805 c 128,-1,44
 581 1823 581 1823 631 1823 c 0,45,46
 658 1823 658 1823 680 1815.5 c 128,-1,47
 702 1808 702 1808 722.5 1797.5 c 128,-1,48
 743 1787 743 1787 762.5 1774 c 128,-1,49
 782 1761 782 1761 804.5 1750.5 c 128,-1,50
 827 1740 827 1740 853.5 1732.5 c 128,-1,51
 880 1725 880 1725 913 1725 c 0,52,53
 934 1725 934 1725 952.5 1733.5 c 128,-1,54
 971 1742 971 1742 986 1755.5 c 128,-1,55
 1001 1769 1001 1769 1010.5 1787 c 128,-1,56
 1020 1805 1020 1805 1022 1823 c 1,57,-1
 1104 1823 l 1,58,59
 1092 1778 1092 1778 1072 1737 c 128,-1,60
 1052 1696 1052 1696 1023 1665.5 c 128,-1,61
 994 1635 994 1635 955 1616.5 c 128,-1,62
 916 1598 916 1598 866 1598 c 0,63,64
 839 1598 839 1598 816.5 1605.5 c 128,-1,65
 794 1613 794 1613 773.5 1623.5 c 128,-1,66
 753 1634 753 1634 733 1647 c 128,-1,67
 713 1660 713 1660 690.5 1670.5 c 128,-1,68
 668 1681 668 1681 641 1688.5 c 128,-1,69
 614 1696 614 1696 581 1696 c 0,70,71
 560 1696 560 1696 542 1687.5 c 128,-1,72
 524 1679 524 1679 509.5 1665.5 c 128,-1,73
 495 1652 495 1652 486 1634 c 128,-1,74
 477 1616 477 1616 475 1598 c 1,75,-1
 393 1598 l 1,40,41
EndSplineSet
EndChar

